<?xml version="1.0" encoding="UTF-8"?>
<svg width="106px" height="87px" viewBox="0 0 106 87" version="1.1" xmlns="http://www.w3.org/2000/svg" xmlns:xlink="http://www.w3.org/1999/xlink">
    <title>privchat</title>
    <g id="Page-1" stroke="none" stroke-width="1" fill="none" fill-rule="evenodd">
        <g id="privchat" fill="#7D4698" fill-rule="nonzero">
            <path d="M65.9933604,4 C84.7933604,4 100.59336,18.7 101.89336,37.6 C102.49336,46.4 99.7933604,55.1 94.2933604,62.2 C88.7933604,69.2 80.9933604,74 72.2933604,75.5 C70.1933604,75.9 67.9933604,76.1 65.8933604,76.1 C61.4933604,76.1 57.1933604,75.3 53.0933604,73.7 C52.5933604,73.5 52.1933604,73.4 51.6933604,73.4 C50.9933604,73.4 50.1933604,73.6 49.5933604,74 C46.6933604,75.8 42.7933604,76.9 39.2933604,77.3 C40.5933604,75.8 41.6933604,74.1 42.9933604,72 C43.9933604,70.4 43.5933604,68.3 42.1933604,67 C35.0933604,60.7 30.7933604,52 30.1933604,42.5 C28.9933604,24.2 42.0933604,7.7 59.9933604,4.5 C61.8933604,4.2 63.9933604,4 65.9933604,4 M65.9933604,2.13162821e-14 C63.7933604,2.13162821e-14 61.4933604,0.2 59.1933604,0.6 C39.1933604,4 24.6933604,22.3 26.0933604,42.7 C26.7933604,53.7 31.8933604,63.3 39.4933604,70 C37.4933604,73.4 35.9933604,75.4 32.8933604,78.2 C31.4933604,79.4 32.3933604,81.7 34.1933604,81.7 C34.3933604,81.7 34.5933604,81.7 34.7933604,81.7 C39.9933604,81.7 46.8933604,80.4 51.6933604,77.5 C56.1933604,79.2 60.9933604,80.2 65.9933604,80.2 C68.2933604,80.2 70.6933604,80 73.0933604,79.6 C92.9933604,75.8 107.29336,57.5 105.89336,37.3 C104.39336,15.9 86.6933604,2.13162821e-14 65.9933604,2.13162821e-14 L65.9933604,2.13162821e-14 Z" id="Shape" transform="translate(65.993953, 40.850000) scale(-1, 1) translate(-65.993953, -40.850000) "></path>
            <path d="M39.99336,9 C58.79336,9 74.59336,23.7 75.89336,42.6 C76.49336,51.4 73.79336,60.1 68.29336,67.2 C62.79336,74.2 54.99336,79 46.29336,80.5 C44.19336,80.9 41.99336,81.1 39.89336,81.1 C35.49336,81.1 31.19336,80.3 27.09336,78.7 C26.59336,78.5 26.19336,78.4 25.69336,78.4 C24.99336,78.4 24.19336,78.6 23.59336,79 C20.69336,80.8 16.79336,81.9 13.29336,82.3 C14.59336,80.8 15.69336,79.1 16.99336,77 C17.99336,75.4 17.59336,73.3 16.19336,72 C9.09336,65.7 4.79336,57 4.19336,47.5 C2.99336,29.2 16.09336,12.7 33.99336,9.5 C35.89336,9.2 37.99336,9 39.99336,9 M33.19336,5.6 C13.19336,9 -1.30664,27.3 0.0933600015,47.7 C0.793360002,58.7 5.89336,68.3 13.49336,75 C11.49336,78.4 9.99336,80.4 6.89336,83.2 C5.49336,84.4 6.39336,86.7 8.19336,86.7 C8.39336,86.7 8.59336,86.7 8.79336,86.7 C13.99336,86.7 20.89336,85.4 25.69336,82.5 C30.19336,84.2 34.99336,85.2 39.99336,85.2 C42.29336,85.2 44.69336,85 47.09336,84.6 C66.99336,80.8 81.29336,62.5 79.89336,42.3 C78.39336,20.9 60.69336,5 39.99336,5 C37.79336,5 35.49336,5.2 33.19336,5.6 Z" id="Shape"></path>
            <path d="M61.7671233,55.0724638 C61.9726027,56.0869565 61.2534247,57 60.2260274,57 L50.8767123,57 C49.8493151,57 49.130137,56.0869565 49.3356164,55.0724638 L52.4178082,43.1014493 C49.8493151,41.9855072 48,39.4492754 48,36.4057971 C48,32.3478261 51.390411,29 55.5,29 C59.609589,29 63,32.3478261 63,36.4057971 C63,39.3478261 61.1506849,41.884058 58.5821918,43.1014493 L61.7671233,55.0724638 Z" id="Path"></path>
        </g>
    </g>
</svg>