<?xml version="1.0" encoding="UTF-8"?>
<svg width="47px" height="60px" viewBox="0 0 47 60" version="1.1" xmlns="http://www.w3.org/2000/svg" xmlns:xlink="http://www.w3.org/1999/xlink">
    <!-- Generator: sketchtool 52.6 (67491) - http://www.bohemiancoding.com/sketch -->
    <title>180F9F60-5021-44C1-A18B-3846D278F7EC</title>
    <desc>Created with sketchtool.</desc>
    <g id="Landings" stroke="none" stroke-width="1" fill="none" fill-rule="evenodd">
        <g id="Download-Desktop---review" transform="translate(-778.000000, -475.000000)" fill="#FFFFFF" fill-rule="nonzero">
            <g id="linux" transform="translate(756.000000, 461.000000)">
                <g id="iconmonstr-linux-os-4" transform="translate(22.000000, 14.000000)">
                    <path d="M41.4153846,44.9346154 L39.4769231,40.8423077 C40.6576923,33.65 37.3461538,27.3115385 33.3961538,23.25 C30.0807692,19.8423077 31.15,16.5269231 31.15,13.6538462 C31.15,9.06923077 29.2730769,4.23076923 23.5653846,4.23076923 C17.4692308,4.23076923 15.7961538,9.31923077 15.7384615,12.2192308 C15.5923077,19.1884615 17.1461538,21 13.0730769,26.0769231 C8.27307692,32.0461538 7.56153846,37.9961538 8.65,41.1538462 C8.13846154,41.7423077 7.45384615,42.3961538 6.17692308,42.9384615 C2.64615385,44.4769231 5.23461538,47.05 4.25769231,48.8769231 C3.98076923,49.3961538 3.84615385,49.9346154 3.84615385,50.4576923 C3.84615385,52.0615385 5.11923077,53.4461538 7.43846154,53.2384615 C10.5615385,52.9576923 13.4384615,55.1692308 15.3,55.1692308 C16.9461538,55.1692308 18.2961538,54.2346154 18.9192308,52.9461538 C21.8653846,52.2230769 25.4961538,52.3115385 28.4384615,53.0692308 C28.9692308,54.55 30.4,55.5076923 31.9923077,55.5076923 C35.4769231,55.5076923 36.15,51.5576923 40.1461538,50.2192308 C41.5846154,49.7423077 42.3076923,48.3461538 42.3076923,47.0423077 C42.3076923,46.2115385 42.0115385,45.4192308 41.4153846,44.9346154 Z M21.8692308,22.5730769 C21.1884615,22.5730769 20.6269231,22.0230769 19.7307692,21.3615385 C18.6038462,20.5230769 17.4538462,20.0384615 17.4692308,19.1615385 C17.4692308,18.5538462 18.2769231,18.3692308 19.3230769,17.7038462 C20.4461538,16.9923077 20.8846154,16.2730769 21.9884615,16.2730769 C23.1192308,16.2730769 23.4653846,16.8423077 25,17.5076923 C26.5153846,18.1615385 27.5653846,18.4192308 27.5653846,19.1615385 C27.5653846,19.9192308 25.9807692,20.4615385 25.0923077,21.0115385 C23.7923077,21.8192308 23.1153846,22.5730769 21.8692308,22.5730769 Z M25.4269231,11.4307692 C27.3076923,11.7307692 27.5192308,15.0423077 26.6192308,16.6730769 L25.8615385,16.3653846 C26.2576923,15.2038462 26.25,13.2923077 24.9307692,13.1730769 C24.0961538,13.0961538 23.5615385,14.2 23.4423077,15.1423077 C23.1153846,15.0038462 22.7538462,14.9076923 22.3230769,14.8692308 C22.4615385,12.8961538 23.7307692,11.1576923 25.4269231,11.4307692 Z M18.1538462,12.1346154 C19.5961538,11.7730769 20.4538462,13.4538462 20.4576923,15.2 L19.8,15.6076923 C19.7076923,14.8769231 19.3846154,13.6884615 18.5615385,13.9423077 C17.6807692,14.2115385 17.8269231,16.2538462 18.3153846,16.6692308 L17.6653846,17.0346154 C16.7615385,15.5269231 16.7615385,12.4807692 18.1538462,12.1346154 Z M13.6346154,53.2538462 C9.43846154,51.3461538 8.01153846,51.7807692 7.21153846,51.7807692 C5.54615385,51.7807692 5.01153846,50.5423077 5.63461538,49.3730769 C6.16538462,48.3807692 6,47.3384615 5.86923077,46.5038462 C5.66538462,45.2230769 5.63461538,44.8038462 6.89230769,44.2538462 C8.63076923,43.5153846 9.40769231,42.5653846 9.98461538,41.8538462 C11.6038462,39.85 13.2423077,43 14.5807692,45.8038462 C15.4538462,47.6230769 17.1615385,48.5423077 17.6884615,50.5576923 C18.1692308,52.4192308 16.1653846,54.4038462 13.6346154,53.2538462 Z M28.5653846,49.25 C25.6038462,50.6884615 21.8423077,51.3461538 19.0230769,49.8884615 C18.6115385,48.6846154 17.9423077,47.9076923 17.2230769,47.1230769 C18.3769231,46.8230769 19.2307692,45.3846154 18.2038462,43.9423077 C17.1153846,42.4 14.8846154,41.3269231 12.6307692,39.5807692 C10.5192308,37.95 9.85384615,33.9346154 12.7230769,29.4384615 C11.3269231,33.4192308 12.1461538,37.0846154 12.8461538,38.1346154 C12.9884615,36.0230769 13.1576923,32.4961538 16.0423077,28.2730769 C17.4961538,26.1423077 17.5192308,23.3230769 17.5538462,21.5615385 L18.8769231,22.4692308 C19.85,23.1884615 20.6692308,23.9846154 21.8384615,23.9846154 C23.5692308,23.9846154 24.5230769,22.9884615 25.8615385,22.1615385 C26.3846154,21.8423077 27.1730769,21.5153846 27.8307692,21.0653846 C28.9423077,26.3538462 33.55,32.7192308 33.8115385,36.3461538 C34.8769231,34.1423077 33.5038462,28.8384615 33.5038462,28.8384615 C35.3038462,31.5846154 35.4461538,33.8730769 35.5230769,36.6807692 C36.7846154,37.1923077 38.1346154,38.5384615 38.2576923,40.3038462 L37.7307692,40.2423077 C37.4653846,38.2769231 32.1653846,35.3923077 31.6884615,39.0923077 C29.1423077,39.4807692 30.0692308,43.5076923 29.5538462,46.1153846 C29.3153846,47.3115385 28.8769231,48.2576923 28.5653846,49.25 Z M38.9192308,49.1615385 C36.8153846,49.9730769 35.3923077,51.6961538 34.4153846,52.7692308 C32.5346154,54.8346154 30.0461538,53.8461538 29.7846154,51.9153846 C29.5038462,49.85 30.55,48.7230769 31.0038462,46.4153846 C31.4115385,44.3038462 30.9538462,41.0576923 31.9230769,40.7153846 C32.55,44.4615385 36.3346154,42.8846154 37.2,41.8615385 C38.6,41.8615385 38.7230769,42.3384615 39.0384615,43.6538462 C39.2346154,44.4769231 39.5038462,45.1692308 40.2692308,45.9807692 C41.1692308,46.9307692 40.8961538,48.4 38.9192308,49.1615385 Z M21.8269231,21.3692308 C20.4384615,21.3692308 19.3923077,20.4461538 18.5461538,19.7269231 C18.1153846,19.3615385 18.65,18.6846154 19.0884615,19.0538462 C19.9153846,19.7538462 20.75,20.4961538 21.8269231,20.4961538 C23.1230769,20.4961538 24.2653846,19.3846154 25.8153846,18.7769231 C26.3423077,18.5692308 26.6423077,19.3884615 26.1192308,19.5923077 C24.6153846,20.1846154 23.4076923,21.3692308 21.8269231,21.3692308 Z M41.3615385,53.8730769 C40.4423077,54.1807692 39.8423077,54.7769231 38.8692308,55.8038462 C37.5230769,57.2192308 35.4923077,59.3576923 31.9923077,59.3576923 C29.6153846,59.3576923 27.4230769,58.2653846 26.0076923,56.4961538 C24.4615385,56.2615385 22.7384615,56.2269231 21.1653846,56.4346154 C19.7038462,58.0615385 17.6,59.0153846 15.3,59.0153846 C12.8884615,59.0153846 10.1846154,57.1038462 6.98461538,57.1038462 C3,57.1038462 0,54.2461538 0,50.4576923 C0,49.4846154 0.211538462,48.4961538 0.623076923,47.5653846 C-0.05,43.8576923 0.984615385,41.1153846 4.42307692,39.5076923 C4.06538462,35.3461538 5.35384615,29.5307692 10.0730769,23.6653846 C12.2038462,21.0153846 12.1615385,20.2115385 11.9923077,16.8423077 C11.9307692,15.5923077 11.8538462,14.0346154 11.8923077,12.1384615 C12.0076923,6.47692308 15.7115385,0.384615385 23.5653846,0.384615385 C30.3115385,0.384615385 35.65,5.42307692 34.9038462,15.6115385 C34.7423077,17.9884615 34.7269231,19.1 36.15,20.5653846 C38.7230769,23.2115385 44.3692308,30.2 43.4730769,39.8615385 C43.8730769,40.6769231 44.0692308,41.4576923 44.2692308,42.3384615 C45.4730769,43.5269231 46.1538462,45.2115385 46.1538462,47.0423077 C46.1538462,50.1692308 44.2269231,52.9153846 41.3615385,53.8730769 Z" id="Shape"></path>
                </g>
            </g>
        </g>
    </g>
</svg>