<svg xmlns="http://www.w3.org/2000/svg" xmlns:xlink="http://www.w3.org/1999/xlink" viewBox="0 0 244.43 183.47"><defs><style>.cls-1,.cls-13,.cls-3{fill:none;}.cls-2{fill:#fed916;stroke:#fed916;}.cls-11,.cls-14,.cls-2,.cls-6,.cls-9{stroke-miterlimit:10;}.cls-2,.cls-8,.cls-9{stroke-width:0.5px;}.cls-3,.cls-7,.cls-8{stroke:#240a3b;}.cls-13,.cls-3,.cls-7,.cls-8{stroke-linecap:round;stroke-linejoin:round;}.cls-13,.cls-3,.cls-7{stroke-width:1.6px;}.cls-4{fill:#fff;}.cls-5,.cls-8{fill:#240a3b;}.cls-6{fill:#cf63a6;}.cls-13,.cls-6{stroke:#cf63a6;}.cls-10,.cls-14,.cls-7,.cls-9{fill:#6fc8b7;}.cls-14,.cls-9{stroke:#6fc8b7;}.cls-11{fill:#895ba5;stroke:#895ba5;}.cls-11,.cls-14{stroke-width:0.75px;}.cls-12{clip-path:url(#clip-path);}</style><clipPath id="clip-path"><path class="cls-1" d="M189.57,158.77c.4-29.19-19.57-65.25-43.1-71.89s-90.79,14.45-90.79,14.45l30.53,57.51Z"/></clipPath></defs><title>Asset 31</title><g id="Layer_2" data-name="Layer 2"><g id="Layer_1-2" data-name="Layer 1"><rect class="cls-1" width="244.43" height="183.47"/><polygon class="cls-2" points="191.79 45.98 158.44 45.98 166.2 20.19 184.04 20.19 191.79 45.98"/><polygon class="cls-3" points="186.72 47.97 186.02 47.98 185.25 48.03 184.47 48.08 183.7 47.93 182.92 48.1 182.15 48.07 181.38 48.06 180.6 47.98 179.83 47.99 179.06 47.95 178.29 48.06 177.51 48.06 176.74 48.01 175.96 48.02 175.19 47.94 174.41 48.05 173.64 48.08 172.86 47.97 172.09 48.01 171.31 47.94 170.54 48 169.76 47.99 168.99 47.92 168.21 48.12 167.44 48.06 166.66 48.08 165.89 47.93 165.12 47.98 164.34 47.93 163.56 47.98 162.79 48.01 162.02 47.96 161.24 48.09 160.46 48.04 159.68 48.02 158.9 47.93 158.13 47.99 157.35 48.08 156.57 47.95 155.79 48 155.01 48.1 154.23 48.08 153.52 47.96 153.7 47.27 153.89 46.51 154.16 45.77 154.28 44.98 154.62 44.25 154.8 43.48 155.06 42.73 155.34 41.99 155.45 41.2 155.79 40.48 155.93 39.69 156.1 38.91 156.35 38.16 156.59 37.41 156.83 36.65 157.18 35.93 157.25 35.13 157.44 34.37 157.73 33.63 158 32.88 158.27 32.14 158.36 31.34 158.73 30.62 158.84 29.83 159.2 29.11 159.31 28.31 159.55 27.55 159.91 26.83 160.02 26.04 160.35 25.31 160.45 24.5 160.76 23.76 160.93 22.98 161.16 22.18 161.97 22.21 162.75 22.24 163.52 22.29 164.29 22.17 165.07 22.31 165.84 22.18 166.61 22.14 167.38 22.32 168.16 22.29 168.93 22.23 169.7 22.29 170.48 22.29 171.25 22.13 172.03 22.32 172.81 22.16 173.58 22.3 174.36 22.16 175.14 22.2 175.91 22.26 176.69 22.15 177.47 22.15 178.25 22.26 178.98 22.3 179.29 22.97 179.4 23.76 179.73 24.49 180.02 25.23 180.12 26.02 180.31 26.8 180.71 27.5 180.79 28.3 181.07 29.04 181.3 29.8 181.5 30.57 181.86 31.28 182.08 32.04 182.31 32.8 182.37 33.61 182.62 34.36 182.83 35.12 183.08 35.87 183.41 36.59 183.51 37.39 183.9 38.1 184 38.9 184.34 39.62 184.59 40.38 184.72 41.16 184.99 41.91 185.19 42.68 185.45 43.43 185.58 44.22 185.8 44.98 186.03 45.75 186.4 46.47 186.53 47.26 186.72 47.97"/><polygon class="cls-3" points="187.25 75.22 187.34 74.38 187.25 73.58 187.29 72.79 187.41 71.99 187.34 71.19 187.38 70.39 187.18 69.61 187.2 68.8 186.97 68.03 186.9 67.23 186.6 66.48 186.38 65.72 186.21 64.93 185.82 64.23 185.47 63.52 185.18 62.77 184.68 62.15 184.28 61.44 183.74 60.85 183.05 60.42 182.47 59.87 181.84 59.42 181.17 59.03 180.49 58.64 179.75 58.4 179.1 57.94 178.34 57.76 177.63 57.45 176.84 57.35 176.18 56.92 175.46 56.63 174.88 56.11 174.54 55.42 174.19 54.74 174 54 173.92 53.23 173.75 52.47 173.64 51.71 173.67 50.93 173.65 50.16 173.64 49.42 172.83 49.38 172 49.42 171.17 49.38 170.35 49.31 169.52 49.33 168.69 49.31 167.85 49.38 167.05 49.47 167 50.15 167.06 50.93 167.02 51.71 166.79 52.47 166.85 53.26 166.61 54.01 166.54 54.79 166.19 55.49 165.74 56.12 165.14 56.59 164.52 57.07 163.77 57.25 163.04 57.49 162.3 57.71 161.59 58 160.91 58.39 160.19 58.67 159.49 59 158.81 59.38 158.19 59.85 157.57 60.36 156.99 60.91 156.49 61.53 156.02 62.16 155.55 62.8 155.09 63.46 154.8 64.21 154.54 64.96 154.21 65.69 154.06 66.47 153.76 67.22 153.61 68.01 153.59 68.81 153.52 69.6 153.38 70.39 153.22 71.19 153.38 71.99 153.31 72.78 153.25 73.59 153.42 74.38 153.47 75.09 154.22 75.19 155.01 75.24 155.79 75.09 156.58 75.11 157.36 75.27 158.15 75.19 158.93 75.18 159.71 75.26 160.49 75.2 161.28 75.24 162.06 75.15 162.84 75.12 163.63 75.13 164.41 75.19 165.2 75.16 165.99 75.07 166.77 75.09 167.55 75.23 168.34 75.25 169.12 75.2 169.91 75.12 170.7 75.27 171.48 75.16 172.27 75.18 173.05 75.23 173.84 75.27 174.62 75.21 175.41 75.08 176.19 75.18 176.98 75.16 177.76 75.11 178.55 75.07 179.34 75.17 180.12 75.26 180.91 75.17 181.7 75.08 182.49 75.24 183.28 75.16 184.06 75.17 184.85 75.22 185.64 75.27 186.44 75.1 187.25 75.22"/><polyline class="cls-4" points="120.34 93.29 120.55 92.16 119.97 91.02 119.94 89.89 119.95 88.76 119.93 87.63 120.12 86.51 120.38 85.38 120.36 84.25 120.56 83.12 120.32 81.98 120.42 80.85 120.53 79.72 120.3 78.58 120.11 77.44 120.25 76.31 120.37 75.17 120.33 73.93 121.6 74.28 122.76 74.23 123.93 74.04 125.09 73.85 126.26 74.05 127.42 74.04 128.59 74.17 129.75 74.07 130.92 74.32 132.08 73.7 133.24 73.64 134.41 73.7 135.57 74.08 136.73 73.96 137.9 73.98 139.06 74.18 140.23 73.61 141.4 73.91 142.56 73.62 143.73 74.2 144.89 73.7 146.06 73.59 147.22 74.21 148.39 74.17 149.55 73.61 150.72 73.8 151.88 74.22 153.05 74.17 154.21 73.67 155.38 73.63 156.55 74.01 157.71 73.53 158.88 73.91 160.04 73.72 161.21 73.83 162.37 74.14 163.53 73.73 164.7 73.91 165.86 73.99 167.02 73.99 168.18 73.8 169.35 73.91 170.51 73.79 171.68 73.99 172.84 73.46 174.01 74.1 175.18 73.6 176.34 74.12 177.5 73.74 178.67 73.92 179.84 73.99 181 73.57 182.17 73.72 183.34 73.96 184.51 74.04 185.68 73.91 186.84 73.94 188.01 73.72 189.18 74.03 190.35 73.56 191.52 73.78 192.68 73.89 193.84 73.4 195.01 74.05 196.18 73.64 197.35 73.68 198.52 73.45 199.69 73.91 200.86 74 202.03 73.61 203.2 73.52 204.38 73.44 205.55 73.64 206.73 73.37"/><polyline class="cls-3" points="120.34 93.29 120.55 92.16 119.97 91.02 119.94 89.89 119.95 88.76 119.93 87.63 120.12 86.51 120.38 85.38 120.36 84.25 120.56 83.12 120.32 81.98 120.42 80.85 120.53 79.72 120.3 78.58 120.11 77.44 120.25 76.31 120.37 75.17 120.33 73.93 121.6 74.28 122.76 74.23 123.93 74.04 125.09 73.85 126.26 74.05 127.42 74.04 128.59 74.17 129.75 74.07 130.92 74.32 132.08 73.7 133.24 73.64 134.41 73.7 135.57 74.08 136.73 73.96 137.9 73.98 139.06 74.18 140.23 73.61 141.4 73.91 142.56 73.62 143.73 74.2 144.89 73.7 146.06 73.59 147.22 74.21 148.39 74.17 149.55 73.61 150.72 73.8 151.88 74.22 153.05 74.17 154.21 73.67 155.38 73.63 156.55 74.01 157.71 73.53 158.88 73.91 160.04 73.72 161.21 73.83 162.37 74.14 163.53 73.73 164.7 73.91 165.86 73.99 167.02 73.99 168.18 73.8 169.35 73.91 170.51 73.79 171.68 73.99 172.84 73.46 174.01 74.1 175.18 73.6 176.34 74.12 177.5 73.74 178.67 73.92 179.84 73.99 181 73.57 182.17 73.72 183.34 73.96 184.51 74.04 185.68 73.91 186.84 73.94 188.01 73.72 189.18 74.03 190.35 73.56 191.52 73.78 192.68 73.89 193.84 73.4 195.01 74.05 196.18 73.64 197.35 73.68 198.52 73.45 199.69 73.91 200.86 74 202.03 73.61 203.2 73.52 204.38 73.44 205.55 73.64 206.73 73.37"/><path class="cls-5" d="M186.06,88.88l-.43,65.92L64.2,152.67l.28-60.75a8.84,8.84,0,0,1,8.62-8.74l103.8-3.13A8.83,8.83,0,0,1,186.06,88.88Z"/><path class="cls-5" d="M185.73,88.88c0,.2.15.08.1-.45l-.18-.37Z"/><path class="cls-5" d="M185.28,85.29c-.34-.56-.85-1.09-.77-.67a2.9,2.9,0,0,1,.44.55l.43.63c.23.5.23.92.16.84a2.79,2.79,0,0,1,.13.51,2.31,2.31,0,0,0,.15.58,4.43,4.43,0,0,0-.66-2.43C185.11,85.11,185.23,85.26,185.28,85.29Z"/><path class="cls-5" d="M133.56,81.12h0Z"/><path class="cls-5" d="M100.21,82c.25,0,.36,0,.37-.05C100.34,82,100.15,82,100.21,82Z"/><path class="cls-5" d="M94.51,82h.34A1.27,1.27,0,0,0,94.51,82Z"/><path class="cls-5" d="M133.56,81.12l-.89,0A3.11,3.11,0,0,0,133.56,81.12Z"/><path class="cls-5" d="M179.8,80.89a3.1,3.1,0,0,0,.45.1l-.42-.12Z"/><path class="cls-5" d="M148.26,80.55h.27l.22-.08Z"/><path class="cls-5" d="M159.54,80.18c-.25,0-.34.15-.44.21a1.68,1.68,0,0,1,.56-.11S159.63,80.22,159.54,80.18Z"/><path class="cls-5" d="M177.45,79.92l.32,0Z"/><path class="cls-5" d="M140.18,80.76a.23.23,0,0,0-.1-.05S140.12,80.75,140.18,80.76Z"/><path class="cls-5" d="M185.32,102s0,0,0,0S185.32,101.87,185.32,102Z"/><path class="cls-5" d="M186.1,88.88v.18a.2.2,0,0,0,.08,0Z"/><path class="cls-5" d="M84.08,82.16h0C84.4,82.14,84.25,82.15,84.08,82.16Z"/><path class="cls-5" d="M74.57,153.43c-1.08-.14,1.77-.13.14-.3C74.86,153.19,73.22,153.33,74.57,153.43Z"/><path class="cls-5" d="M179.54,80.78l-.43-.1Z"/><path class="cls-5" d="M74.71,153.13h0l-.17,0Z"/><path class="cls-5" d="M63.91,91.33a2.08,2.08,0,0,0,.08-.26S64,91.13,63.91,91.33Z"/><path class="cls-5" d="M78,82.63h-.44A3.22,3.22,0,0,0,78,82.63Z"/><path class="cls-5" d="M64,100.65a6.44,6.44,0,0,0,0,.66l0-.1A2,2,0,0,1,64,100.65Z"/><path class="cls-5" d="M64,110.33l0-.18v-.31Z"/><path class="cls-5" d="M185.19,131.35a1.68,1.68,0,0,1,.13-.44C185.22,131.05,185.19,129.63,185.19,131.35Z"/><path class="cls-5" d="M179.82,80.81a.49.49,0,0,1-.28,0l.29.09S179.87,80.84,179.82,80.81Z"/><path class="cls-5" d="M65.15,101.05l0,1.54C65.13,102.16,65.14,101.6,65.15,101.05Z"/><path class="cls-5" d="M139.7,153.42h.36A2,2,0,0,0,139.7,153.42Z"/><path class="cls-5" d="M65.12,107.15a7.51,7.51,0,0,0-.1.86c0,.07,0,.14,0,.18Z"/><path class="cls-5" d="M185.32,130.9h0Z"/><path class="cls-5" d="M185.05,120.78c0,1.46.18.69.28,1,0,1.75-.14.81-.24,1.4,0,1.09.21,1.93.2,2.75,0,.06,0,.21-.08,0,.14,1.15,0,3.42.16,4.77a.72.72,0,0,1-.05.17c.09-.21.19-.25.25-.2a5.56,5.56,0,0,1,0,1.46,1.62,1.62,0,0,0-.08-.62l.05.69c-.18.61-.05-.94-.18-.94.05,1.34.18,2.9.12,3.93-.17.21,0-2.4-.2-1l.08-1.59c-.28,1.21,0-1-.27.14-.07,2.1.07,2.35,0,4.43.09.47.14-.15.23.32.15,3-.44,2.33-.23,4.51a5.4,5.4,0,0,1,.2,2.34l-.19-.53c0,2,.27,1.16.12,3.28-.07-.38-.05-1.59-.08-1.29-.16,1.38.11,1,.1,2l-.17.22c0,1,0,2.16.06,3.29s.05,2,.07,3h-.08s0,0,0-.06,0-.09-.07-.07l-.08,0h-1.88l-2.39-.07-4.62-.21-1.12.13c-.26,0-.47-.08-.19-.1-1.14-.08-.07.09-.61.14s-.85-.1-.44-.14a72.54,72.54,0,0,1-7.8,0l.41,0c-1.64-.09-1.85.27-3.37.11l.29,0c-3.56-.13-7.49-.06-10.2-.33-.52.2-3.52-.16-3.76.13-2-.18-1.44-.22-4.3-.37-.77,0-1.15.16-2.09.18l0-.16-1.29.14-.68-.2-.88,0c.35,0,.75.08.69.12a15.79,15.79,0,0,1-3.4-.24l-3.28.07a5.47,5.47,0,0,1,1.06-.1c-1.76.12-.32-.17-1.92,0,.21,0-.12.08-.16.12a37.55,37.55,0,0,0-4-.13l.26-.1c-2.43-.07-5.12,0-7.85-.09,1,.07.75.25,0,.25l-.31-.17c-.52.09.83.08-.23.18s-.68-.19-.1-.24l-1.24,0c-.07,0,.22-.07.3-.13-.51.09-2.14-.2-2.87,0l-.07-.05-6.18,0c0,.14-.92.1-1.58.2-1.63-.07-3.44-.22-5.4-.24-1.39.05-.41.11-1,.19-.1-.13-2.07-.16-1-.23-2.36,0-3,0-6,0,.33.06.69.09.5.13-.54,0-1.23-.07-1.15-.13h.14c-3.35.13-7.72-.51-10.39-.29h.15l-2.77.09c-1.27-.05.76-.09-.18-.18-3,.16-4.71-.12-7.17,0-1.89-.41-6.75-.09-9.31-.37l.15.09a1.84,1.84,0,0,1-.66,0s0-.07,0-.08.09.08,0,.13h-.13V150.6c0-.7,0-1.39,0-2.1,0-1.4,0-2.81.08-4.23.07-2.84.14-5.7.21-8.5,0-2.11-.46-1.2-.23-3.86l.16.76c-.18-4.26,0-8.7-.1-12.86a2.84,2.84,0,0,1,.08.66,13.72,13.72,0,0,0-.08-3.27c0-.65.09-.15.15-.55.07-.88-.15-2.21,0-2.68,0-.08,0,.25,0,.41-.06-.58,0-2.68-.11-2.13.07-1.56,0-3,0-4.24-.15-.81.08-2.67-.13-2.93.22.11.19-2.74.09-3.73.07.33.07-.86.17-.47,0-1.13,0-2.16-.16-2,.28-2.08-.19-4.18.16-5.35,0-.83-.07-1.68,0-2.41A8,8,0,0,1,65.57,89a8.2,8.2,0,0,1,2.48-3.52c0,.11-.58.61-1.06,1.19s-.84,1.22-.7,1.22a8.49,8.49,0,0,1,2.18-2.62,7,7,0,0,1,3.12-1.44c.69-.09-.37.16-.57.29A7.22,7.22,0,0,1,73,83.74c.67,0,1.36,0,2-.07,1.34,0,2.64-.09,3.91-.19a1.9,1.9,0,0,1-.54.08c.5,0,1.16,0,1.1-.1l-.48,0c-.81-.12,2-.37,2.06-.45-.84.32,2.51,0,1.18.41.32,0,.74-.09.66-.16.49,0,.64,0,.15.14,1.79-.11,1.15-.2,2.78-.25,0,0-.33.08-.5.14a18.34,18.34,0,0,1,3-.24c-.09,0,.07.07-.33.08,2.35-.09,4-.38,6.6-.37-.76.24.88,0,1,.23l1.39-.1-.56-.07c1.22,0,2.29-.2,3.34-.17l-.9.1,2.28-.1-1.3,0c1.23-.14-.14-.24,1.49-.23-.33,0,1.22,0,1.85,0h0a13.61,13.61,0,0,1,2.12-.14c.24.06-.18.22,0,.25.59-.17,2.85-.13,3.6-.32-.25,0-.26.15-.17.17l.49-.15c.57,0,.65,0,.56.12,1.7,0-.55-.22,1.47-.17-.16,0-.08,0-.41.06,2,0,3.91-.2,5.77-.2.55.18-1.62.1-1,.24,2.68-.12,5.54-.39,8.14-.43h-.48c.35-.28,1.93.07,3.24-.1-.32,0-.42.16-.33.13,1.78,0,3.63-.17,6.32-.34l-.33.08c1,0,2.76-.05,3.89-.05.33-.08,1-.09.58-.17,3.5.28,6.65-.41,9.75-.18-.37,0-.88.08-.58.07l2.63-.14c-.21-.11-.35-.06-.9-.13a10.74,10.74,0,0,1,1.72-.17c-1.18.11,0,.18.53.23-.08,0,.09-.08,0-.11,1.38.16.22-.24,2.1-.16l-.09.06c.7-.05,1.35-.15,2.1-.15.32.12-.74.08-.79.19a23.77,23.77,0,0,1,3.07-.21l-1.56.12a10.72,10.72,0,0,0,2,.08h-.08l1.81,0-.46,0c1.32-.39,2.71-.14,4.5-.43-1.74.27-.28.14-.41.29.46,0,1.15.06,1,.11.84-.15,1.42,0,2.61-.17.06,0,.91,0,.72.11,1.1-.07-.26-.08-.17-.14,1.69-.22,4,.08,6.44-.22,2.11-.16,2.5-.34,4.45-.47.66.08-.53.17-.53.19a16,16,0,0,1,2.81.25c-.21,0,0,.07.26.19.74.25.57,0,1.49.47a5.32,5.32,0,0,1-.79-.14,9,9,0,0,1,2.48,1.25c.15.21-.53-.26-.84-.4a16,16,0,0,1,2.37,2l-.39-.58c.25.31,0,.22-.16,0-.69-.61-.93-.94-.93-1l.54.44a3.52,3.52,0,0,0-1.39-1.21,12.37,12.37,0,0,0-2.17-.86h.62a8.72,8.72,0,0,0-1.43-.24c-.28-.11-.47-.28.22-.15a2.73,2.73,0,0,0-.93-.18,8,8,0,0,1-.83-.08c-.1,0,0,0,0,0-.34,0-.67,0-1,.06.19,0-.17-.14.44-.13-1.78-.07-2.85.24-3.53.1h.15c-2.46.14-.23.16-2.07.39L170.19,80l-.24.16c-.26,0-.76,0-.67-.06-.94.14.17.07-.38.18-1.22-.1-3.37.17-3.65-.07-.43.13,1.17.06-.13.18-.38-.25-1.5.09-2.62,0,.33-.14,1.39-.1.27-.19a18.08,18.08,0,0,1-3.11.09,23.15,23.15,0,0,1-3.62.24c.09-.06-3,0-4.45,0l0,0a13.8,13.8,0,0,1-2.9.27c0-.11.24-.16.84-.22l-1,0a7.91,7.91,0,0,1-1.24.15l.26-.15c-1.38,0-2.78.25-4.56.21-.09.13,1.43.31-.45.45-.07-.06-.14-.18.35-.22a6.86,6.86,0,0,1-.9,0l.75-.14c-.82,0-.42.11-1.07.12,0-.1-.48-.05-.39-.13s.56,0,.81,0a11.85,11.85,0,0,1-1.91-.09c.07,0,0,.13-.53.16-1.38,0-.47-.1-1.28-.13-.33.08-1.22,0-1.23.18a1.51,1.51,0,0,1-.64-.09c-.72.09-3.34.12-2.53.25H134c-2.34.22-4.87.06-7.19.2v0c-1.39.09-3.09.12-4.08.26-.41,0-1-.06-.79-.13a20.67,20.67,0,0,1-2.72.1c1.07-.12-.37-.07,1.09-.1a18.91,18.91,0,0,0-3.16.11c.5-.14-1-.13-1.7-.07l1,.06c-.74,0-1.38,0-2,.06l.35-.18c-2.83-.12-5.07.5-7.23.23-.74.13,1.53,0,.87.19-1.3,0-2.66-.18-3.06-.17-1.78,0-1.65.29-3.52.28.24.06.47.21-.91.31s-1.61-.2-.79-.28c.31,0,.46,0,.45,0,.42,0,1-.07.45-.12l-.16.06c-.65,0-2.44,0-2-.09-1,.09-.42.11.31.12-1.67,0-2.6.08-4.31.07.27,0,.52.09.25.09a18.65,18.65,0,0,0-2.81.23c-1-.06.34-.23-1.37-.1-1,0-.22-.15.19-.21a32.49,32.49,0,0,1-3.81,0l.82-.08c-.49,0-.9.06-1.31.07l.48.1a3,3,0,0,1-.89,0c-.49.09.39.19-.6.32a13.65,13.65,0,0,1-2.18,0c2,0-.23-.16,1.48-.23a11.2,11.2,0,0,1-1.22,0c-.07,0,.07,0,.2,0-1.94-.08-.88.21-2.89.27.25-.1-.47-.16-.8-.13.81,0,.39.14-.35.23a19.48,19.48,0,0,0-2.07.1h.77a9.54,9.54,0,0,1-1.8.16c-.08-.07.81-.07.49-.09-1,.18-2.26-.09-3.64.05-.65,0-.07-.16-.64-.19-.4.06-.72.09-1,.11l-.73.09a5.38,5.38,0,0,0-1.74.51c.53-.06.56-.16-.49.45a8.92,8.92,0,0,1,2.67-.93,8.3,8.3,0,0,0-1.71.62,8.56,8.56,0,0,1,2.21-.57c-.83.2-.74.19-.33.2a8,8,0,0,0-3.36,1.18L68.56,84a6.73,6.73,0,0,0-2.23,1.86,11.34,11.34,0,0,0-1.7,2.88,6.65,6.65,0,0,1,.39-.75,15.49,15.49,0,0,0-.72,2.35c-.08-.1-.21.42-.31.78a6.7,6.7,0,0,1,0,1,3,3,0,0,0,.14,1.13L64,94.3c-.06,2,.27,2.32.23,4.27-.11-.59-.18.29-.25-1a5.44,5.44,0,0,0,0,1.24c-.06.38.13,1.81,0,2.41a3.39,3.39,0,0,1,.14,1.09c0,.08-.05,0-.05,0s.06,1.14.17.5c-.32,2,0,5.6-.28,7.35,0,1.42,0,3.13.06,4.42,0-.09,0,0,0-.25-.1,1.78.28,1.09.16,3.11-.16,1-.08-1.07-.14-.43-.33.28,0,2.45-.16,3.81l0-.33c-.12,1,.11,2.54.08,4.24,0,0,0-.09-.05,0,.16,1.16.21,3.36.24,5-.12-.51-.06-.75-.19-.44,0,.74.21-.21.24,1.25a7.5,7.5,0,0,1-.28,1.67v-1.38a15.12,15.12,0,0,0,0,2.52l-.07-.1c0,2.12.21,2.15.18,4.42l.06-.23c.19,1.24-.11,1,0,2.28l-.2.37c0,.82.18,2.88.21,4.35-.15-.84-.21-2.56-.29-3.62a30.16,30.16,0,0,0,.09,3.18,9.38,9.38,0,0,1,0-1.06,26.45,26.45,0,0,1,.21,3.93c-.19-.15-.22.91-.24,2.15,0,.62,0,1.28,0,1.86a16,16,0,0,1-.14,1.64l0,.69h2.57l2.08.07c1.41,0,2.88.12,4.47.14-1.18-.32,1,0,.77-.3a8.2,8.2,0,0,1,1.15,0l2.35.22c.56.1-.74.06-.67.13,1.7.05.71.14,1.84.24-.23-.11.59-.14,1.56-.09l-1.36-.16c2.38-.12,2,.29,4.45.17l-.76.09c1.23,0,4.54.08,5.75-.15.21,0,.5.13,0,.14,2.94.09,6.55-.14,8.83.05l-.23.07a9.7,9.7,0,0,1,1.65,0s-.23.07,0,.08a19.44,19.44,0,0,1,2.18,0l-.62.08c2.87.14,4.4-.13,6.81-.14,0,.22,2.25.33,3.37.39l0,0c3.34.08,5.68-.09,8.77-.12,1.92.27,6.5.22,9.58.4-.47,0,.08-.17.63-.18.73.06,2-.12,1.89.08h-.26a15.32,15.32,0,0,0,3.19.2l.2-.26c3,.44,8,0,9.61.37.74-.05,1.65,0,2.38-.09l-.05.14c2,.08,3.05.11,5.56.12l-.51.09c1.41,0,1.79-.37,3.1-.36l.39.22c2.47,0,5,.27,7.41.12,0,0-.11.09-.51.09,1.16,0,4.5.22,4.08-.07,0,.19,2.55.06,3.88,0l-.21.14a14.13,14.13,0,0,1,2.74-.23c.38,0,.33.12-.17.07,1.25.1,1-.11,2.48,0l-.56.08a7.41,7.41,0,0,0,1.88-.11,10.8,10.8,0,0,1,2.61.2,5.25,5.25,0,0,1,1.63-.11c.1.05-.18.07-.31.09,2.13.13,3.18-.11,4.64.05,0,0,.13.07.25.09-1.7,0-3.06-.06-2.94-.07s1.37.17.28.33l2-.14,1.11,0h.73l.82,0V155c0-.09,0-.18,0-.25V155a12,12,0,0,0,0-1.26c0-.42,0-.7.05-1.11a15.4,15.4,0,0,0,.07-2.25c-.14.05-.11-.84-.23,0,0-.11,0,.13,0,.58a2.44,2.44,0,0,0,0,.29v1.66a7.06,7.06,0,0,1,0-1.87c-.09-.35-.18-.73-.22-.95.2-.94.32-2.74.44-3a57.21,57.21,0,0,0-.28-6.23,2,2,0,0,1,.13-.91c0,.34,0,.75.05.94a28.7,28.7,0,0,0-.18-3.8c.09-1.5.16.84.14-1.22l.06.28c.32-4-.43-6.58,0-11.06a2.7,2.7,0,0,1-.07.53c.2-5.11-.09-10.54.21-15.58a11,11,0,0,0-.14-2.47l.16-.31-.17-1.49c-.11-2.13.4-3.68.17-6.36l-.1.34a21.13,21.13,0,0,1,.08-2.89,1.53,1.53,0,0,1,0-.7l.08,0-.12-2.38c.07-1.83.31.29.34-2.39a9.79,9.79,0,0,0-.26-2.46,2.94,2.94,0,0,1-.14,1l0-.91c-.23-.16-.46-.87-.64,1.37l.13,1.56-.11.5V91.18a5.75,5.75,0,0,0,0,1.74,2.28,2.28,0,0,0-.13.66l.21,1.53c-.09.18-.17-.69-.23.34.1.72.21-.69.27.5a3.16,3.16,0,0,0-.11,1.4c-.06.12-.1-.06-.12-.41.06.78,0,2.06.13,2.47-.13.77,0,2.63-.2,2.55a18.29,18.29,0,0,1,.17,2.09c-.26-1.31,0,2.68-.31,2.33.23,1,.08,3.5.2,5.21a1.37,1.37,0,0,1,0-.43c0,1-.1,1.24-.15,1.86a11.25,11.25,0,0,1,.34,2.44c-.19,1.18-.22-.72-.41-.35.16-.06.15,2.06.28,1.66a4.36,4.36,0,0,1-.22,1.24c.24.16,0,.84.18,1.59-.13,1.31-.23.34-.17,1.78C185.13,122.06,185.05,120.78,185.05,120.78Zm.11,33.63h.09v0Zm-2.58,0,1.24,0c.1,0,0,.1-.3.09C183.68,154.46,183,154.42,182.58,154.37Zm3.67-2.59a1.91,1.91,0,0,1,0,.67c0-.22,0-.47,0-.8l0-.05A.67.67,0,0,1,186.25,151.78Z"/><path class="cls-5" d="M186.07,151v-.19l0,.27,0,.17Z"/><path class="cls-5" d="M134,81.13h-.06l.13,0Z"/><polygon class="cls-5" points="142.91 153.41 142.91 153.44 143.16 153.41 142.91 153.41"/><path class="cls-5" d="M149.8,81.14l.21,0Z"/><path class="cls-5" d="M156.64,81l1,0Z"/><path class="cls-5" d="M161.9,80.88a.32.32,0,0,0,.1-.07h0Z"/><path class="cls-5" d="M78.36,83.56h-.2C77.68,83.62,78,83.6,78.36,83.56Z"/><path class="cls-5" d="M103.21,82.48l-.8.09C102.86,82.57,103.2,82.56,103.21,82.48Z"/><path class="cls-5" d="M65.15,100.88h0v0Z"/><path class="cls-5" d="M101.26,82.61a10.12,10.12,0,0,0,1.15,0C102.05,82.58,101.62,82.57,101.26,82.61Z"/><path class="cls-5" d="M183.49,83.29l.16.18s0,0,0,0S183.55,83.35,183.49,83.29Z"/><path class="cls-5" d="M183.68,83.48l.18.2A1,1,0,0,0,183.68,83.48Z"/><path class="cls-5" d="M184.23,84.11c-.12-.15-.25-.28-.37-.43A2.88,2.88,0,0,0,184.23,84.11Z"/><path class="cls-5" d="M177.68,80.44l-.08,0A.12.12,0,0,0,177.68,80.44Z"/><path class="cls-5" d="M175.6,80.48l1.94,0,.06,0C177.3,80.54,176.08,80.37,175.6,80.48Z"/><path class="cls-5" d="M166.76,80.11h1.77c-.31,0-.72-.11.08-.14C166.38,79.86,169.08,80.06,166.76,80.11Z"/><path class="cls-5" d="M161.26,80.2c1,0,0-.08,0-.11C160.7,80.16,160.55,80.17,161.26,80.2Z"/><path class="cls-5" d="M121.57,81.4l.1-.13C120.93,81.31,121.66,81.32,121.57,81.4Z"/><polygon class="cls-5" points="114.01 82.29 114.72 82.34 115.06 82.22 114.01 82.29"/><polygon class="cls-5" points="109.5 81.51 109.82 81.48 108.6 81.57 109.5 81.51"/><path class="cls-5" d="M63.88,108.6l.16-.22C64,107.89,63.83,107.78,63.88,108.6Z"/><path class="cls-5" d="M63.91,137.39a5.32,5.32,0,0,0-.06,1.63C63.86,138.37,63.93,137.72,63.91,137.39Z"/><polygon class="cls-5" points="135.25 154.53 134.67 154.58 135.76 154.55 135.25 154.53"/><path class="cls-6" d="M91.75,47.62,154.21,55a5.83,5.83,0,0,1,5.12,4.2A46.9,46.9,0,0,1,150.39,102L81.33,87.76a9.71,9.71,0,0,1-7.71-8.38A29.68,29.68,0,0,1,75.12,66c2.65-7.48,6.49-14.14,10-16.59A10.1,10.1,0,0,1,91.75,47.62Z"/><polyline class="cls-3" points="141.69 96.2 141.82 95.03 141.79 93.87 141.83 92.7 141.88 91.54 142.14 90.4 141.99 89.21 142.26 88.07 142.38 86.91 142.66 85.78 142.96 84.65 143.13 83.49 143.34 82.35 143.42 81.18 143.66 80.04 143.88 78.89 144 77.72 144.34 76.61 144.52 75.44 144.76 74.3 145.1 73.18 145.5 72.08 145.75 70.94 146.14 69.84 146.65 68.79 147.07 67.71 147.43 66.59 147.82 65.5 148.4 64.48 148.75 63.36 149.3 62.33 149.91 61.33 150.35 60.25 150.97 59.26 151.45 58.2 151.91 57.13 152.58 56.17 152.89 55.02 153.59 54.08"/><path class="cls-7" d="M155.14,97C149.91,83.1,140,75.89,131.38,82.27c0,0-6.11,2.41-2,13.27"/><path class="cls-5" d="M125,104l-34.43,3.9c-3.78-5.06-4.64-11.5-2.13-16.68a15.34,15.34,0,0,1,7.45-7.1L125,81.24Z"/><path class="cls-5" d="M124.64,104c0,.06.14,0,.12-.14l-.16-.12Z"/><path class="cls-5" d="M125,102.84c-.08-.2-.22-.43-.37-.3.15.2.09.24.28.45,0,.17-.06.29-.12.26s0,.26.07.35a.91.91,0,0,0,0-.78C124.88,102.76,124.92,102.82,125,102.84Z"/><path class="cls-5" d="M125.21,86.55l0,.11S125.2,86.6,125.21,86.55Z"/><path class="cls-5" d="M120.2,81.38c.07,0,.1,0,.11,0S120.18,81.36,120.2,81.38Z"/><path class="cls-5" d="M118.47,81.36h.1A.17.17,0,0,0,118.47,81.36Z"/><path class="cls-5" d="M125.21,86.55l.05-.26C125.2,86.27,125.22,86.42,125.21,86.55Z"/><path class="cls-5" d="M124.55,100.59a.66.66,0,0,0,0,.15v-.14Z"/><path class="cls-5" d="M125.34,91v.08a.23.23,0,0,0,.07.07Z"/><path class="cls-5" d="M125.37,94.41c0-.07-.14-.1-.2-.13a.23.23,0,0,1,.1.17A.19.19,0,0,0,125.37,94.41Z"/><path class="cls-5" d="M125.12,99.83l0,.09Z"/><path class="cls-5" d="M125.37,88.56l0,0S125.39,88.54,125.37,88.56Z"/><path class="cls-5" d="M121,103.75v0S121,103.74,121,103.75Z"/><path class="cls-5" d="M125,104l0,0a.19.19,0,0,0,0,.08Z"/><path class="cls-5" d="M115.31,81.49h0C115.41,81.47,115.36,81.47,115.31,81.49Z"/><path class="cls-5" d="M88.47,89.85c.28-.22-.15.55.24.19C88.63,90.05,88.76,89.53,88.47,89.85Z"/><path class="cls-5" d="M124.57,100.5v-.14A.32.32,0,0,0,124.57,100.5Z"/><path class="cls-5" d="M88.71,90h0l0,0Z"/><path class="cls-5" d="M108.09,82.28l.08,0S108.15,82.3,108.09,82.28Z"/><path class="cls-5" d="M113.5,82h0Z"/><path class="cls-5" d="M105.31,82.75a.42.42,0,0,0-.19,0h0A.24.24,0,0,1,105.31,82.75Z"/><path class="cls-5" d="M102.4,83l.06,0,.09,0Z"/><path class="cls-5" d="M112.15,104.82a.45.45,0,0,1,.15.11C112.24,104.83,112.66,104.75,112.15,104.82Z"/><path class="cls-5" d="M124.63,100.59s0,0-.06-.09v.1S124.62,100.61,124.63,100.59Z"/><path class="cls-5" d="M105.3,83.86l-.46,0Z"/><path class="cls-5" d="M91.31,107.2l.1,0A.15.15,0,0,0,91.31,107.2Z"/><path class="cls-5" d="M103.47,84a.9.9,0,0,0-.27-.07l0,0Z"/><path class="cls-5" d="M112.3,104.93Z"/><path class="cls-5" d="M115.3,104.25c-.44,0-.19.2-.27.32-.52.11-.26-.11-.44-.18-.33.08-.56.28-.8.3,0,0-.08,0,0-.08-.33.19-1,.13-1.41.36l-.06,0a.36.36,0,0,1,.09.24c-.2,0-.35.16-.44,0,.12,0,.12-.06.18-.11l-.21.08c-.2-.15.28-.09.27-.22a4.92,4.92,0,0,1-1.17.28c-.08-.16.72-.13.29-.24h.48c-.39-.22.3,0-.07-.26-.64,0-.7.17-1.33.19-.13.11.06.13-.07.24-.87.27-.75-.34-1.38,0-.15.13-.19.35-.67.29l.13-.21c-.61,0-.31.31-1,.26.1-.09.47-.12.37-.13-.43-.11-.28.14-.6.18l-.08-.17c-.64.1-1.34.31-2.06.42,0-.06.15-.12,0-.15a15,15,0,0,1-2.82.19l-.32.19c-.08,0-.15,0-.07-.09-.34,0,0,.09-.16.17s-.27-.06-.15-.11a6.54,6.54,0,0,1-2.33.37l.12-.06c-.5,0-.52.37-1,.28l.09,0a18.12,18.12,0,0,1-3.08.19c-.14.23-1.07,0-1.11.33a6.11,6.11,0,0,0-1.33-.15c-.23,0-.32.23-.6.29l0-.15-.37.2-.23-.16-.26.07c.11,0,.23,0,.22.09a1.88,1.88,0,0,1-.67,0c-.09,0-.09-.1-.08-.14s-.07,0-.11,0l-.12-.12-.17-.18c.07,0,.18.11.28.19-.42-.33.08-.17-.31-.47,0,.07-.09,0-.12,0a3.39,3.39,0,0,0-.56-1h.13c-.16-.31-.34-.64-.53-1s-.35-.69-.51-1.06c.06.28-.13.3-.24.08l.12-.14c-.15-.11,0,.25-.2,0s.11-.25.21-.11l-.17-.32s.09,0,.15,0c-.14-.11-.07-.63-.28-.78l0,0c-.24-.75-.36-1.08-.52-1.71-.15,0-.15-.24-.3-.41,0-.48,0-1,0-1.59-.09-.4-.12-.11-.22-.29.13,0,.1-.61.2-.31,0-.68,0-.87-.08-1.75-.06.09-.1.19-.14.13s.1-.35.16-.32v0c-.12-1,.74-2.14.72-2.94v.05l.14-.81c.15-.33,0,.24.18,0a9,9,0,0,1,.81-1.92c.57-.28,1.06-1.65,1.75-2l-.09,0c.06-.2.19-.14.3-.23-.07,0-.2.1-.15,0a11.51,11.51,0,0,1,4.08-2.88.58.58,0,0,0,.35-.4.4.4,0,0,1,.14-.18.48.48,0,0,1,.16-.08.1.1,0,0,1,.11,0,.33.33,0,0,0,0,.17s0,0,0,0l.21,0,.48-.08,1-.1a13.44,13.44,0,0,0,1.92-.26c-.07,0-.07.1-.19.11.27.09,1-.09,1-.19.2,0,0,.09.18.12s.65-.21.8-.11-.07,0-.12.06c.17-.07.81-.06.63-.18.48,0,.9-.15,1.28-.11.23-.18.81,0,.87-.23,0,.23.84.1,1.13,0-.1.08.26,0,.16.15.33,0,.64-.11.57-.22.65.21,1.24-.34,1.62,0,1-.22,1.92-.39,2.82-.53,0,.23-1,.12-.93.35a11.12,11.12,0,0,1,2.18-.45c.23,0-.11.11-.18.16.85-.18,1.66-.14,2.41-.34,0,0-.08,0-.15.08.15,0,.35,0,.32-.1l-.14,0c-.26-.13.57-.37.59-.45-.23.32.76,0,.39.41.1,0,.22-.09.19-.16.14,0,.2,0,0,.14.54-.11.34-.2.82-.25,0,0-.09.08-.13.14a1.72,1.72,0,0,1,.89-.24s0,.07-.09.08a11.88,11.88,0,0,1,2-.35c-.21.23.27,0,.33.22l.41-.09-.17-.08a6.54,6.54,0,0,1,1-.17l-.27.11.69-.11-.4,0c.36-.13-.06-.23.43-.23-.1,0,.37,0,.57.06h0a1.15,1.15,0,0,1,.63-.14c.08.06,0,.21,0,.25.17-.17.86-.13,1.07-.31-.07,0-.07.14,0,.16l.14-.14c.17,0,.2,0,.18.12.51,0-.19-.22.43-.18,0,0,0,0-.12.06a4.93,4.93,0,0,0,.75-.08c.18,0,.38-.07.55-.08v.15c-.1.14-.11.05-.12,0s-.12,0-.14.11h.06c0,.07,0,.15,0,.25l0,.15,0,.3a6.63,6.63,0,0,1,0,1.17l0-.15c.26.11-.14.58,0,1,0-.1-.15-.13-.12-.1a12.29,12.29,0,0,0,.15,1.91l-.07-.1c-.06.32,0,.84-.06,1.18.06.1.05.3.15.18-.39,1.05.21,2-.11,2.94,0-.11-.06-.26-.06-.17l.06.79c.12-.06.07-.1.16-.27a1.09,1.09,0,0,1,.12.53c-.07-.36-.18,0-.25.15,0,0,.08,0,.11,0-.2.41.23.07.1.64l-.06,0a2.59,2.59,0,0,1,.09.63c-.13.1-.06-.22-.17-.24,0,.33.25.64.12.93,0-.14,0-.33-.08-.47a1.14,1.14,0,0,0-.14.59v0l-.07.54.05-.14c.34.41.06.83.29,1.37-.22-.53-.13-.09-.28-.13,0,.14-.09.35-.13.29.12.26-.1.43.08.79,0,0,0,.28-.13.22,0,.33.09-.08.15,0,.17.51-.2,1.21,0,1.95s.26.75.34,1.35c-.08.2-.18-.17-.18-.17a2,2,0,0,0,0,.87c0-.06-.08,0-.14.1s.18.16.11.48a.84.84,0,0,1-.2-.24c0,.28.14.57.18.87-.08.07-.13-.18-.18-.29,0,.34.08.87.21,1l0-.21c0,.12-.12.06-.14,0-.11-.29,0-.41.09-.43l0,.21c.29-.22,0-.85,0-1.28l.2.18-.17-.44c.06-.09.17-.15.2.06.11-.31-.07-.27,0-.54,0,0,0,0,0,0l-.06-.3c0,.06.14,0,.11.13.12-.54-.15-.86,0-1.07v0c-.07-.75-.15-.07-.33-.63l.37-.38-.15-.07c0-.08,0-.23.08-.2-.11-.29-.07,0-.17-.12.14-.37-.06-1,.18-1.1-.11-.13-.09.35-.17,0,.26-.11,0-.46.08-.79.13.1.06.42.18.08-.23-.2,0-.66,0-.94-.18,0-.08-.62-.14-1.1A11.53,11.53,0,0,0,125.3,92h0c-.19-.08-.15-.54-.19-.88.11,0,.15.08.2.26v-.32a.64.64,0,0,1-.11-.37l.14.08a6,6,0,0,1-.07-1.38c-.13,0-.36.43-.44-.14.06,0,.18,0,.21.1a.53.53,0,0,1,0-.27l.12.23c0-.25-.1-.13-.09-.32.1,0,.07-.15.15-.12s0,.17,0,.24a1.41,1.41,0,0,1,.15-.57c-.05,0-.13,0-.14-.16,0-.42.11-.15.17-.39s0-.37-.15-.37c0-.13.07-.15.11-.2-.07-.21,0-1-.18-.76v0h0a17.62,17.62,0,0,1,0-2.18h0a9.55,9.55,0,0,0-.14-1.23c0-.12.09-.29.15-.24a1.7,1.7,0,0,1,0-.82c.08.32.07-.11.06.33,0-.21,0-.32.06-.48a2.52,2.52,0,0,0-.07-.68c.1.12.14-.32.13-.66l-.24,0,.18,0,0,.26v-.2c-.24,0-.44,0-.66,0l.25-.19a5.5,5.5,0,0,0-1,0c-.19,0-.37.1-.54.15a1.5,1.5,0,0,1-1,0c-.21.14.47,0,.28.19a5.37,5.37,0,0,1-1-.17c-.54,0-.47.29-1,.28.08.06.16.21-.25.3s-.5-.2-.26-.27.14,0,.14,0,.28-.07.12-.12l0,.06c-.2,0-.74,0-.62-.09-.29.08-.12.11.1.12-.51,0-.78.07-1.3.06.08,0,.17.09.08.1-.76,0-.32.14-.83.22-.3-.06.08-.23-.42-.1-.33,0-.09-.15,0-.21a3,3,0,0,1-1.15,0l.24-.08a1.46,1.46,0,0,1-.39.07l.15.1c-.14,0-.27,0-.27,0s.13.18-.15.32c-.2,0-.59.12-.67,0,.62,0-.08-.15.43-.23a1.31,1.31,0,0,1-.37,0s0,0,.06-.05c-.6-.08-.25.2-.85.26.06-.1-.16-.16-.26-.13.25,0,.13.14-.08.23-.4,0-.42.09-.62.1h.23c-.07.1-.26.11-.53.16,0-.07.24-.07.14-.09-.29.18-.69-.1-1.1,0-.2,0,0-.17-.21-.19-.46.16-.52-.07-1,.07.16.11.18.08-.16.23l.81-.17-.51.23c.25,0,.51-.13.66-.12-.24.12-.22.09-.09.17-.35-.14-.65.17-1,.09l0-.3c-.59-.07-1,.26-1.78.26l.25,0c-.09.13-.47.06-.71.14,0-.1-.14-.13-.25-.18s-.55,0-.6.25l-.35-.09c-.62,0-.67.34-1.26.37.17-.13-.11-.17.28-.28-.2,0-.38,0-.37.08s-.53.19-.72.11-.1.16-.32.17c0,0,0,0,0,0s-.34.1-.14.19c-.63-.25-1.68.19-2.23,0l-1.32.2s0-.05.07-.05c-.54,0-.3.32-.92.27-.33-.12.31-.11.11-.15-.11-.32-.73.11-1.15,0l.09,0c-.32-.08-.75.2-1.26.23,0,0,0,0,0,0a5.5,5.5,0,0,1-1.48.41c.14-.14.21-.09.11-.21-.22,0,.08.2-.35.28a2,2,0,0,1-.6-.21l.48,0c-.14-.08-.19-.07-.44,0-.1,0-.19.11-.26.14a.65.65,0,0,1-.16.09v-.09c-.58.32-.5.5-1.11.83h.09c-.22.36-.33.07-.58.4l-.2-.11-1,1a4,4,0,0,1,.73-.9c-.21.13-.7.5-.74.66.07-.08.14-.19.24-.23a3.19,3.19,0,0,1-.81.93c-.19-.36-1,.78-1.49.85-.51.75-1.22,1.3-1.79,2.2.45-.16-.15.26.15.37-.11.21-.16.29-.19.3a6.76,6.76,0,0,0-.52.55c-.16.11,0-.24,0-.25-.27.47-.22.14-.46.42.13,0,.06.24-.1.5l.3-.33c-.14.75-.51.48-.63,1.26v-.27c-.08.39-.47,1.37-.31,1.81,0,0-.16.12-.13,0-.29.9-.14,2.06-.34,2.75l-.07-.07c0,.17.13.31,0,.52,0,0-.07-.08-.08,0a2.18,2.18,0,0,1,.07.69l-.08-.19a6.19,6.19,0,0,0,.37,2.1c-.23,0-.18.73-.16,1.09h0a9.56,9.56,0,0,0,1,2.58,10.2,10.2,0,0,0,1,2.82c0-.15.16-.06.26.08s.45.46.25.53l0-.07c-.07.24.2.62.41.93l.25-.1a2.05,2.05,0,0,0,.13.37c0,.09.21.35.32.53l.1.15c0,.05.07.11.14.08l.35,0,.36,0,.22,0a2.46,2.46,0,0,1,1.3-.06c.21-.09.48-.12.69-.21v.14a12.42,12.42,0,0,0,1.67-.17l-.14.12c.42,0,.49-.47.88-.52l.14.2a9.25,9.25,0,0,0,2.23-.26s0,.09-.14.11c.35,0,1.36,0,1.2-.28,0,.19.77-.07,1.16-.2l0,.15A1.5,1.5,0,0,1,101,107c.11,0,.11.1,0,.08.38,0,.27-.16.73-.14l-.16.11a.77.77,0,0,0,.55-.21c.24-.08.74,0,.81.07a.56.56,0,0,1,.47-.19s0,.08-.08.1c.65,0,.93-.27,1.39-.19a.11.11,0,0,0,.08.08l-.88.08c0,.13.43.1.12.31a3.7,3.7,0,0,1,1.27-.39l.06,0,0,0a.7.7,0,0,0,.25,0,1.93,1.93,0,0,0,.34,0c.06.1.48,0,.68,0,0-.14.24-.15,0-.24,0,0,0,0-.18,0l-.08,0h0l-.51.06a.71.71,0,0,1,.55-.11l.26-.26c.31.16.86.21,1,.32a5.49,5.49,0,0,0,1.84-.53c.17,0,.21,0,.28.09-.1,0-.22,0-.27.09.35-.11,1-.15,1.12-.34.45,0-.24.2.38.1l-.08.06c1.25.16,1.92-.69,3.31-.47-.09,0-.14,0-.16,0,1.55,0,3.14-.52,4.69-.43a1.08,1.08,0,0,0,.72-.23l.11.14.43-.23c.62-.2,1.15.25,1.93-.09l-.12-.08c.29,0,.91-.17.88,0a.17.17,0,0,1,.2-.07l0,.07.69-.21c.56,0,0,.32.76.24.3-.06.83-.32.71-.36s-.32,0-.33-.09l.27-.07c0-.24.2-.5-.49-.59l-.45.2-.16-.1.39,0a.57.57,0,0,0-.52.11.3.3,0,0,0-.21-.1l-.43.27c-.07-.08.18-.2-.13-.21s.23.18-.12.28c-.24-.08-.18-.17-.43,0,0-.06,0-.1.1-.14-.22.1-.61.1-.72.24-.25-.1-.79.12-.79-.1a1.63,1.63,0,0,1-.6.25c.36-.3-.81.08-.74-.21-.26.27-1,.22-1.54.41,0,0,.08-.07.13-.06a2.69,2.69,0,0,1-.58-.07c0,.2-.46.29-.69.44-.37-.15.19-.25.06-.42,0,.16-.6.23-.46.35-.29-.09-.24,0-.4-.18,0,.25-.25.07-.46.24-.41-.07-.13-.21-.55-.09C114.93,104.38,115.3,104.25,115.3,104.25Zm-10.23,1.59h0l.22,0Zm-.86.1.38,0s0,.1-.08.1S104.35,106,104.21,105.94Zm1.94.76c-.14,0-.19,0-.21,0l.24,0v0A.2.2,0,0,1,106.15,106.7Z"/><path class="cls-5" d="M106.37,106.49l.06,0-.09,0,0,0Z"/><path class="cls-5" d="M125.18,86.68v0s0,0,0,0S125.18,86.69,125.18,86.68Z"/><polygon class="cls-5" points="92.26 107.02 92.27 107.06 92.34 107.02 92.26 107.02"/><path class="cls-5" d="M124.7,91.46a.15.15,0,0,0,0,.07A.67.67,0,0,0,124.7,91.46Z"/><path class="cls-5" d="M124.67,93.53l0,.29A2.53,2.53,0,0,0,124.67,93.53Z"/><path class="cls-5" d="M124.6,95.12l.06,0h0Z"/><path class="cls-5" d="M113.7,82.88h-.06C113.49,82.93,113.59,82.91,113.7,82.88Z"/><path class="cls-5" d="M121.15,81.82a1.7,1.7,0,0,1-.24.09C121.05,81.91,121.15,81.9,121.15,81.82Z"/><polygon class="cls-5" points="105.36 83.86 105.36 83.86 105.3 83.86 105.36 83.86"/><path class="cls-5" d="M120.57,81.94a.75.75,0,0,0,.34,0A1.27,1.27,0,0,0,120.57,81.94Z"/><path class="cls-5" d="M124.54,102v.07h0Z"/><path class="cls-5" d="M124.55,102.09l0,.09S124.57,102.11,124.55,102.09Z"/><path class="cls-5" d="M124.61,102.36l0-.18A.27.27,0,0,0,124.61,102.36Z"/><path class="cls-5" d="M124.6,99.9l0,0Z"/><path class="cls-5" d="M124.59,99.26a2.64,2.64,0,0,0-.08.6l0,0C124.47,99.78,124.67,99.41,124.59,99.26Z"/><path class="cls-5" d="M125.22,96.6l0,.53c0-.09.12-.22.14,0C125.48,96.48,125.19,97.3,125.22,96.6Z"/><path class="cls-5" d="M125.3,94.93c0,.29.07,0,.11,0C125.36,94.76,125.34,94.72,125.3,94.93Z"/><path class="cls-5" d="M125.3,82.93l.12,0C125.41,82.74,125.37,83,125.3,82.93Z"/><path class="cls-5" d="M124.29,81.64l.08.08a.8.8,0,0,1,.13-.13Z"/><polygon class="cls-5" points="122.97 80.86 123.07 80.83 122.7 80.91 122.97 80.86"/><path class="cls-5" d="M102.91,82.86,103,83C103.14,83,103.15,82.79,102.91,82.86Z"/><path class="cls-5" d="M94.28,84.48a.53.53,0,0,0-.45.22C94,84.6,94.2,84.55,94.28,84.48Z"/><path class="cls-5" d="M89.74,107.81l-.14-.12.28.33Z"/><path class="cls-8" d="M138.47,68.28c.7,7.16-3.83,14.21-9.59,17.22C116,92.19,95.06,79.79,95.15,68.28c.07-8.12,10.6-16.86,21.66-16.87C126.61,51.41,137.48,58.27,138.47,68.28Z"/><circle class="cls-9" cx="129.22" cy="76.43" r="4.51"/><circle class="cls-9" cx="102.59" cy="78.91" r="4.51"/><path class="cls-10" d="M114.1,95.77a14.29,14.29,0,0,0,4.44-.85,16.25,16.25,0,0,0,8-6.37,10.88,10.88,0,0,0,1.66-6.88l-2.36-14.9a9.29,9.29,0,0,0-10.59-7.69l-9.28,1.48c-5,.79-6.39,5.22-5.59,10.25l2,12.8a15.09,15.09,0,0,0,4.56,7.58C108.38,92.45,110.84,95.85,114.1,95.77Z"/><polygon class="cls-10" points="114.11 95.8 113.81 95.76 113.72 95.82 114.11 95.8"/><path class="cls-10" d="M112.79,95.4c-.15,0-.31-.06-.46-.11.2.27-.15.1.57.44.28,0,.88,0,.81,0a2.65,2.65,0,0,1-.77-.05c.13,0,.44,0,.59,0-.44-.14-.3,0-.78-.13Z"/><path class="cls-10" d="M112.19,95.4s.11,0,.11-.05S112,95.31,112.19,95.4Z"/><path class="cls-10" d="M111.9,95.3c-.29-.13,0,0,0-.08a2.2,2.2,0,0,1-.37,0A2.2,2.2,0,0,0,111.9,95.3Z"/><path class="cls-10" d="M110.76,94.67l-.13-.08A.26.26,0,0,0,110.76,94.67Z"/><path class="cls-10" d="M110.23,94.31a1.21,1.21,0,0,0,.4.28v0c-.12-.13.06-.09.29.08s.2.2.45.28l-.27-.24A7,7,0,0,0,110.23,94.31Z"/><path class="cls-10" d="M110.76,94.67l.15.08A.37.37,0,0,0,110.76,94.67Z"/><polygon class="cls-10" points="111.32 95.02 111.47 95.08 111.45 95.03 111.32 95.02"/><path class="cls-10" d="M109.4,93.63c.13,0,.57.51.7.48-.34-.25-.53-.55-.42-.53l-.37-.28C109.17,93.22,109.25,93.42,109.4,93.63Z"/><path class="cls-10" d="M108.94,92.79l-.09-.06S108.92,92.79,108.94,92.79Z"/><path class="cls-10" d="M107.12,91.25c.3.22.58.46.87.69a.44.44,0,0,1-.28-.16c.32.36.42.36.69.65,0,.16-.5-.5-.41-.27a2.83,2.83,0,0,0,.73.59l.26.37,0-.2c-.11-.15-.33-.18-.35-.32s.13.05.23.12c-.22-.18-.48-.62-.91-1S107.46,91.49,107.12,91.25Z"/><polygon class="cls-10" points="107.18 91.13 107.15 91.04 107.15 91.13 107.18 91.13"/><path class="cls-10" d="M106.21,90.42c.15.12.3.24.46.35a.75.75,0,0,1,.06.13s.14,0,.14,0c-.12-.25-.53-.44-.75-.65-.51-.62.06,0-.07-.31.15.16.14.19.35.41a6.56,6.56,0,0,0-1-1,.88.88,0,0,0,.16.24l-.24-.23A3.43,3.43,0,0,0,106.21,90.42Z"/><path class="cls-10" d="M106.94,91.12c-.16-.14-.21-.19-.21-.22S106.79,91,106.94,91.12Z"/><path class="cls-10" d="M105.33,89.19l.11.13A.4.4,0,0,0,105.33,89.19Z"/><path class="cls-10" d="M105.44,89.52l-.24-.32,0,.15S105.42,89.54,105.44,89.52Z"/><path class="cls-10" d="M101.28,75.14s0,.19,0,.5c-.06,0-.11-.43-.18-.61,0,.41-.07,0-.1.12.06.45.17.64.23,1.12,0,0,0,0-.06.06a17.31,17.31,0,0,1,.38,2.11c.07.55.16,1,.28,1.54a23.29,23.29,0,0,0,1.37,6l.22.23c0,.12.22.46.13.43s-.1-.2-.16-.33a7.28,7.28,0,0,0,.81,1.56c0-.06,0-.19.12-.06-.14,0,.35.54.32.75.29.47.1,0,.41.43.1,0-.29-.46-.3-.58.15.11.28.43.33.36a18.18,18.18,0,0,1-2-3.39l.12.11a5.58,5.58,0,0,1-.63-2.32c0,.15-.13-1.05-.27-.92a3.1,3.1,0,0,0,0-.49l-.06-.06c-.06-.37,0-.32,0-.74,0,.29-.08,0-.16-.13,0-.5,0-1,0-1.48a.38.38,0,0,0,0,.22c0-.29-.08-.23-.11-.3,0-.28,0-.26.08-.26,0-.51-.25-.71-.26-1.1l0,.14c-.1-.52-.1-1-.21-1.55,0-.3.15.46.23.7a3.78,3.78,0,0,1,0-.46l-.3-1C101.43,76.08,101.3,75.34,101.28,75.14Z"/><path class="cls-10" d="M101.58,76.75l.06.16a.75.75,0,0,1,0-.19S101.59,76.73,101.58,76.75Z"/><path class="cls-10" d="M101.28,75.14h0C101.27,75.07,101.27,75.09,101.28,75.14Z"/><path class="cls-10" d="M101.58,78.52v-.18Z"/><path class="cls-10" d="M101.94,78.9c0,.12,0,.28,0,.46C102,79.3,102,79.26,101.94,78.9Z"/><path class="cls-10" d="M102.43,82.46c0,.1,0,0,.08.11C102.47,82.35,102.44,82.27,102.43,82.46Z"/><polygon class="cls-10" points="101.5 76.11 101.41 75.67 101.36 75.52 101.5 76.11"/><path class="cls-10" d="M100.14,67.19a6.19,6.19,0,0,0-.08,1.46c.07.89.17.1.24.94l-.18-.13a12.29,12.29,0,0,0,.5,2.72c0,.07,0,.22-.07,0,.09.55.27.25.34,1-.21-.68-.06.24-.19.07l0-.11c.09.47.24,1.09.28,1.4,0,0,.06-.28.14.14,0-.17,0-.11.08-.1-.12-.43-.12-.67-.22-.92s0,.16.06-.09l-.11-.34c0-.25.1.26,0-.14a2.22,2.22,0,0,1-.17-.67l0,.09c0-.24-.08-.58-.15-.45l0-.29,0,0a12.06,12.06,0,0,0-.16-1.74c0,.2,0,0-.08-.08a3.13,3.13,0,0,0,.16.75c-.06.06-.21-.49-.19-.09,0-.45-.13-.83,0-1a7.6,7.6,0,0,1-.09-1.27l0,0c-.11-.1,0-.44,0-.84l0,.28c-.05,0,0-.15,0-.35,0,0,0,0,0,0s0-.68,0-.76a4.33,4.33,0,0,0,0,.89C100.18,67.4,100.11,67.44,100.14,67.19Z"/><path class="cls-10" d="M100.88,72.68l-.07-.16A.4.4,0,0,0,100.88,72.68Z"/><path class="cls-10" d="M100.75,64.83c.15-.31,0,.11.18-.17s-.25.33-.19,0A5.48,5.48,0,0,0,101,64c0,.16.1.12.15.08a3.94,3.94,0,0,1,.32-.56c-.33.44.22-.4-.1,0,0-.06.24-.52.4-.66,0,0-.09.17-.17.29s.23-.27.35-.27a4.81,4.81,0,0,1,.33-.46c.14-.17.33-.32.48-.48.31-.29.57-.47.31-.42a1.5,1.5,0,0,0-.43.33c.46-.32,0,.07,0,.13-.2.13-.47.43-.44.32l.24-.29a6.38,6.38,0,0,0-2.12,3.62l.17-.58a2.27,2.27,0,0,1-.09.57l.2-.25c-.06.16-.09.32-.12.3,0,.21,0,.13.12,0a3.59,3.59,0,0,0-.11.84c.23-.68,0-.62.33-1.39Z"/><path class="cls-10" d="M100.43,66.39l0-.18a2.45,2.45,0,0,0,0,.27Z"/><path class="cls-10" d="M100.23,66.07s0,.11,0,.1C100.36,65.84,100.32,65.87,100.23,66.07Z"/><path class="cls-10" d="M102.23,62.52a3,3,0,0,1,.31-.31l-.23.17S102.27,62.48,102.23,62.52Z"/><path class="cls-10" d="M104.73,60.69c-.6.21-.82.36-1.47.65-.25.26.21,0,.12.18.29-.17.21-.24.52-.42.14,0,.48-.23.82-.32C104.67,60.77,104.66,60.74,104.73,60.69Z"/><path class="cls-10" d="M106.87,60.52a7,7,0,0,1,.78-.15.65.65,0,0,1-.36.11c.12.07.31-.07.62,0,0,0-.14,0-.06,0,.75-.1.41-.14,1.39-.25.14,0,.28-.06.24-.12.57,0,.29,0,1,0,0,0-.27-.08-.27-.15.95,0,.95-.17,1.57-.19a1.63,1.63,0,0,1-.31.07c.09.09.5-.1.83-.13v.09a6.9,6.9,0,0,1,1.22-.2l-.08.06c.78-.18,1.7-.33,2.36-.42l.36,0c.46,0,.23,0,0-.06s-.55,0-.22-.09c.11.15.48-.09,1,0,.25.07-.53,0-.26.12.12-.09.29,0,.57,0-.07.07.58.06.4.14a8.17,8.17,0,0,1,1,0,6,6,0,0,0,.63.19c-.51-.15.18-.08-.39-.28a11.83,11.83,0,0,0-3.46-.14c-.11.12-.7.11-.86.23,0,0-.12-.05-.15-.09-.69.14.17,0,0,.11s-.56,0-.54,0c-.5.07,0,0-.3.14l-.34-.07c-1.56.28-3.62.69-5.41.9l.15.06a12.44,12.44,0,0,1-2.06.34l-.23.12c.13-.07-.16-.09,0-.19-.21.08-.45.09-.67.17l.41,0a1.94,1.94,0,0,1-.69.15c-.55.27.38,0,.53.05.8-.32.86,0,1.66-.21C107.41,60.5,106.85,60.56,106.87,60.52Z"/><path class="cls-10" d="M105.79,60.48l-.12,0Z"/><path class="cls-10" d="M119.21,59.4l.23.07C119.53,59.47,119.4,59.45,119.21,59.4Z"/><polygon class="cls-10" points="104.72 60.78 104.72 60.79 104.73 60.78 104.72 60.78"/><polygon class="cls-10" points="104.4 61.1 104.61 61.03 104.56 61.01 104.4 61.1"/><path class="cls-10" d="M121.35,60.44l0,0S121.34,60.41,121.35,60.44Z"/><path class="cls-10" d="M125.26,65.34l0-.13A.33.33,0,0,0,125.26,65.34Z"/><path class="cls-10" d="M127.92,80.72c.09.4.2.9.29,1.28l-.05,0c0,.23.11,1,.18.49l0-.12c-.08-.54.07-.38,0-.84a9.64,9.64,0,0,1-.33-1.21c0-.19,0-.17.05-.12a6.4,6.4,0,0,0-.27-.91c.29-.17-.3-1.35-.21-2-.09-.42-.15-1-.3-1.5.13.27-.07-.5,0-.4-.21-.12-.17-1.54-.41-1.6,0-.74,0,0-.1-.87,0,0,0,.13.06.19,0-.34-.17-.49-.11-.78-.09-.67-.08-.11-.2-.49a2,2,0,0,1,0-.91c-.12,0-.14-.47-.25-.8,0,.09.07.56,0,.26a12.7,12.7,0,0,0-.33-1.38c.06-.4.13.75.12.07a6.81,6.81,0,0,0,.31,1.08c-.1-.65-.24-1.43-.4-2.12,0-.39.09.19,0-.12-.06-.7-.28-1-.36-1.6l.09.1a11.71,11.71,0,0,0-.6-1.8c0,.08,0,.14,0,.07s0-.23-.19-.5a5.06,5.06,0,0,1-.51-.88c-.06.1-.43-.39-.69-.68-.07-.12,0-.12,0-.14.37.53.46.44.8.83a7.12,7.12,0,0,1-.47-.62,3.37,3.37,0,0,0-.5-.54l.15.06c-.37-.47-.48-.26-.86-.75H123a7.39,7.39,0,0,0-3.16-1.88c-.1,0,.32.3.33.34a10.5,10.5,0,0,1,1.3.47l0,.08c.12,0,.6.27.37.06.33.18.2.2.56.43-.08.06-.28-.1-.34,0l.32.19c-.11-.05.15.16,0,.12a1.82,1.82,0,0,1,.62.51l.56.61-.24-.3s.18.13.3.25a2.49,2.49,0,0,0,.35.57,3.75,3.75,0,0,1,.61.67c-.13,0,.29.63.25.74.13,0,.36.72.43.75.09.21.17.51.12.52l-.06-.16.06.22s0,0,0,0c0,.18.13.16.15.42,0,0-.06-.13-.1-.23a5.59,5.59,0,0,1,.34,1.32c.06.08.16.69.25.54,0,.17-.11.13,0,.57.13.24,0,.51.16.83-.17-.43,0,0-.18-.37,0,.31.2.74.27,1.27,0,.06,0,.06,0,.12a1.32,1.32,0,0,1,.13.61l.05,0a12.25,12.25,0,0,1,.12,1.26l.19.43a5,5,0,0,0,.4,1.89,2,2,0,0,1,0,.56l-.08-.23a2.76,2.76,0,0,0,.17.9c.09.34,0,.26,0,.51.24.66.21,2,.46,2.2,0-.28-.09-.82-.18-1.35,0,.14.07,0,.11.22.09.53.06.82.17,1.34l-.14,0C127.55,79.2,128,80,127.92,80.72Z"/><path class="cls-10" d="M126.84,73.92v.4l0,0A1.48,1.48,0,0,1,126.84,73.92Z"/><path class="cls-10" d="M126.89,74.27l.06.22a1.14,1.14,0,0,0,0-.23Z"/><path class="cls-10" d="M128.12,82.25a3.16,3.16,0,0,0,0,.42A1.46,1.46,0,0,0,128.12,82.25Z"/><polygon class="cls-10" points="128.17 82.7 128.19 82.51 128.17 82.48 128.17 82.7"/><path class="cls-10" d="M123,92.48l-.44.45c-.11,0-.67.49-.52.3-.25.3-1,.65-.67.61a16.53,16.53,0,0,0,4.73-4.51l-.16.3c.57-.95,1-1.17,1.24-2.09l0,.16c.26-.45.27-1,.55-1.42l-.06,0a3,3,0,0,0,.12-.32l0,.05a5.86,5.86,0,0,1,.23-.94s0,.17,0,.28a3.14,3.14,0,0,0,.11-.74c.07-.21,0,0,.06,0a5,5,0,0,0,.07-1.86c0-.06-.06.22-.07-.09-.06.56,0,1-.05,1.53l0-.14c.11.43-.07.3-.12,1,0-.18,0-.46,0-.58-.25.71-.12,1.08-.42,1.51v0c0,.1-.08.3-.12.46a2.06,2.06,0,0,0,.15-.3.86.86,0,0,0,0,.34c-.13.16,0,.26-.21.53-.1.08,0-.26,0-.38l-.09.36c-.13.32-.21.27-.31.41s.1-.13.07.11c-.21.31-1,1.62-1.47,2.23.16-.21,0-.12.2-.36-.08.08-.29.42-.26.45A6.12,6.12,0,0,1,124.56,91l.13-.07a11.57,11.57,0,0,1-1.25,1.19h0c-.17.16-.23.39-.58.63C122.92,92.65,123.1,92.51,123,92.48Z"/><path class="cls-10" d="M121.05,94l.16-.18c-.22.12-.46.36-.39.37s.36-.19.36-.24S121.14,93.94,121.05,94Z"/><path class="cls-10" d="M116.57,95.7c-.09,0-.06.06-.1.09,1-.23,2.17-.64,2.59-.73s.35-.23.73-.42l.21,0c.2-.13.86-.4.58-.39a1.75,1.75,0,0,1-.34.22v0l-.41.21.11-.11c-.59.18-.33.33-1.08.56l0-.1a6.74,6.74,0,0,1-1.17.33s0,0,.08,0,.2,0,.16,0c-.72.29.09-.09-.44,0a6.3,6.3,0,0,1-2.22.5c.32,0-.14.15-.51.17-.17,0,.11-.07.17-.11-.17,0-.32,0-.49,0,.23,0,.09.14-.32.18A9.37,9.37,0,0,0,116.57,95.7Z"/><path class="cls-10" d="M116.33,95.84l.14,0-.35.07Z"/><path class="cls-8" d="M96.75,62c3.19,2,23.73,9.83,29.29,4.26,2.52-2.53,1.57-8.25-.51-11.72-4.17-7-13.71-6.19-14.69-6.13-3,.21-5.66.57-7.66,2.7C102,52.38,97.63,59.86,96.75,62Z"/><polyline class="cls-3" points="110.05 74.5 109.78 75.28 109.7 76.07 109.75 76.88 109.57 77.67 109.53 78.46 109.41 79.26 109.28 80.05 109.15 80.85 109.24 81.62 110.01 81.42 110.83 81.3 111.67 81.32 112.48 81.09 113.32 81.04 114.12 80.77 114.97 80.77"/><path class="cls-3" d="M120.78,83.59c-2.23,1.68-2.85,3.27-6,3.82-3.61.63-4.87.45-8-1.28"/><path class="cls-11" d="M189.57,160c.4-29.18-19.57-65.24-43.1-71.89s-90.79,14.46-90.79,14.46a110.12,110.12,0,0,1,19.88,27,110.14,110.14,0,0,1,10.65,30.53A147.86,147.86,0,0,1,189.57,160Z"/><g class="cls-12"><ellipse class="cls-13" cx="140.62" cy="104.6" rx="11.97" ry="13.2" transform="translate(-34.53 98.57) rotate(-34.67)"/><ellipse class="cls-13" cx="140.62" cy="104.6" rx="7.6" ry="8.37" transform="translate(-34.53 98.57) rotate(-34.67)"/><ellipse class="cls-13" cx="140.62" cy="104.6" rx="4.09" ry="4.51" transform="translate(-34.53 98.57) rotate(-34.67)"/><ellipse class="cls-13" cx="130.18" cy="140.21" rx="11.97" ry="13.2" transform="translate(-56.65 98.96) rotate(-34.67)"/><ellipse class="cls-13" cx="130.18" cy="140.21" rx="7.6" ry="8.37" transform="matrix(0.82, -0.57, 0.57, 0.82, -56.65, 98.96)"/><ellipse class="cls-13" cx="130.18" cy="140.21" rx="4.09" ry="4.51" transform="translate(-56.65 98.96) rotate(-34.67)"/><ellipse class="cls-13" cx="169.99" cy="132.58" rx="11.97" ry="13.2" transform="translate(-45.23 120.25) rotate(-34.67)"/><ellipse class="cls-13" cx="169.99" cy="132.58" rx="7.6" ry="8.37" transform="matrix(0.82, -0.57, 0.57, 0.82, -45.23, 120.25)"/><ellipse class="cls-13" cx="169.99" cy="132.58" rx="4.09" ry="4.51" transform="translate(-45.23 120.25) rotate(-34.67)"/><ellipse class="cls-13" cx="158.1" cy="163.62" rx="11.97" ry="13.2" transform="translate(-65 118.99) rotate(-34.67)"/><ellipse class="cls-13" cx="158.1" cy="163.62" rx="7.6" ry="8.37" transform="translate(-65 118.99) rotate(-34.67)"/><ellipse class="cls-13" cx="158.1" cy="163.62" rx="4.09" ry="4.51" transform="translate(-65 118.99) rotate(-34.67)"/><ellipse class="cls-13" cx="174.34" cy="99.36" rx="11.97" ry="13.2" transform="translate(-25.57 116.82) rotate(-34.67)"/><ellipse class="cls-13" cx="174.34" cy="99.36" rx="7.6" ry="8.37" transform="translate(-25.57 116.82) rotate(-34.67)"/><ellipse class="cls-13" cx="174.34" cy="99.36" rx="4.09" ry="4.51" transform="translate(-25.57 116.82) rotate(-34.67)"/><ellipse class="cls-13" cx="69.53" cy="118.02" rx="11.97" ry="13.2" transform="translate(-54.79 60.51) rotate(-34.67)"/><ellipse class="cls-13" cx="69.53" cy="118.02" rx="7.6" ry="8.37" transform="translate(-54.79 60.51) rotate(-34.67)"/><ellipse class="cls-13" cx="69.53" cy="118.02" rx="4.09" ry="4.51" transform="translate(-54.79 60.51) rotate(-34.67)"/><ellipse class="cls-13" cx="95.72" cy="144.13" rx="11.97" ry="13.2" transform="translate(-64.99 80.05) rotate(-34.67)"/><ellipse class="cls-13" cx="95.72" cy="144.13" rx="7.6" ry="8.37" transform="translate(-64.99 80.05) rotate(-34.67)"/><ellipse class="cls-13" cx="95.72" cy="144.13" rx="4.09" ry="4.51" transform="translate(-64.99 80.05) rotate(-34.67)"/><ellipse class="cls-13" cx="105.57" cy="111.83" rx="11.97" ry="13.2" transform="translate(-44.87 79.91) rotate(-34.67)"/><ellipse class="cls-13" cx="105.57" cy="111.83" rx="7.6" ry="8.37" transform="matrix(0.82, -0.57, 0.57, 0.82, -44.87, 79.91)"/><ellipse class="cls-13" cx="105.57" cy="111.83" rx="4.09" ry="4.51" transform="translate(-44.87 79.91) rotate(-34.67)"/></g><polyline class="cls-3" points="115.73 74.49 115.55 73.33 115.58 72.15 115.88 71.01 116.64 70.12 117.75 69.78 118.91 69.95 119.93 70.51 120.8 71.29 121.47 72.25 121.88 73.34 122.15 74.49"/><polyline class="cls-3" points="103.43 75.29 103.4 74.22 103.44 73.14 103.69 72.1 104.18 71.15 105 70.49 106.58 70.22 107.75 70.7 108.64 71.6 109.23 72.73 109.55 73.96"/><path class="cls-14" d="M87.37,93.29c-1.29.91-4.54-1.67-6.17-1.89a7.79,7.79,0,0,0-7.33,2.54c-1.19,1.43-2.57,5.76-1.25,7.59.52.73,2.23,1.47,3.15.93,1.17-.68.68-2.11.7-3.39,0-3.19,1.89-3.25,4.72-4"/><path class="cls-14" d="M91.5,92.46c-1.29.91-4.53-1.67-6.16-1.89A7.8,7.8,0,0,0,78,93.1c-1.2,1.44-2.57,5.77-1.26,7.6.52.73,2.24,1.47,3.16.93,1.17-.68.67-2.11.69-3.39.05-3.19,1.89-3.25,4.72-4"/><path class="cls-14" d="M95.64,91.62c-1.3.92-4.54-1.66-6.17-1.88a7.8,7.8,0,0,0-7.33,2.53C81,93.71,79.57,98,80.88,99.87c.52.73,2.24,1.47,3.16.93,1.17-.68.67-2.11.69-3.39.06-3.2,1.9-3.25,4.73-4"/><polyline class="cls-3" points="79.87 99.69 79.47 98.63 79.36 97.49 79.41 96.33 79.64 95.2 80 94.1 80.44 93.03 81.06 92.05 81.78 91.15 82.68 90.42 83.75 90"/><polyline class="cls-3" points="75.02 99.82 74.71 98.8 74.5 97.76 74.45 96.7 74.57 95.64 74.9 94.63 75.35 93.66 76.03 92.83 76.83 92.11 77.76 91.57 78.76 91.2"/><path class="cls-4" d="M192.42,162.28c5.66-5.33-18.51-17.6-25.91-18.91-10.17-1.8-24.68-.07-33.92,3.7-6.31,2.57-7.83,6-13.74,4.11s-9.29-7.12-10.35-8.81c-11.93-19-17.9-28.45-24-33.27-5.29-4.18-14.37-7.88-30.88-5.32l-2.49,60.53S191.34,163.3,192.42,162.28Z"/><path class="cls-10" d="M190.8,162.22c-9.34-4.22-21.83-7.47-34.3-6.85-22.09,1.09-28.77,13.54-44,9.23C94.35,159.48,93.81,139,76.27,134.07c-7.72-2.18-15.63-.48-22.77,2.7-.37-8.86-.7-17.75-.3-27.37,16.51-2.56,25.58,1.14,30.88,5.32,6.1,4.82,12.07,14.3,24,33.27,1.06,1.68,4.53,6.92,10.34,8.81s7.43-1.54,13.75-4.12c9.24-3.76,23.75-5.49,33.92-3.69C171.43,149.93,185.5,156.58,190.8,162.22Z"/><polygon class="cls-10" points="190.76 162.26 190.11 161.56 189.81 161.44 190.76 162.26"/><path class="cls-10" d="M187.62,158.94c-.44-.33-.92-.61-1.38-.91.55.85-.38,0,1.5,1.74.77.47,2.32,1.68,2.22,1.41-.49-.42-1.29-1-2-1.55.4.15,1.18.83,1.64,1a15.76,15.76,0,0,0-2.12-1.65Z"/><path class="cls-10" d="M185.82,158.11c.16,0,.32.08.33,0C186,158.09,185.29,157.7,185.82,158.11Z"/><path class="cls-10" d="M185,157.59c-.87-.57.09-.1,0-.17l-1.12-.44Z"/><path class="cls-10" d="M181.3,155.36l-.43-.22A1.1,1.1,0,0,0,181.3,155.36Z"/><path class="cls-10" d="M179.43,154.37a8.71,8.71,0,0,0,1.44.77l-.05,0c-.48-.35.09-.23.9.28s.72.57,1.52.92l-1-.73A16.17,16.17,0,0,0,179.43,154.37Z"/><path class="cls-10" d="M181.3,155.36l.5.27A1.94,1.94,0,0,0,181.3,155.36Z"/><polygon class="cls-10" points="183.16 156.46 183.63 156.71 183.56 156.58 183.16 156.46"/><path class="cls-10" d="M176.28,152.8c.33-.11,2.25,1.13,2.57,1.11-1.24-.63-2.17-1.27-1.84-1.25l-1.42-.6C175.08,151.92,175.6,152.36,176.28,152.8Z"/><path class="cls-10" d="M173.77,151a2.05,2.05,0,0,1-.34-.1A1.16,1.16,0,0,0,173.77,151Z"/><path class="cls-10" d="M166.23,148.86a26.83,26.83,0,0,1,3.56.76,2.33,2.33,0,0,1-1-.16c1.51.53,1.74.48,3,1,.3.33-2.18-.8-1.54-.36a21.87,21.87,0,0,0,2.93.94l1.29.72-.36-.41c-.52-.31-1.18-.31-1.46-.6s.43,0,.83.18c-.9-.32-2.34-1.19-4.22-1.77S167.57,149,166.23,148.86Z"/><polygon class="cls-10" points="166.14 148.57 165.92 148.44 166.06 148.59 166.14 148.57"/><path class="cls-10" d="M162.19,148.38l1.88.05a1.48,1.48,0,0,1,.43.17c-.06-.06.45-.08.38-.14a11.43,11.43,0,0,0-3.31-.25c-2.65-.27.13-.11-.89-.38.75.06.78.1,1.81.21a12.3,12.3,0,0,0-2.59-.27c-.85,0-1.63,0-2.15.07a4.5,4.5,0,0,0,1,.09c-.36,0-.73,0-1.09,0A44.67,44.67,0,0,0,162.19,148.38Z"/><path class="cls-10" d="M165.52,148.79a4,4,0,0,1-1-.19A2.16,2.16,0,0,0,165.52,148.79Z"/><path class="cls-10" d="M157.18,147.85a3.8,3.8,0,0,0,.57,0A3.8,3.8,0,0,0,157.18,147.85Z"/><path class="cls-10" d="M158.25,148.11c-.44,0-.88,0-1.32,0l.52.1A4.3,4.3,0,0,0,158.25,148.11Z"/><path class="cls-10" d="M111.64,151.75c0,.15.3.53,1,1.18a8.5,8.5,0,0,1-1.55-1.3c.86,1-.11.08,0,.4a21.27,21.27,0,0,0,2.87,2.39c-.08,0-.09,0,.06.2a17.61,17.61,0,0,0,3.12,1.65,18.15,18.15,0,0,0,3.35,1,7.15,7.15,0,0,0,4.87-1.11c1.44-.75,2.83-1.67,4.31-2.43a31.57,31.57,0,0,1,4.67-2,58.41,58.41,0,0,1,10.08-2.45l1-.37c.35.05,1.66-.25,1.48-.07a9.86,9.86,0,0,0-1.2.17c1.51,0,4-.54,5.77-.6-.21,0-.52-.21,0-.28-.13.27,2.13-.16,2.68.13,1.81,0,.06-.24,1.94-.23.2-.17-1.81,0-2.15-.12.59-.14,1.71,0,1.62-.17a69.57,69.57,0,0,0-13.15,1.75l.45-.22c-2.32.51-6,1.46-7.89,1.86.23,0-.61.24-1.44.54s-1.67.67-1.45.74a12.61,12.61,0,0,0-1.53.59l-.17.19a20.66,20.66,0,0,0-2.2,1c.86-.34,0,.19-.3.49a23.32,23.32,0,0,1-4.39,1.84,2.37,2.37,0,0,0,.7-.1,2.22,2.22,0,0,0-.93.44c-.87.23-.81,0-.77-.09a7.38,7.38,0,0,1-3.52-.15l.38.25a15.62,15.62,0,0,1-4.58-2.12c-.68-.64,1.38.72,2.15.92a9.47,9.47,0,0,1-1.23-.75,17,17,0,0,1-2.74-1.59C113.87,153.82,112,152.26,111.64,151.75Z"/><path class="cls-10" d="M115.75,154.94l.51.19a4.8,4.8,0,0,1-.55-.28S115.7,154.89,115.75,154.94Z"/><path class="cls-10" d="M111.64,151.75l0,0C111.49,151.58,111.52,151.63,111.64,151.75Z"/><path class="cls-10" d="M120.82,157.27l-.24,0-.32-.05A3.6,3.6,0,0,0,120.82,157.27Z"/><path class="cls-10" d="M122.19,156.68l.61,0,.75-.12a1,1,0,0,0-.34,0C123,156.58,122.73,156.63,122.19,156.68Z"/><path class="cls-10" d="M132.72,151.94c.34-.15.13-.11.35-.25C132.36,152,132.14,152.09,132.72,151.94Z"/><path class="cls-10" d="M114.07,153.77c-.37-.29-.76-.56-1.12-.87l-.41-.32C113,153,113.55,153.4,114.07,153.77Z"/><path class="cls-10" d="M96.58,130.09c.58,1.17,1.71,2.7,2.55,4.06,1.65,2.42.49.12,2,2.45l-.54-.22c1.52,2.33,3.56,5.69,5.06,7.53.08.2.3.64-.12.06,1,1.56.9.56,2.13,2.71-1.4-1.84.24.74-.27.32l-.21-.3a39.17,39.17,0,0,0,2.73,3.8c.09,0-.37-.8.5.26-.34-.44-.12-.32,0-.34-1-1-1.34-1.71-1.9-2.38-.33-.72.32.43,0-.29l-.7-.92c-.43-.74.56.68-.12-.45a12.32,12.32,0,0,1-1.3-1.85l.19.23c-.46-.64-1-1.62-1-1.19l-.35-.89v.2a48.84,48.84,0,0,0-2.93-5c.33.58-.06.1-.27-.19a20.79,20.79,0,0,0,1.45,2.09c0,.2-1.14-1.3-.49-.13-.66-1.32-1.5-2.33-1.58-3-.94-1.51-1.43-2-2.35-3.54l.06,0c-.35-.17-.72-1.28-1.63-2.28l.49.82c-.1,0-.36-.38-.72-.91.07.05.07.05,0-.15a20,20,0,0,1-1.56-1.94c.44.72,1.14,1.52,1.72,2.33C97,130.62,97,130.81,96.58,130.09Z"/><path class="cls-10" d="M106.9,145.21l-.36-.45A2.11,2.11,0,0,0,106.9,145.21Z"/><path class="cls-10" d="M92.19,123.35c-.65-.93.29.17-.29-.72-.77-.87.62,1.18-.18.38a13.8,13.8,0,0,0-1.45-1.78c.39.35.36,0,.27-.19-.31-.32-.87-1.13-1.34-1.71,1.08,1.49-1-1.14-.09.22a11.14,11.14,0,0,1-1.78-1.83c.1,0,.47.41.78.75.38.18-.71-.92-.8-1.2-.67-.58-2-1.81-3.2-2.64S82,113.37,82.6,114c.46.38.9.62,1.42,1-1.39-1.14.11-.17.27-.11.27.27.69.6,1,.85s.47.44.32.39a10.18,10.18,0,0,0-1-.71,63.18,63.18,0,0,1,9,10.46l-1.13-1.6a14,14,0,0,1,1.21,1.43l-.37-.91c.32.47.66.89.56.9.48.5.35.21.18-.17a23,23,0,0,0,1.7,2.27c-1.23-2.11-1.29-1.61-2.78-4Z"/><polygon class="cls-10" points="95.38 127.63 94.95 127.21 95.51 127.91 95.38 127.63"/><path class="cls-10" d="M94.43,127.15c0-.05.25.23.27.18C94.09,126.38,94.1,126.53,94.43,127.15Z"/><path class="cls-10" d="M86.25,116.19c-.38-.32-.72-.66-1.12-1,.24.21.46.44.68.67C85.83,115.85,86.11,116.08,86.25,116.19Z"/><path class="cls-10" d="M77.33,111.21a18.09,18.09,0,0,1,4.58,2.31c1,.49-.28-.54.2-.39-1-.61-1-.35-2-.84a12.12,12.12,0,0,0-2.58-1.19C77.61,111.2,77.59,111.25,77.33,111.21Z"/><path class="cls-10" d="M70.74,108.9c-.93-.12-1.87-.18-2.6-.29a2.76,2.76,0,0,1,1.23,0c-.33-.25-1-.09-2-.31.09,0,.46.09.17.11a10.83,10.83,0,0,0-2.05-.08c-.45,0-1,0-2.61,0-.47.06-.94.06-.86.19-1.84-.09-.91-.13-3.14-.14.09,0,.83.19.82.35a49.37,49.37,0,0,0-5.17.4,7.91,7.91,0,0,1,1-.17,2.28,2.28,0,0,0-1.08.08l-.85.17-.5.08c0,.17,0,.34,0,.5l-.18-.2v2.05a18.28,18.28,0,0,1-.11,2.15l-.09-.3c.09,2.62,0,5.68.11,7.91l-.1,1.2c.19,3.08,0-3.06.34-.81-.34.34.13,1.59,0,3.34-.12.83-.11-1.77-.24-.85a7.87,7.87,0,0,1,.14,1.86c-.17-.19,0,1.95-.17,1.38l.41,3.27a13.31,13.31,0,0,0,0,2.17c-.07-1.76.26.48.27-1.51-.19-2.87-.39-7.7-.32-11.31-.23-.39,0-2.32-.18-2.89.07-.09.13-.36.21-.45,0-2.32-.14.55-.21,0,0-1,.13-1.84.21-1.74,0-1.66-.06-.19-.17-1l.27-1.08c0-.65,0-1.33,0-2,0-.33,0-.67,0-1v-.2c0-.06,0-.15.08-.14l.42-.06,2.22-.34,2.29-.25a45.3,45.3,0,0,1,9.24,0l-.43-.2c2.65.29,4.53.18,6.77,1.1l.83.07c-.45,0,.37.36-.33.27.71.16,1.43.43,2.15.65-.4-.2-.83-.33-1.24-.5a5.38,5.38,0,0,1,2.13.82c1.91.61-1-.71-1.4-.94a15.45,15.45,0,0,1-2.72-.8,9.56,9.56,0,0,0-2.68-.68C69,108.52,70.85,108.84,70.74,108.9Z"/><path class="cls-10" d="M74.05,110.06l.41.06A2.9,2.9,0,0,0,74.05,110.06Z"/><path class="cls-10" d="M53.24,133c0,.21,0,.46,0,.79S53.28,133.6,53.24,133Z"/><path class="cls-10" d="M77.5,111.1h0Z"/><polygon class="cls-10" points="78.89 111.27 78.21 110.96 78.3 111.08 78.89 111.27"/><path class="cls-10" d="M57.42,135.54l0-.08C57.34,135.51,57.33,135.54,57.42,135.54Z"/><path class="cls-10" d="M78.16,135.08l-.42-.17Z"/><path class="cls-10" d="M117.51,165.64a16.54,16.54,0,0,0,4.27-.44l-.08.09c.75-.06,3.06-.8,1.52-.58l-.35.16c-1.72.39-1.29,0-2.64.17-.82,0-1.46.13-2.09.21a7.29,7.29,0,0,1-2-.07c-.65-.05-.53-.13-.34-.17-.73,0-1.22-.18-1.68-.2a11.54,11.54,0,0,1-1.37-.16c-.06-.17-.36-.31-.81-.48s-1-.31-1.69-.54a11.09,11.09,0,0,1-3.6-1.75,35.57,35.57,0,0,1-4.1-2.83c.8.51-1.23-1.11-.81-1a7.69,7.69,0,0,1-2-1.9c-.81-.94-1.56-1.9-1.84-1.88-1.38-2-.11-.05-1.7-2.31.05,0,.33.34.44.48-.58-.93-1.16-1.24-1.53-2.09-1.27-1.82-.32-.23-1.19-1.22a11.91,11.91,0,0,1-1.48-2.56c-.3,0-1-1.21-1.83-2,.17.23,1.09,1.5.4.74a28.4,28.4,0,0,0-3.13-3.43c-.68-1.1,1.68,1.84.34.09,1.16,1.09,1.9,2.05,2.57,2.6A33,33,0,0,0,86,139.43c-.94-.88.57.36-.18-.34a23.25,23.25,0,0,0-4.5-3l.4.08c-.53-.22-1.43-.7-2.48-1.17a18.77,18.77,0,0,0-3.31-1.13c.25.13.41.21.12.18.06-.13-.67-.32-1.67-.45s-2.28-.27-3.32-.44c.15.19-1.89.18-3.17.28-.46,0-.36-.12-.36-.18a11,11,0,0,0,2-.1,6.73,6.73,0,0,1,1.71-.15,25,25,0,0,0-4.94.18l.47-.2c-2,.17-1.66.51-3.68.7l.18-.15a44.24,44.24,0,0,0-6.19,1.64c-1,.34-2,.74-2.83,1.11l-.55.26-.07,0s0,0,0-.06v-.14l0-.28c0-.43-.08-.85-.12-1.24-.06-.14-.12.2-.18.59s-.11,1.1-.14,1.18l0,.53a.34.34,0,0,0,0,.11l.13,0,.24-.12.86-.41,1-.53c.64-.33,1.23-.61,1.92-.89l0,.17c.28-.24,2-.85,1-.64,1.13-.46.92-.12,2.24-.6-.07.2-.86.46-.83.61.38-.14.75-.28,1.14-.4-.35.16.72-.12.38,0,2.12-.72,3.06-.57,5.33-.89-.43,0-.85,0-1.28.09a3.84,3.84,0,0,1,1.28-.25c.64.09,1,0,2.19.09a13.5,13.5,0,0,1,3-.14c-.31.14,2.26.41,2.47.66.34-.18,2.6.57,2.81.55a4,4,0,0,1,1.6.67l-.53-.17.68.28c-.07,0,0,0-.13,0a5,5,0,0,1,1.38.57,3.43,3.43,0,0,1-.78-.29,16.55,16.55,0,0,1,4,2.09c.14.05.62.37,1,.63s.75.48.65.26A6,6,0,0,0,86.19,140c.75.44,1.15,1.18,2,1.93-1.16-1,0,0-1.07-.79.65.75,1.83,1.7,2.91,3.09.08.16,0,.19.12.36a6.21,6.21,0,0,1,1.29,1.57l0-.14c.68,1,1.69,2.32,2.33,3.45l1.07,1.08a20.86,20.86,0,0,0,4,4.88,16.24,16.24,0,0,1,1.15,1.45l-.61-.54a10.55,10.55,0,0,0,2.16,2.15c.87.7.51.66,1.13,1.23,1,.62,2.26,1.66,3.52,2.46a7.42,7.42,0,0,0,2.83,1.27,31.42,31.42,0,0,1-3.86-2.2c.42.21.17-.06.72.28a19.1,19.1,0,0,0,3.89,2.07l-.3.18a11.46,11.46,0,0,0,2.09.82,13.2,13.2,0,0,0,2.07.44c.69.09,1.33.27,2,.31A10.88,10.88,0,0,1,117.51,165.64Z"/><path class="cls-10" d="M98.19,154.9c.23.36.48.71.73,1.07v-.19A5.68,5.68,0,0,1,98.19,154.9Z"/><path class="cls-10" d="M98.91,155.78c.19.2.37.38.54.53-.18-.21-.37-.41-.53-.57Z"/><path class="cls-10" d="M122.62,165.28A12.37,12.37,0,0,0,124,165,11.16,11.16,0,0,0,122.62,165.28Z"/><polygon class="cls-10" points="124.07 164.86 123.43 164.97 123.35 165.02 124.07 164.86"/><path class="cls-10" d="M160,155.13c.69-.06,1.38-.11,2.08-.12.35.08,2.69.12,1.93.22,1.24-.13,3.89.36,2.93,0a74.79,74.79,0,0,0-10.38-.3,51.63,51.63,0,0,0-11,1.75l1.08-.35c-3.5,1-4.93,1.08-7.54,2.47l.28-.35c-1.59.54-2.86,1.45-4.55,1.92l.19,0c-.42.18-.61.21-1,.39l.19,0a20.34,20.34,0,0,1-2.89,1.25c-.11,0,.5-.24.83-.41-.53.15-1.34.65-2.2,1-.7.22,0-.1,0-.17-2.55,1.14-3.81,1.32-5.61,2.15-.17.11.74-.05-.25.21a19.3,19.3,0,0,0,4.73-1.66l-.44.17c1.12-.78,1-.29,2.9-1.25-.47.34-1.33.7-1.65.91,2.39-.71,3.19-1.55,4.82-1.9l-.16.08a14.87,14.87,0,0,0,1.43-.66c-.18,0-.7.22-1.05.34a3.56,3.56,0,0,0,.87-.63c.64-.1.74-.4,1.72-.7.38,0-.75.42-1.06.64.36-.19.72-.37,1.09-.54a5.52,5.52,0,0,1,1.61-.39c.84-.44-.54.13.12-.28.59-.14,2.09-.63,3.73-1.16l2.5-.75,2.15-.57c-.82.2-.26.2-1.26.4a5.79,5.79,0,0,0,1.61-.5,16.65,16.65,0,0,1,2.69-.52,22.37,22.37,0,0,1,2.64-.26l-.46-.06a15.73,15.73,0,0,1,2.45-.22c1-.06,2.05-.05,3.21-.13h-.05a15.64,15.64,0,0,1,2.78-.23C160.68,155,159.94,155,160,155.13Z"/><path class="cls-10" d="M168.23,155.43l-.77.06c.83.11,1.88.09,1.72,0a7.35,7.35,0,0,0-1.4-.14C167.87,155.36,167.86,155.4,168.23,155.43Z"/><path class="cls-10" d="M183.49,158.89c.3.07.24,0,.38,0-3.15-1.08-7.14-2-8.42-2.39a25.78,25.78,0,0,0-2.71-.33l-.6-.25c-.77-.06-3-.56-2.26-.2a8.67,8.67,0,0,1,1.31.14l-.12.06,1.48.23-.49,0c2,.52,1.47-.07,3.9.57l-.07.2a27.91,27.91,0,0,1,3.86,1.05s0-.09-.25-.13-.59-.26-.39-.27c2.48.53-.4,0,1.27.58a35.89,35.89,0,0,1,7.08,2.3c-.89-.49.56-.06,1.67.41.48.28-.4,0-.6,0,.51.23.91.46,1.44.66-.63-.4-.13-.36,1.11.11A57.19,57.19,0,0,0,183.49,158.89Z"/><path class="cls-10" d="M184.36,159a2.13,2.13,0,0,0-.49-.12l1.09.37Z"/><path class="cls-3" d="M92.31,74.14c-4.6-13.86,6.7-19.56,17-22"/><path class="cls-3" d="M135.45,87.39s26.8.68,38.34,22.4"/><polygon class="cls-5" points="174.49 53.45 167.02 51.41 167.02 49.04 174.49 49.04 174.49 53.45"/><polyline class="cls-3" points="194.8 167.1 194.73 166.19 194.39 165.45 193.73 164.96 192.86 164.69 192.45 164 192.02 163.33 191.65 162.58 190.77 162.37 190.36 161.65 189.49 161.46 189.35 160.39 188.58 160.09 187.71 159.93 187.08 159.47 186.51 158.91 185.99 158.3 185.46 157.66 184.71 157.36 183.81 157.32 183.41 156.47 182.73 156.06 182.05 155.65 181.41 155.17 180.58 155.05 179.67 155.09 179.33 154.01 178.31 154.31 177.77 153.61 176.91 153.59 176.47 152.63 175.42 153.07 174.9 152.29 174.23 151.81 173.5 151.49 172.5 151.91 171.92 151.19 171.16 150.99 170.35 150.94 169.63 150.63 168.83 150.57 168.11 150.22 167.35 150.02 166.59 149.88 165.77 150.03 165.07 149.49 164.28 149.59 163.52 149.38 162.78 148.98 162.01 148.74 161.23 148.8 160.41 149.43 159.66 149.09 158.88 149.27 158.13 148.53 157.33 149.31 156.56 148.56 155.79 148.96 155.01 149.08 154.23 149.03 153.46 149.27 152.66 148.71 151.91 149.27 151.11 148.92 150.36 149.43 149.55 149.05 148.82 149.65 147.99 149.06 147.22 149.24 146.49 149.85 145.65 149.32 144.86 149.27 144.11 149.63 143.39 150.14 142.52 149.51 141.85 150.39 141.04 150.23 140.27 150.36 139.42 149.99 138.73 150.6 137.95 150.66 137.15 150.62 136.5 151.33 135.63 151 134.96 151.6 134.16 151.58 133.46 151.96 132.52 151.46 131.78 151.71 131.25 152.63 130.46 152.78 129.69 152.99 128.75 152.78 127.97 153.02 127.52 154 126.59 153.9 125.77 154.02 125.04 154.35 124.42 154.93 123.61 155.03 122.97 155.65 122.23 156.09 121.35 155.56 120.57 155.78 119.8 155.56 118.92 156.15 118.17 155.69 117.49 155.11 116.76 154.86 115.98 154.75 115.16 154.73 114.56 154.16 113.58 154.39 113.01 153.78 112.24 153.52 111.6 153.06 111.32 152.09 110.62 151.74 109.92 151.37 108.97 151.27 108.8 150.29 107.97 150.02 107.49 149.39 107.09 148.71 106.48 148.19 105.96 147.6 105.81 146.7 104.89 146.44 104.63 145.63 104.17 144.99 103.28 144.7 102.77 144.1 102.79 143.07 102.04 142.66 101.41 142.15 100.91 141.54 100.84 140.6 100.17 140.12 99.85 139.37 99.19 138.88 98.97 138.05 98.11 137.7 98.09 136.73 97.33 136.31 96.81 135.72 96.39 135.04 95.78 134.52 95.19 133.97 95.24 132.95 94.51 132.51 94.01 131.9 93.22 131.5 93.3 130.45 92.42 130.14 92.29 129.24 91.78 128.64 91.02 128.23 90.59 127.56 90.07 126.98 89.35 126.54 89.08 125.74 88.29 125.37 88.01 124.58 87.49 123.98 86.83 123.51 86.64 122.63 86.09 122.06 85.72 121.33 84.63 121.3 84.12 120.71 83.61 120.11 83.25 119.35 82.58 118.92 81.91 118.51 81.28 118.06 81.04 117.07 79.98 117.22 79.69 116.24 79.04 115.79 78.24 115.59 77.33 115.67 76.76 115.06 76.14 114.54 75.33 114.45 74.66 114.03 73.96 113.63 73.22 113.36 72.38 113.46 71.64 113.24 70.82 113.33 70.08 113.1 69.28 113.24 68.63 112.33 67.76 113.01 67 112.8 66.23 112.82 65.46 112.61 64.7 112.27 63.91 112.74 63.14 111.99 62.36 112.53 61.58 112.59 60.81 112.81 60.02 112.58 59.23 112.39 58.48 112.71 57.67 112.46 56.91 112.68 56.11 112.56 55.44 113.38 54.61 113.11 53.81 113.04 53.05 113.28 52.25 113.21 51.48 113.38 50.73 113.61 49.98 113.85 49.25 114.2 48.56 114.69 47.79 114.84 46.95 114.67 46.21 115.03"/></g></g></svg>