<svg xmlns="http://www.w3.org/2000/svg" viewBox="0 0 244.43 183.47"><defs><style>.cls-1,.cls-12,.cls-2{fill:none;}.cls-10,.cls-2,.cls-3{stroke:#240a3b;}.cls-10,.cls-12,.cls-2,.cls-3,.cls-9{stroke-linecap:round;stroke-linejoin:round;}.cls-10,.cls-12,.cls-2,.cls-9{stroke-width:1.6px;}.cls-3,.cls-4{fill:#240a3b;}.cls-11,.cls-5{fill:#fed916;}.cls-6,.cls-9{fill:#895ba5;}.cls-7{fill:#6fc8b7;}.cls-10,.cls-8{fill:#fff;}.cls-9{stroke:#895ba5;}.cls-11{stroke:#fed916;stroke-miterlimit:10;stroke-width:0.5px;}.cls-12{stroke:#cf63a6;}</style></defs><title>Asset 25</title><g id="Layer_2" data-name="Layer 2"><g id="Layer_1-2" data-name="Layer 1"><rect class="cls-1" width="244.43" height="183.47"/><polyline class="cls-2" points="61.11 116.71 61.87 116.48 62.59 116.17 63.3 115.84 64.02 115.51 64.82 115.4 65.58 115.17 66.27 114.76 67.07 114.68 67.83 114.47 68.57 114.17 69.36 114.11 70.1 113.8 70.9 113.79 71.68 113.67 72.46 113.63 73.23 113.41 74.02 113.44 74.8 113.31 75.58 113.42 76.37 113.32 77.15 113.44 77.94 113.39 78.72 113.5 79.47 113.8 80.25 113.9 81.03 113.97 81.78 114.24 82.54 114.42 83.29 114.67 84.01 114.98 84.68 115.4 85.46 115.58 86.12 116.03 86.84 116.34 87.45 116.84 88.22 117.08 88.87 117.53 89.49 118.01 90.15 118.44 90.75 118.95 91.44 119.32 92.05 119.81 92.6 120.38 93.16 120.93 93.89 121.29 94.4 121.89 94.97 122.43 95.48 123.02 96.1 123.51 96.67 124.04 97.19 124.64 97.75 125.18 98.32 125.73 98.94 126.22 99.38 126.9"/><path class="cls-3" d="M56.07,125.19S80,111.63,95.55,147.76l-23.76,1.6Z"/><polyline class="cls-4" points="152.28 41.96 153.06 41.93 153.82 42.07 154.6 42.01 155.37 42.1 156.13 42.27 156.9 42.38 157.68 42.4 158.41 42.69 159.17 42.84 159.92 43.01 160.67 43.19 161.44 43.3 162.18 43.52 162.92 43.74 163.66 43.95 164.42 44.12 165.13 44.44 165.86 44.69 166.53 45.08 167.28 45.28 167.95 45.68 168.64 46.03 169.38 46.28 170.1 46.56 170.74 47 171.41 47.38 172.04 47.83 172.77 48.12 173.4 48.57 174.05 48.98 174.67 49.44 175.28 49.92 175.92 50.34 176.6 50.72 177.11 51.33 177.82 51.67 178.37 52.22 178.89 52.8 179.55 53.23 180.1 53.78 180.5 54.46 180.98 55.07 181.47 55.66 181.91 56.3 182.32 56.95 182.66 57.65 182.93 58.38 183.24 59.08 183.44 59.83 183.68 60.58 183.63 61.36 183.65 62.13 183.6 62.9 183.42 63.64 183.06 64.33 182.71 65.01 182.24 65.63 181.56 66.01 180.93 66.46 180.17 66.63 179.44 66.88 178.68 66.99 177.91 66.93 177.14 66.91 176.36 66.98 175.62 66.73 174.83 66.71 174.09 66.49 173.33 66.31 172.59 66.05"/><polyline class="cls-2" points="152.28 41.96 153.06 41.93 153.82 42.07 154.6 42.01 155.37 42.1 156.13 42.27 156.9 42.38 157.68 42.4 158.41 42.69 159.17 42.84 159.92 43.01 160.67 43.19 161.44 43.3 162.18 43.52 162.92 43.74 163.66 43.95 164.42 44.12 165.13 44.44 165.86 44.69 166.53 45.08 167.28 45.28 167.95 45.68 168.64 46.03 169.38 46.28 170.1 46.56 170.74 47 171.41 47.38 172.04 47.83 172.77 48.12 173.4 48.57 174.05 48.98 174.67 49.44 175.28 49.92 175.92 50.34 176.6 50.72 177.11 51.33 177.82 51.67 178.37 52.22 178.89 52.8 179.55 53.23 180.1 53.78 180.5 54.46 180.98 55.07 181.47 55.66 181.91 56.3 182.32 56.95 182.66 57.65 182.93 58.38 183.24 59.08 183.44 59.83 183.68 60.58 183.63 61.36 183.65 62.13 183.6 62.9 183.42 63.64 183.06 64.33 182.71 65.01 182.24 65.63 181.56 66.01 180.93 66.46 180.17 66.63 179.44 66.88 178.68 66.99 177.91 66.93 177.14 66.91 176.36 66.98 175.62 66.73 174.83 66.71 174.09 66.49 173.33 66.31 172.59 66.05"/><circle class="cls-5" cx="127.96" cy="90.56" r="32.88"/><path class="cls-5" d="M160.48,91.8c0,.11.14.06.11-.24l-.16-.22Z"/><path class="cls-5" d="M160.76,89.8c-.09-.35-.23-.74-.38-.51.16.34.1.42.29.79,0,.3,0,.52-.11.47.05.11,0,.47.08.63a2.86,2.86,0,0,0,0-1.4C160.68,89.67,160.73,89.78,160.76,89.8Z"/><path class="cls-5" d="M148.16,64.36l.13.13A.8.8,0,0,0,148.16,64.36Z"/><path class="cls-5" d="M131.42,57.58a.53.53,0,0,0,.21,0C131.5,57.56,131.39,57.56,131.42,57.58Z"/><path class="cls-5" d="M128.31,57.21h.18A.38.38,0,0,0,128.31,57.21Z"/><path class="cls-5" d="M148.16,64.36l-.35-.35C147.75,64,148,64.2,148.16,64.36Z"/><path class="cls-5" d="M160,85.84a1.23,1.23,0,0,0,.08.25l-.05-.24Z"/><path class="cls-5" d="M154,69.91l.1.12.13,0Z"/><path class="cls-5" d="M157.39,75.09c-.07-.12-.22-.1-.3-.12a.62.62,0,0,1,.24.22S157.37,75.15,157.39,75.09Z"/><path class="cls-5" d="M160.38,84.4l.05.17Z"/><path class="cls-5" d="M151,66.61a.09.09,0,0,0,0-.07S151,66.58,151,66.61Z"/><path class="cls-5" d="M159.12,98.68h0S159.13,98.63,159.12,98.68Z"/><path class="cls-5" d="M160.85,91.82v.1l.08,0Z"/><path class="cls-5" d="M122.54,57.43h0C122.72,57.4,122.63,57.41,122.54,57.43Z"/><path class="cls-5" d="M95,96.37c0-.6.36.93.31,0C95.29,96.49,94.94,95.63,95,96.37Z"/><path class="cls-5" d="M160,85.68l0-.24A1.25,1.25,0,0,0,160,85.68Z"/><path class="cls-5" d="M95.33,96.39h0v0Z"/><path class="cls-5" d="M110.19,62.19l.14,0S110.29,62.15,110.19,62.19Z"/><path class="cls-5" d="M119.29,58.42l-.24,0A1.25,1.25,0,0,0,119.29,58.42Z"/><path class="cls-5" d="M106.2,65.41a2.21,2.21,0,0,0-.28.23l.06,0A.63.63,0,0,1,106.2,65.41Z"/><path class="cls-5" d="M102.47,69.2l.09-.06.1-.13Z"/><path class="cls-5" d="M151.76,112.34a.92.92,0,0,1,.26-.08C151.89,112.25,152.4,111.68,151.76,112.34Z"/><path class="cls-5" d="M160.12,85.83a.24.24,0,0,1-.08-.15l0,.17S160.11,85.87,160.12,85.83Z"/><path class="cls-5" d="M106.77,66.39l-.64.51Z"/><path class="cls-5" d="M117.85,121.22l.18,0A.45.45,0,0,0,117.85,121.22Z"/><path class="cls-5" d="M104.44,68.64a2,2,0,0,0-.39.26.26.26,0,0,0,0,.1Z"/><path class="cls-5" d="M152,112.26Z"/><path class="cls-5" d="M155,107.75c-.43.65-.05.4-.05.6-.47.81-.35.28-.6.5a6.23,6.23,0,0,1-.69,1.3s-.1.07-.07,0c-.28.57-1.14,1.43-1.47,2.1l-.1,0c.15,0,.24,0,.27.09-.25.25-.38.55-.56.56.16-.15.13-.2.18-.3l-.23.3c-.36.12.32-.4.22-.49a16.24,16.24,0,0,1-1.37,1.62c-.2,0,.86-1,.24-.55l.64-.56c-.65.28.38-.36-.25-.13-.82.75-.78,1-1.65,1.68-.13.23.16,0,0,.28-1.12,1.16-1.23.48-2,1.41a1.55,1.55,0,0,1-.9.88l.12-.31c-.9.59-.35.57-1.36,1.11.13-.17.67-.53.52-.46-.69.29-.37.39-.84.71l-.18-.08c-.5.29-1,.61-1.54,1a11.11,11.11,0,0,1-1.64,1c0-.07.22-.21-.08-.14-.72.36-1.51.7-2.3,1s-1.64.45-2.39.64l-.53.32c-.13,0-.26,0-.12-.06-.61.07,0,.1-.28.21s-.47,0-.26-.07c-.51.17-1.24.4-2,.59a7.49,7.49,0,0,1-2.09.25l.21-.07c-.88,0-1,.41-1.78.36l.15,0-2.9,0a6.76,6.76,0,0,1-1.37-.09,9,9,0,0,1-1.18-.21c-.3.19-1.87-.26-2,0a18.94,18.94,0,0,0-2.21-.73c-.4-.07-.64,0-1.13-.07l0-.15-.71-.05-.29-.28-.47-.09c.18.06.37.18.33.21a6,6,0,0,1-1.13-.37,1.49,1.49,0,0,1-.54-.38l-1.67-.54c.06,0,.34,0,.57.1-.92-.21-.09-.21-.94-.41.09.08-.09.07-.12.09a17.12,17.12,0,0,0-1.86-1l.17,0a34.9,34.9,0,0,1-3.59-2.14c.41.33.21.42-.16.19l0-.22c-.29-.07.34.29-.21.08s-.18-.38.1-.22l-.55-.37c0-.07.13,0,.2,0-.27-.09-.78-.85-1.19-1v-.06a15.19,15.19,0,0,1-1.33-1.13L104.93,113c-.11.08-.42-.26-.76-.43-.53-.7-1.07-1.52-1.75-2.31-.51-.54-.23-.1-.49-.32.07-.12-.54-1-.15-.58l-.87-1.2-.44-.58-.54-.84c0,.17.11.36,0,.29-.16-.24-.28-.61-.21-.6l0,.06a9.54,9.54,0,0,1-1.25-2.63,18.56,18.56,0,0,0-1-2.45l0,.07L97,100.13c-.19-.65.22.36.14-.14a10,10,0,0,1-.42-1c-.08-.32-.14-.62-.19-.91a12.46,12.46,0,0,0-.41-1.77A11.26,11.26,0,0,0,96,94c-.06-.47-.14-1-.18-1.39a8.83,8.83,0,0,1,.07-1.22l-.09.08c-.09-.35,0-.43.07-.69-.07,0-.08.39-.13.17A22.3,22.3,0,0,1,96,86.31c.12-.77.34-1.52.51-2.28l.26-1.13c.12-.37.25-.73.37-1.1.34-1.06-.26-.74.35-2l0,.44A24.58,24.58,0,0,1,98.71,77c.54-1,1.07-2,1.55-3a1.05,1.05,0,0,1-.11.35,4.47,4.47,0,0,0,.87-1.51c.2-.28.12,0,.28-.17.32-.34.51-1.08.77-1.2,0,0,0,.13-.1.2.15-.27.91-1.1.62-1,.58-.6.94-1.3,1.46-1.73.19-.41,1-1,1-1.21.13.2,1.13-.94,1.5-1.32-.09.16.4-.25.3,0,.46-.39.85-.78.7-.8,1-.54,1.66-1.51,2.36-1.6l1-.82,1.08-.68a20.09,20.09,0,0,1,2.14-1.24c0,.13-.4.28-.77.5s-.73.43-.64.52l.87-.59.81-.45a15.58,15.58,0,0,1,1.77-.84c.38-.13-.16.18-.27.27a12.47,12.47,0,0,1,2.07-.78c.69-.2,1.33-.48,2-.66,0,0-.13.08-.27.12.26-.06.62-.09.57-.19l-.25.08c-.46-.05,1-.52,1-.61-.38.38,1.34-.22.7.3.17,0,.38-.15.33-.21.26,0,.35,0,.1.12a6.24,6.24,0,0,1,1.45-.38s-.17.09-.25.16a5,5,0,0,1,1.59-.33s.05.06-.17.08a15.51,15.51,0,0,1,3.54-.31c-.41.22.48.06.54.25a6.27,6.27,0,0,1,.75,0l-.3-.11a16.66,16.66,0,0,1,1.8.09l-.49,0,1.23.07-.69-.13c.67,0,0-.24.82-.11a4.26,4.26,0,0,1,1,.24h0a4,4,0,0,1,1.14.15c.11.08-.14.18-.06.23.34-.08,1.52.23,1.95.19-.14,0-.17.09-.14.12l.29,0c.29.12.32.16.26.22.87.28-.22-.31.8.1-.09,0-.06,0-.23,0a20.4,20.4,0,0,1,3,1c.21.29-.83-.29-.57,0,.67.26,1.38.49,2.09.73a13.71,13.71,0,0,1,2,.93l-.22-.14c.29-.14.86.59,1.53.84-.15-.08-.27,0-.21,0,.77.57,1.68,1,2.92,1.78l-.19-.06c.41.4,1.14,1,1.59,1.37.19.06.45.29.35.08.32.36.63.7.94,1s.65.61,1,.89a6.26,6.26,0,0,1,1.69,1.91c-.13-.16-.35-.33-.25-.21l1,1.05c0-.16-.07-.19-.19-.47a3.21,3.21,0,0,1,.7.64c-.48-.44-.13.11,0,.38,0-.06.08,0,.1,0,.26.74.26,0,.73.89h-.08a9.3,9.3,0,0,1,.72.89c0,.22-.28-.3-.39-.26.33.47.88.79,1,1.33a6.6,6.6,0,0,0-.5-.68,5.35,5.35,0,0,0,.41,1v0l.41.89-.09-.24c.63.47.83,1.22,1.39,2-.58-.78-.18-.09-.34-.09.06.24.16.61.08.53.3.37.22.73.64,1.25,0,0,.19.45,0,.4.28.53,0-.16.1-.13.53.78.5,2.1,1.14,3.28.36,1.07.54,1.25.86,2.27,0,.37-.24-.25-.24-.25a9.41,9.41,0,0,0,.3,1.53c-.05-.11-.08,0-.11.19.06.42.21.26.2.84a1.33,1.33,0,0,1-.24-.41c.1.51.25,1,.35,1.52-.07.15-.16-.3-.24-.48a10.36,10.36,0,0,0,.37,1.7l0-.38c0,.21-.11.11-.15,0-.16-.5,0-.74,0-.77l.08.37c.24-.41-.22-1.51-.29-2.27l.24.29-.26-.76c0-.17.13-.3.21.07,0-.57-.16-.47-.14-1,0-.06,0,0,0,0l-.18-.52c.07.1.13-.11.17.22-.09-1-.49-1.5-.41-1.89l0,.08c-.41-1.28-.17-.1-.64-1l.16-.76-.19-.08c0-.13-.11-.4,0-.37-.25-.46,0,.11-.22-.15a5,5,0,0,0-.33-1.14c-.16-.36-.28-.66-.2-.78-.2-.17.17.62-.18,0,.16-.29-.37-.74-.51-1.34.2.11.37.67.23.06-.34-.25-.43-1.11-.74-1.54-.17.07-.61-.94-1.09-1.67A16.43,16.43,0,0,0,155,71.41h0c-.25,0-.65-.75-1.08-1.18.1,0,.21,0,.45.24a5.28,5.28,0,0,0-.36-.44,2.36,2.36,0,0,1-.53-.46l.2,0c-.51-.57-1.08-1.09-1.69-1.85-.13,0,.29.78-.5.12,0-.07.08-.18.29,0a2.29,2.29,0,0,1-.37-.32l.38.2c-.28-.34-.24-.09-.48-.35.07-.06-.14-.23,0-.25s.2.24.32.31a3.86,3.86,0,0,1-.64-.84c0,.07-.09.1-.31-.1-.55-.52-.1-.27-.39-.61-.16-.09-.5-.45-.6-.34a.49.49,0,0,1-.2-.31c-.35-.19-1.44-1.14-1.19-.74l.07.08-.06,0h0c-1-.74-2.13-1.6-3.21-2.27l0,0a15.49,15.49,0,0,0-2-1c-.2-.1-.43-.32-.32-.33-.54-.23-.59-.26-1.34-.64.57.15-.16-.14.58.18a5.44,5.44,0,0,0-1.62-.65c.31,0-.47-.37-.82-.47l.46.29c-.38-.14-.7-.29-1-.43l.24-.08a7.47,7.47,0,0,0-2.06-.58,7.09,7.09,0,0,1-1.78-.53c-.43,0,.81.24.42.3-.69-.16-1.38-.53-1.6-.57-.95-.27-.94,0-1.94-.16.12.07.22.24-.54.23s-.84-.33-.39-.34c.17,0,.25,0,.24.06.23,0,.54,0,.26-.09l-.09.05c-.35-.09-1.33-.17-1.1-.25-.54,0-.23.08.16.14a14.21,14.21,0,0,0-2.37-.19c.15,0,.29.1.14.1-1.38-.06-.61.12-1.54.16-.54-.09.18-.22-.76-.14-.58-.05-.13-.15.1-.2-.86.09-1.62.07-2.12.08l.45-.1c-.26.06-.49.08-.71.11l.27.09c-.27,0-.5,0-.5,0-.26.11.24.17-.29.34-.36,0-1.07.17-1.21.06,1.12-.11-.15-.15.79-.29a4.93,4.93,0,0,1-.67.08s0,0,.1-.06c-1.08.07-.45.28-1.54.5.12-.11-.29-.11-.46,0,.44-.09.24.1-.14.25a6,6,0,0,0-1.11.29l.42-.06a6.66,6.66,0,0,1-.92.36c-.06,0,.41-.18.23-.15-.47.31-1.22.22-1.92.56-.36,0-.09-.15-.4-.09a18.2,18.2,0,0,0-1.72.65c.29,0,.31,0-.22.32l1.33-.67-.81.55a10,10,0,0,1,1.1-.52c-.4.24-.36.21-.13.21-.62.08-1.07.58-1.76.75l-.1-.28a6,6,0,0,0-1.38.64,11.53,11.53,0,0,1-1.51.91l.41-.17c-.1.19-.73.43-1.1.69,0-.11-.28,0-.48,0,.06.05-.84.57-.83.81l-.58.24c-1,.6-.9.92-1.73,1.6.18-.29-.24,0,.27-.56-.28.23-.54.43-.5.48-.2.09-.67.74-1,.88a1.14,1.14,0,0,1-.37.49s0,0,0,0-.42.47-.09.31A7.82,7.82,0,0,0,104,67.75l-.76.78a3.93,3.93,0,0,1-.63.61l-1.46,1.94s0,0,0-.14c-.61.77-.1.67-.79,1.53-.45.39.25-.54,0-.28-.35,0-.74,1.13-1.25,1.69l.07-.17c-.37.45-.55,1.3-1,2.11,0,0,0,0,0,0-.19.62-.55,1.78-.86,2.62,0-.3.09-.4-.09-.29-.14.38.23,0,0,.72-.15.22-.45.73-.58.76.07-.24.18-.47.27-.71-.34.29-.35.92-.48,1.3l-.06-.08c-.31,1.13-.13,1.2-.49,2.39l.09-.11c0,.7-.23.53-.23,1.23l-.23.16c0,.45-.13,1.59-.2,2.38a10.51,10.51,0,0,1,0-2,8.24,8.24,0,0,0-.22,1.74,2.25,2.25,0,0,1,.07-.58,14.37,14.37,0,0,1,0,2.16c-.37-.19-.33,2.3-.54,2.94a23.89,23.89,0,0,1,.06,2.4c.07.81.12,1.66.23,2.58.22-.69.07.53.36.37a4.67,4.67,0,0,1,.11.62l.09,1.3c0,.32-.15-.38-.21-.33.18.93,0,.41,0,1,.08-.15.22.28.3.82l0-.78c.42,1.25.05,1.17.59,2.4l-.22-.38c.13.32.33.92.54,1.51a4.24,4.24,0,0,0,.77,1.4c0,.13,0,.31-.14,0a17.82,17.82,0,0,0,1.16,2.31,13.74,13.74,0,0,1,1.13,2l-.12-.07a4.66,4.66,0,0,1,.52.75s-.14-.06-.06.06a5.81,5.81,0,0,1,.76.94l-.27-.23a11.7,11.7,0,0,0,1.19,1.59c.42.4.84.76,1.28,1.25-.16.12.56,1.16,1,1.62h0c.65.66,1.25,1.18,1.84,1.68s1.25.87,1.93,1.38a8.16,8.16,0,0,0,.73.75c.32.27.72.52,1.12.8.82.54,1.68,1.17,2.42,1.59-.21-.16.12-.13.4,0s1,.39.9.54l-.13-.07a3.64,3.64,0,0,0,1.53.9l.21-.2a9.61,9.61,0,0,0,2.69,1.19,8,8,0,0,1,2.25.76,9.58,9.58,0,0,0,1.31.17l-.06.13a21.51,21.51,0,0,0,3,.55l-.29.08c.78.08,1-.32,1.75-.26l.2.23a15.57,15.57,0,0,0,4.09.07s-.06.09-.28.1c.65.06,2.5-.06,2.24-.31,0,.18,1.41-.13,2.12-.32l-.09.16a4.53,4.53,0,0,1,1.42-.59c.2,0,.2.07-.08.09.69-.07.5-.24,1.32-.34l-.28.15a1.68,1.68,0,0,0,1-.38,3,3,0,0,1,1.41-.28,1.61,1.61,0,0,1,.81-.42c.06,0-.07.11-.14.14,1.17-.24,1.56-.79,2.37-1a.2.2,0,0,0,.16,0c-.86.37-1.56.66-1.5.62.05.13.76-.16.27.25a11,11,0,0,1,2.09-1.18.2.2,0,0,1,.11,0l-.06,0a1.43,1.43,0,0,0,.41-.21,4.79,4.79,0,0,0,.56-.26c.12.05.79-.37,1.12-.55-.1-.11.35-.33-.12-.2.06,0,0,0-.27.17l-.13.09,0,0-.82.46a2.23,2.23,0,0,1,.87-.54c.13-.18.27-.36.35-.45.55-.07,1.47-.48,1.63-.48.89-.74,2.25-1.54,2.6-2.26.23-.24.34-.18.46-.23a3.88,3.88,0,0,0-.36.38c.46-.47,1.47-1.27,1.46-1.5.68-.48-.22.44.59-.35l-.07.15a11.15,11.15,0,0,0,2-2.16,11.94,11.94,0,0,1,2-2.43c-.13.12-.19.18-.23.19a38.35,38.35,0,0,0,4.3-7.37,3.36,3.36,0,0,0,.36-1.31l.21-.1c0-.28,0-.56.08-.84a6,6,0,0,1,.57-1.53,7.4,7.4,0,0,0,.32-.8,4.31,4.31,0,0,0,.14-1l-.14.16c.12-.51.26-1.65.36-1.54a.53.53,0,0,1,0-.39h.08a9.41,9.41,0,0,0,0-1.3c.15-1,.3.19.44-1.28,0-.55-.09-1.57-.16-1.37s-.1.56-.18.57v-.49c-.22-.1-.43-.48-.69.7l.06.84-.13.26,0-.7a1.69,1.69,0,0,0,0,.94.63.63,0,0,0-.15.33l.14.84c-.1.09-.12-.38-.26.15,0,.39.27-.33.22.3-.18.38-.24.25-.24.73-.08,0-.09,0-.09-.24a8.63,8.63,0,0,0-.09,1.32,3.44,3.44,0,0,0-.22.83c-.08.29-.17.51-.27.46A4.59,4.59,0,0,1,159,99.8c-.05-.74-.42,1.37-.64,1.1.1.59-.59,1.77-.8,2.67a.74.74,0,0,1,.05-.23,7.12,7.12,0,0,1-.5.87c.15.14-.19.87-.29,1.31-.46.47,0-.45-.28-.35.16,0-.37,1-.15.91-.33.37-.25.34-.5.48.16.2-.16.43-.27.83-.49.52-.29,0-.65.71C154.7,108.36,155,107.75,155,107.75ZM141.75,120h0l.35-.16Zm-1.41.62.61-.26c.07,0,0,.09-.1.15C140.91,120.41,140.56,120.53,140.34,120.58Zm3.41-.54c-.21.14-.3.16-.34.15l.37-.23,0,0A.27.27,0,0,1,143.75,120Z"/><path class="cls-5" d="M144.05,119.66l.09-.06-.15.05-.05.08Z"/><path class="cls-5" d="M148.32,64.51l0,0s0,0,0,.06A.06.06,0,0,1,148.32,64.51Z"/><polygon class="cls-5" points="119.5 121.64 119.5 121.67 119.63 121.68 119.5 121.64"/><path class="cls-5" d="M154,71a.2.2,0,0,0,0,.11S154,71,154,71Z"/><path class="cls-5" d="M156,74l.21.48A5.07,5.07,0,0,0,156,74Z"/><path class="cls-5" d="M157.28,76.56a.11.11,0,0,0,.08,0h0Z"/><path class="cls-5" d="M119.72,59.28l-.1,0C119.38,59.4,119.54,59.34,119.72,59.28Z"/><path class="cls-5" d="M133,58.29h-.43C132.77,58.33,133,58.37,133,58.29Z"/><polygon class="cls-5" points="106.84 66.33 106.84 66.33 106.77 66.39 106.84 66.33"/><path class="cls-5" d="M131.92,58.22a2.82,2.82,0,0,0,.62.06A4.48,4.48,0,0,0,131.92,58.22Z"/><path class="cls-5" d="M160.32,88.34v.14h0Z"/><path class="cls-5" d="M160.35,88.49l0,.15A.44.44,0,0,0,160.35,88.49Z"/><path class="cls-5" d="M160.41,89l0-.32A.64.64,0,0,0,160.41,89Z"/><path class="cls-5" d="M159.9,84.63l-.06,0A.06.06,0,0,0,159.9,84.63Z"/><path class="cls-5" d="M159.64,83.52a8,8,0,0,0,.15,1l.05,0C159.73,84.44,159.78,83.76,159.64,83.52Z"/><path class="cls-5" d="M158.9,78.75c.11.31.18.62.27.93,0-.17,0-.41.15,0C159.09,78.46,159.29,80,158.9,78.75Z"/><path class="cls-5" d="M157.77,76c.23.46.07,0,.11,0C157.69,75.65,157.64,75.59,157.77,76Z"/><path class="cls-5" d="M142.64,60.8l.1-.09C142.38,60.54,142.72,60.75,142.64,60.8Z"/><path class="cls-5" d="M138.59,59.81a2.23,2.23,0,0,1,.33.2l.21,0A3.63,3.63,0,0,0,138.59,59.81Z"/><polygon class="cls-5" points="136.51 58.24 136.68 58.27 136.02 58.12 136.51 58.24"/><path class="cls-5" d="M103,68.38h.2C103.35,68.18,103.25,68,103,68.38Z"/><path class="cls-5" d="M95.75,82.34a1.42,1.42,0,0,0-.25.86C95.58,82.85,95.71,82.52,95.75,82.34Z"/><polygon class="cls-5" points="115.17 121.49 114.86 121.42 115.44 121.6 115.17 121.49"/><path class="cls-4" d="M121.54,149.42c-.15,1.94-19.6,2-43.45.18S54.16,146,54.31,144.09s.48-3.37,24.32-1.52S121.69,147.48,121.54,149.42Z"/><path class="cls-4" d="M121.25,149.4c0,.07.13,0,.06-.06a.51.51,0,0,0-.17,0S121.19,149.41,121.25,149.4Z"/><path class="cls-4" d="M120.55,148.6c-.24,0-.54,0-.46.2.27-.06.29,0,.59,0s.27.21.21.24c.09,0,.21.18.35.17a.85.85,0,0,0-.74-.48C120.44,148.63,120.53,148.62,120.55,148.6Z"/><path class="cls-4" d="M101.33,144.62l.13,0Z"/><path class="cls-4" d="M89.23,143.17c.09,0,.13,0,.14,0S89.21,143.15,89.23,143.17Z"/><path class="cls-4" d="M87.18,142.79l.12,0A.19.19,0,0,0,87.18,142.79Z"/><path class="cls-4" d="M101.33,144.62l-.31-.1S101.18,144.58,101.33,144.62Z"/><path class="cls-4" d="M117.89,148.13h.18l-.17,0Z"/><path class="cls-4" d="M106.68,145.22h.09a.21.21,0,0,0,.1-.06Z"/><path class="cls-4" d="M110.76,145.83c-.09,0-.15.12-.19.17a.31.31,0,0,1,.21-.06A.16.16,0,0,0,110.76,145.83Z"/><path class="cls-4" d="M117.13,147.35h0Z"/><path class="cls-4" d="M103.76,144.77l0-.05S103.74,144.75,103.76,144.77Z"/><path class="cls-4" d="M117,150v0S117,150,117,150Z"/><path class="cls-4" d="M121.58,149.42v.08l.07,0Z"/><path class="cls-4" d="M83.4,142.27h0C83.52,142.26,83.46,142.26,83.4,142.27Z"/><path class="cls-4" d="M57.31,147.52c-.35-.23.68,0,.14-.28C57.49,147.31,56.85,147.31,57.31,147.52Z"/><path class="cls-4" d="M117.79,148.09l-.16,0Z"/><path class="cls-4" d="M57.45,147.24h0l-.06,0Z"/><path class="cls-4" d="M74.64,141.67s0,.05.08.07S74.7,141.71,74.64,141.67Z"/><path class="cls-4" d="M81.14,142.36l-.16,0Z"/><path class="cls-4" d="M71.24,141.65a.58.58,0,0,0-.24,0l0,0A.39.39,0,0,1,71.24,141.65Z"/><path class="cls-4" d="M67.71,141.46l.06,0h.11Z"/><path class="cls-4" d="M106.35,150.34a.55.55,0,0,1,.16.12C106.46,150.36,107,150.33,106.35,150.34Z"/><path class="cls-4" d="M117.9,148.05a.12.12,0,0,1-.11,0l.11,0A0,0,0,0,0,117.9,148.05Z"/><path class="cls-4" d="M71,142.75l-.56-.06A4.37,4.37,0,0,0,71,142.75Z"/><path class="cls-4" d="M81.09,149.25h0Z"/><path class="cls-4" d="M68.81,142.63a.89.89,0,0,0-.31-.11s0,0-.07,0Z"/><path class="cls-4" d="M106.51,150.46Z"/><path class="cls-4" d="M110.19,150.12c-.53,0-.24.18-.36.29-.63.06-.29-.13-.51-.22a8.61,8.61,0,0,1-1,.21s-.07,0,0-.08c-.42.15-1.24,0-1.73.19,0,0-.06,0-.07,0a.33.33,0,0,1,.08.26c-.24,0-.45.11-.54,0,.15,0,.16,0,.23-.08l-.25.05c-.23-.18.34-.06.34-.19a6.38,6.38,0,0,1-1.43.14c-.08-.17.87,0,.38-.2l.57.07c-.44-.27.36,0,0-.27-.76-.06-.85.08-1.61,0-.17.09,0,.14-.12.23-1.08.15-.84-.44-1.64-.23a.84.84,0,0,1-.86.19l.2-.18c-.74,0-.43.26-1.2.11.14-.07.59-.05.47-.07-.49-.17-.35.1-.74.09l-.07-.18c-.79,0-1.66.1-2.53.1.05,0,.2-.09,0-.15a20.17,20.17,0,0,1-3.4-.26l-.41.13c-.09,0-.17-.07-.07-.1-.41-.07,0,.09-.22.14s-.31-.1-.16-.13a9.67,9.67,0,0,1-2.84,0l.15,0c-.59-.09-.69.27-1.24.1l.11,0a27.18,27.18,0,0,1-3.71-.37c-.2.2-1.27-.17-1.37.11a9.16,9.16,0,0,0-1.55-.4c-.28,0-.43.16-.78.17v-.16l-.47.13-.24-.2-.32,0c.12,0,.26.08.24.13a2.22,2.22,0,0,1-1.22-.28l-1.21,0c0-.06.24-.06.4-.09-.65.11-.11-.17-.7-.07.08,0,0,.09-.06.12a4.9,4.9,0,0,0-1.44-.17l.1-.1c-.88-.1-1.86-.1-2.85-.19.35.08.25.26,0,.25l-.1-.17c-.2.09.3.09-.1.18s-.23-.21,0-.24l-.45,0c0-.06.08-.07.12-.13-.2.08-.76-.24-1-.08l0-.06c-1-.09-1.44-.07-2.24-.14,0,.14-.34.08-.6.16-.58-.1-1.23-.28-1.94-.35-.51,0-.16.1-.39.16,0-.13-.74-.19-.36-.24-.85-.08-1.09-.11-2.18-.14.11.07.24.11.17.14s-.44-.11-.41-.17h.06c-1.24,0-2.73-.75-3.72-.67h.06l-1,0c-.45-.11.29,0,0-.19a16.88,16.88,0,0,1-2.53-.47,4.52,4.52,0,0,0-1.39-.64c-.56-.19-1.07-.52-1.13-.8l-.06.08c-.12-.08,0-.17,0-.26s0,.16-.1.11a2,2,0,0,1-.08-.22l0-.29a3.84,3.84,0,0,1,.07-.69c.07-.39.26-.55.65-.73a10.05,10.05,0,0,1,2.89-.39c.74,0,.4-.49,1.36-.33l-.26.18c1.52-.27,3.14,0,4.65-.18-.09,0-.1.08-.24.08a2,2,0,0,0,1.18-.06c.24,0,.06.09.2.14.32.09.81-.12,1,0s-.09,0-.15,0c.22-.05,1,0,.78-.1.57.09,1.09,0,1.54.1.31-.14,1,.12,1.08-.09-.06.22,1,.23,1.35.15-.13.06.31.09.16.17.41,0,.79,0,.72-.11.74.32,1.54-.12,1.94.25,1.23,0,2.36,0,3.46,0-.06.22-1.21-.07-1.18.17a17.16,17.16,0,0,1,2.68,0c.27,0-.16.08-.25.12,1.05,0,2,.17,2.94.13,0,0-.11,0-.2,0,.18,0,.42.07.41,0h-.18c-.28-.17.75-.25.79-.33-.34.27.9.15.38.48.12,0,.28,0,.25-.11.18,0,.23.08.05.14.65,0,.43-.13,1-.07,0,0-.13,0-.19.11a2.55,2.55,0,0,1,1.11-.06s0,.07-.13.06a16.49,16.49,0,0,1,2.42.05c-.3.19.31.1.34.3H88l-.19-.11a9.5,9.5,0,0,1,1.22,0l-.34.05.84,0-.47-.11c.46,0,0-.24.56-.13-.12,0,.45,0,.67.18h0a1.7,1.7,0,0,1,.78,0c.08.07-.09.2,0,.24.24-.13,1,.07,1.34-.07-.1,0-.11.13-.09.15l.2-.11c.2.06.23.09.18.16.62.09-.17-.25.55-.08-.05,0,0,0-.15,0,.73.13,1.43.07,2.1.21.17.21-.6,0-.39.16,1,.07,2,0,3,.16l-.17,0c.16-.25.69.21,1.18.14-.12,0-.17.13-.14.1a17.59,17.59,0,0,0,2.31.14l-.13.05c.37.11,1,.16,1.4.25.13-.05.36,0,.23-.13,1.21.55,2.44.12,3.51.6-.13,0-.33,0-.22,0l1,.08c-.06-.13-.11-.09-.3-.21a1.61,1.61,0,0,1,.64,0c-.44,0,0,.19.15.28,0,0,.05-.07,0-.11.46.28.11-.22.77,0l0,.05a4,4,0,0,1,.77,0c.1.15-.28,0-.31.12.38,0,.8-.13,1.12.06-.17,0-.4,0-.57,0a1.53,1.53,0,0,0,.68.26h0l.64.17-.16-.06c.54-.27,1,.1,1.67,0-.66.11-.12.11-.2.25.16.07.4.16.32.19.33-.06.5.19,1,.09,0,0,.32.06.23.17.4,0-.08-.1,0-.15.64,0,1.39.47,2.3.43s.95-.06,1.66,0c.22.14-.23.13-.23.13a2.88,2.88,0,0,0,1,.25c-.08,0,0,.08.08.16.29.07.24-.12.59.05a.79.79,0,0,1-.33.11c.34.05.69.06,1,.12.07.11-.24.06-.38.08a3.88,3.88,0,0,0,1.17.16l-.23-.13c.14,0,0,.13-.08.12-.35,0-.45-.2-.45-.25l.25,0c-.16-.35-1-.26-1.48-.4l.26-.14-.55,0c-.1-.08-.15-.21.11-.18-.33-.19-.34,0-.62-.2,0,0,0,0,0,0l-.36,0c.08,0,0-.16.18-.08-.6-.27-1-.08-1.26-.29h.06c-.9-.12-.12.13-.82.17l-.36-.46-.12.13c-.09,0-.27-.07-.22-.12-.36,0,0,.07-.17.13-.42-.22-1.23-.16-1.28-.42-.18.08.4.16-.08.16-.09-.29-.55-.06-.93-.25.15-.11.52,0,.13-.16-.28.18-.77-.19-1.12-.2,0,.18-.75-.05-1.33-.08a14,14,0,0,0-1.58-.42l0,0c-.13.17-.67.05-1.07,0,0-.11.11-.14.33-.16l-.38-.05a.92.92,0,0,1-.46,0l.11-.12a8.73,8.73,0,0,1-1.66-.17c-.05.13.46.43-.23.42,0-.07,0-.19.16-.2a.78.78,0,0,1-.33,0l.29-.07c-.29-.09-.17.07-.4,0,0-.1-.16-.09-.12-.17s.2.07.29,0a1.7,1.7,0,0,1-.66-.24c0,.06,0,.13-.22.12-.5-.06-.15-.14-.44-.23-.13.05-.44-.06-.47.08-.14,0-.16-.09-.21-.14-.27,0-1.21-.14-.94.06l.06,0h0c-.87,0-1.75-.31-2.61-.35v-.05a11,11,0,0,0-1.49,0c-.15,0-.35-.14-.27-.19a2.46,2.46,0,0,1-1-.1c.4,0-.13-.09.4,0a2.44,2.44,0,0,0-1.15-.11c.2-.11-.36-.2-.6-.19l.34.13a5.55,5.55,0,0,1-.74-.09l.15-.15c-1-.31-1.89.14-2.63-.27-.29.08.55.13.29.24a7,7,0,0,1-1.08-.37c-.64-.16-.63.18-1.3.05.08.07.14.23-.37.24s-.55-.3-.25-.32c.11,0,.17,0,.16.05.16,0,.36,0,.18-.1l-.07,0c-.23-.08-.88-.14-.72-.22-.36,0-.16.08.1.14-.59-.14-.94-.09-1.56-.21.09,0,.18.12.08.11-.91-.16-.41.08-1,0-.35-.12.14-.2-.49-.18-.38-.1-.07-.17.09-.2a4.31,4.31,0,0,1-1.38-.22l.3,0a2.36,2.36,0,0,1-.47,0l.16.14c-.18,0-.33-.05-.32-.1-.19.06.12.21-.25.28s-.72,0-.78-.16c.73.12-.07-.16.56-.14a1.5,1.5,0,0,1-.45,0s0,0,.08,0c-.7-.2-.34.15-1.07.08.1-.08-.16-.18-.28-.17.3,0,.13.16-.15.2a2.87,2.87,0,0,0-.76,0l.28.06c-.1.08-.33.05-.66.05,0-.07.3,0,.18-.06-.37.12-.8-.23-1.32-.17-.23-.07,0-.16-.21-.22-.58.07-.61-.17-1.21-.12.16.13.19.11-.24.19h1l-.64.13c.29,0,.63,0,.8,0-.3.08-.27,0-.14.16-.39-.21-.81,0-1.27-.11l0-.3c-.69-.18-1.26.06-2.17-.08l.29.07c-.13.11-.57,0-.87,0,0-.1-.14-.15-.27-.22s-.67-.05-.76.14l-.4-.16c-.74-.1-.86.23-1.57.15.22-.09-.1-.18.38-.23-.24,0-.45,0-.46,0s-.66.09-.88,0c-.1,0-.14.14-.4.12,0,0,0,0,0,0s-.42,0-.19.17c-.72-.35-2-.09-2.67-.39-.52,0-1.15,0-1.62,0,0,0,0-.05.09,0-.64-.12-.41.27-1.14.14-.37-.18.39-.08.16-.15-.09-.33-.89,0-1.39-.17l.12,0a10,10,0,0,0-1.55.07s0,0,0-.05a7.91,7.91,0,0,1-1.83.28c.19-.13.27-.07.16-.2-.27,0,.08.21-.46.26-.17-.06-.56-.11-.62-.25l.51,0c-.27-.17-.66,0-.93,0l0-.08c-.78.05-.78.28-1.61.33l.09,0c-.43.24-.4-.06-.83.15l-.17-.17a4.91,4.91,0,0,0-.69.27,7.07,7.07,0,0,0-.83.4,3.86,3.86,0,0,1,1.23-.71,2.94,2.94,0,0,0-1.16.47c.12-.07.26-.19.39-.19a6.49,6.49,0,0,0-1.21,1c-.11-.19-.48.22-.54.75s-.11,1-.18,1.35A2.78,2.78,0,0,0,55,146.52a6.07,6.07,0,0,0,1.66.8c-.33-.43.35.12.37-.2.28.07.39.09.4.12l.8.4c.18.14-.28,0-.27.07.61.19.23.19.62.37-.06-.13.25-.11.59,0l-.46-.25c.89,0,.69.43,1.59.43l-.29,0a7.59,7.59,0,0,0,2.13.12c.07,0,.16.15,0,.14,1.07.19,2.42.09,3.23.33l-.09.07c.2,0,.36-.1.6,0,0,0-.09.06,0,.08a2.15,2.15,0,0,1,.8,0l-.23.05a11,11,0,0,0,2.5,0c0,.22.79.38,1.2.46l0,0a29,29,0,0,0,3.22,0,26.42,26.42,0,0,0,3.47.52c-.17-.05,0-.16.24-.17s.74-.09.69.11l-.1,0c.18.22.73.21,1.15.25l.09-.26c1.08.47,2.92.07,3.5.45.27,0,.6,0,.87-.07l0,.14a18.63,18.63,0,0,0,2,.16l-.19.08c.51.05.68-.36,1.15-.34l.13.22a13,13,0,0,0,2.71.15s-.05.09-.19.09c.42,0,1.63.23,1.49-.07,0,.19.93.07,1.42,0l-.08.14a2.12,2.12,0,0,1,1-.23c.14,0,.12.12-.06.07.45.1.36-.11.9,0l-.21.08a1.09,1.09,0,0,0,.7-.11c.29,0,.88.07.94.2a.79.79,0,0,1,.6-.12s-.06.08-.11.09c.77.13,1.16-.12,1.69,0,0,.05,0,.07.09.09-.62,0-1.12-.06-1.07-.07s.49.17.09.34a5.1,5.1,0,0,1,1.59-.19l.06.05h-.05a1.06,1.06,0,0,0,.31,0l.4.05c.06.11.57.08.82.09,0-.14.31-.11,0-.23,0,0,0,0-.21,0h-.71a1,1,0,0,1,.68,0,3.57,3.57,0,0,1,.35-.22c.34.21,1,.33,1.08.46a8,8,0,0,0,2.29-.26c.22,0,.25.08.33.12a2.24,2.24,0,0,0-.35.05c.44-.06,1.29,0,1.4-.18.54.09-.31.16.44.14l-.1.06c1.47.31,2.4-.45,4-.07-.11,0-.17,0-.19-.07,1.87.16,3.84-.19,5.7,0a1.5,1.5,0,0,0,.89-.2l.12.15.54-.21c.76-.18,1.38.28,2.34-.07l-.14-.09c.36,0,1.11-.19,1.07-.07a.24.24,0,0,1,.24-.09l0,.07c.29-.09.57-.18.84-.29.69-.12,0,.37,1,.06a1.52,1.52,0,0,0,.63-.53c.2-.28.11-.59.08-.45s-.34.41-.38.35a.64.64,0,0,0,.2-.31.47.47,0,0,0-.33-.11s-.07,0,0,0h0l-.08,0-.11-.07-.15,0a1.68,1.68,0,0,1-.37.31l-.2-.06.4-.14a.7.7,0,0,0-.52.22.37.37,0,0,0-.25-.06,5.72,5.72,0,0,1-.48.32c-.08-.08.21-.22-.16-.21s.28.16-.13.3c-.28-.06-.21-.16-.51,0,0-.06,0-.1.13-.15-.26.11-.73.13-.86.27-.29-.1-.94.13-.93-.1a2.32,2.32,0,0,1-.74.25c.46-.3-1,0-.86-.25-.33.26-1.26.18-1.87.33a.25.25,0,0,1,.15,0,2.67,2.67,0,0,1-.68-.11c0,.2-.58.26-.87.39-.44-.18.25-.24.11-.42,0,.16-.74.18-.59.31-.33-.11-.28-.05-.46-.21,0,.25-.3.05-.57.2-.48-.11-.13-.23-.65-.14C109.73,150.21,110.19,150.12,110.19,150.12Zm-12.45.24Zm-1,0,.45,0c0,.05,0,.1-.11.09C97.09,150.41,96.84,150.37,96.69,150.32Zm2.18,1.06c-.16,0-.22,0-.24,0h.31S98.91,151.36,98.87,151.38Z"/><path class="cls-4" d="M99.18,151.2h.07l-.1,0-.06,0Z"/><path class="cls-4" d="M101.48,144.66h0l0,0Z"/><polygon class="cls-4" points="82.26 149.27 82.25 149.3 82.35 149.28 82.26 149.27"/><path class="cls-4" d="M107.13,145.93l.07,0Z"/><path class="cls-4" d="M109.59,146.35l.34.1Z"/><path class="cls-4" d="M111.47,146.73s0,0,0,0h0Z"/><path class="cls-4" d="M81.2,143.31h-.08C81,143.33,81.07,143.32,81.2,143.31Z"/><path class="cls-4" d="M90.26,143.81a2.58,2.58,0,0,1-.29,0C90.13,143.87,90.25,143.89,90.26,143.81Z"/><polygon class="cls-4" points="71.09 142.75 71.09 142.75 71.03 142.75 71.09 142.75"/><path class="cls-4" d="M89.55,143.8a1.27,1.27,0,0,0,.42,0A2,2,0,0,0,89.55,143.8Z"/><path class="cls-4" d="M119.49,148.62l.08,0,0,0Z"/><path class="cls-4" d="M119.59,148.64l.1,0A.14.14,0,0,0,119.59,148.64Z"/><path class="cls-4" d="M119.9,148.7l-.21,0C119.76,148.68,119.84,148.72,119.9,148.7Z"/><path class="cls-4" d="M117.1,147.88l0,0A.08.08,0,0,0,117.1,147.88Z"/><path class="cls-4" d="M116.35,147.72a4.14,4.14,0,0,0,.68.23l0,0C116.93,148,116.54,147.67,116.35,147.72Z"/><path class="cls-4" d="M113.33,146.45l.63.16c-.1-.08-.23-.18.06-.13C113.25,146.16,114.16,146.63,113.33,146.45Z"/><path class="cls-4" d="M111.37,146c.34,0,0-.08,0-.11C111.17,145.92,111.12,145.92,111.37,146Z"/><path class="cls-4" d="M97,144l0-.13C96.78,143.86,97,143.92,97,144Z"/><polygon class="cls-4" points="94.17 144.34 94.42 144.45 94.56 144.35 94.17 144.34"/><polygon class="cls-4" points="92.64 143.26 92.76 143.26 92.31 143.26 92.64 143.26"/><path class="cls-4" d="M68.34,141.37l.07.16C68.6,141.51,68.64,141.34,68.34,141.37Z"/><path class="cls-4" d="M57.77,141.52a.71.71,0,0,0-.6,0C57.41,141.52,57.66,141.55,57.77,141.52Z"/><polygon class="cls-4" points="79.39 150.32 79.17 150.36 79.57 150.35 79.39 150.32"/><path class="cls-6" d="M60,141.53l46.31-45.46s8.63-10.68,8.83-21.5c.85-5.27,4-6.88,6.18-5.94s3.08,4.45,3.08,4.45l-.44,11.75-.05,34.76-19.3,27c-5.07.9-19.9.14-27.27-.1C69.5,146.23,65.15,142.86,60,141.53Z"/><path class="cls-6" d="M60.09,141c-.13,0-.1.19.23.26l.3-.18Z"/><path class="cls-6" d="M62.12,142.15c.4,0,.91,0,.75-.32-.46.09-.51,0-1,.09-.33-.08-.53-.26-.45-.33-.13,0-.48-.21-.7-.11a2.68,2.68,0,0,0,1.47.53C62.29,142.1,62.16,142.12,62.12,142.15Z"/><path class="cls-6" d="M93.88,147.35l-.21,0Z"/><path class="cls-6" d="M110.44,139.23c-.08.12-.1.19-.08.21C110.43,139.31,110.48,139.21,110.44,139.23Z"/><path class="cls-6" d="M112.67,136.59l-.14.15A.39.39,0,0,0,112.67,136.59Z"/><path class="cls-6" d="M93.88,147.35l.53.08C94.45,147.35,94.14,147.37,93.88,147.35Z"/><path class="cls-6" d="M66.5,143.26a1.77,1.77,0,0,0-.29,0l.26.08Z"/><path class="cls-6" d="M85,147.32h-.16a.71.71,0,0,0-.14.1Z"/><path class="cls-6" d="M78.19,147.1c.15,0,.21-.19.27-.28a.55.55,0,0,1-.34.13A.25.25,0,0,0,78.19,147.1Z"/><path class="cls-6" d="M67.6,144.62l-.19,0Z"/><path class="cls-6" d="M89.87,147.52a.11.11,0,0,0,.06.07S89.9,147.54,89.87,147.52Z"/><path class="cls-6" d="M66.29,136.7l0,0S66.26,136.74,66.29,136.7Z"/><path class="cls-6" d="M59.93,141.49l.07-.09a.61.61,0,0,0-.07-.1Z"/><path class="cls-6" d="M116.54,131.63l0,0C116.45,131.8,116.5,131.72,116.54,131.63Z"/><path class="cls-6" d="M125.14,76c-.22.65-.21-1.07-.45-.1C124.77,75.78,125,76.77,125.14,76Z"/><path class="cls-6" d="M66.65,143.35l.26.11A1.23,1.23,0,0,0,66.65,143.35Z"/><path class="cls-6" d="M124.69,75.86h0l0,.1Z"/><path class="cls-6" d="M124.79,119.17s-.07.13-.1.22S124.74,119.31,124.79,119.17Z"/><path class="cls-6" d="M118.34,128.38l.18-.21A2.59,2.59,0,0,0,118.34,128.38Z"/><path class="cls-6" d="M124.5,113.56a1.21,1.21,0,0,0,0-.39.14.14,0,0,0,0,.06A.57.57,0,0,1,124.5,113.56Z"/><path class="cls-6" d="M124.5,107.73s0,.07,0,.11V108Z"/><path class="cls-6" d="M78.88,124.21a.92.92,0,0,1-.33.06C78.72,124.31,78.15,125,78.88,124.21Z"/><path class="cls-6" d="M66.46,143.37a.24.24,0,0,1,.19,0l-.18-.06A0,0,0,0,0,66.46,143.37Z"/><path class="cls-6" d="M122.83,113.32l0-.93C122.84,112.65,122.83,113,122.83,113.32Z"/><path class="cls-6" d="M108.51,94.47l-.1.19A.44.44,0,0,0,108.51,94.47Z"/><path class="cls-6" d="M122.84,109.64a1.91,1.91,0,0,0,.14-.52.28.28,0,0,0,0-.11Z"/><path class="cls-6" d="M78.55,124.27Z"/><path class="cls-6" d="M74.54,128.9c.64-.62.11-.49.13-.73.7-.79.49-.2.85-.35.42-.51.6-1,1-1.38,0,0,.13,0,.09.07.35-.64,1.47-1.45,1.86-2.22.06,0,.09,0,.12,0a.42.42,0,0,1-.36-.19c.28-.28.41-.64.64-.61-.18.16-.14.23-.18.35l.24-.35c.45-.07-.34.46-.21.6a12.93,12.93,0,0,1,1.54-1.82c.27.09-1,1.07-.23.66l-.75.6c.8-.23-.44.39.34.22,1-.83.92-1.08,1.87-1.91.1-.3-.21-.08-.11-.38,1.1-1.44,1.45-.53,2.16-1.7a1.48,1.48,0,0,1,.78-1.21l0,.43c.89-.84.21-.79,1.26-1.54-.09.24-.62.74-.47.63.76-.42.31-.53.76-1l.28.09c.9-.94,1.79-2.08,2.79-3.12,0,.11-.13.34.17.16a37.19,37.19,0,0,1,4.15-3.82l.32-.62c.11-.11.27-.13.18,0,.55-.42-.07-.12.11-.41s.45-.27.32-.05a17.74,17.74,0,0,1,3.24-3.42l-.13.22c.77-.62.48-1.1,1.28-1.6l-.1.16a49.31,49.31,0,0,1,4.55-4.16c0-.44,1.62-1.38,1.41-1.8a14.93,14.93,0,0,0,2.17-1.5,1.51,1.51,0,0,0,.34-.53,1.43,1.43,0,0,0,.15-.37,2.26,2.26,0,0,1,.18-.34l.19.12.28-.78.46-.18.27-.48c-.14.17-.35.32-.39.26a4.53,4.53,0,0,1,1.4-1.58c.31-.6.6-1.21.89-1.81.06.08-.09.39-.17.64.35-1,.31,0,.62-1-.11.08-.08-.14-.11-.18a8,8,0,0,0,1.24-2.09l.06.21a38,38,0,0,0,2-4.43c-.31.53-.51.3-.35-.16l.3-.1c0-.35-.26.45-.21-.23.24-.58.4-.3.35.07l.18-.75c.09,0,.06.16.13.24,0-.34.69-1.17.55-1.7l.08,0a14.3,14.3,0,0,0,.5-2c.09-.58.24-1.1.31-1.79-.2-.06-.07-.59-.18-1a13.92,13.92,0,0,0,.29-1.58l.12-.87c0-.1.1-.44.14-.69.06-.79-.13-.27-.16-.64.1,0,.22-.27.31-.47s.18-.3.15,0a11.62,11.62,0,0,1,.53-1.41,6.88,6.88,0,0,1,.9-1.46c-.18.06-.33.19-.31.07s.54-.4.56-.3l0,.06a2.23,2.23,0,0,1,2.4-.68c.76.25,1.21.91,1.8,1.36l-.07,0a7,7,0,0,1,.94,1.19c.27.66-.31-.32-.19.2a4.75,4.75,0,0,1,.54,1c.07.2.08.18.07.26l0,.48a11.45,11.45,0,0,0,0,2c-.61,1.13-.11,4.08-.53,5.62l.14-.09c.11.41-.1.49-.14.78.11,0,.14-.43.2-.18,0,3.4-.28,7-.44,10.47,0,1.28.69.74.37,2.33l-.24-.45c.29,2.57,0,5.25.23,7.76-.06-.15-.13-.15-.13-.4a3.61,3.61,0,0,0,.13,2c0,.39-.13.09-.2.33-.11.53.22,1.34,0,1.62,0,0-.06-.15-.08-.25.09.35,0,1.62.19,1.29-.1.94.09,1.81,0,2.56.24.49-.11,1.61.22,1.77-.34-.07-.28,1.65-.12,2.25-.1-.2-.11.52-.25.28,0,.68.07,1.31.24,1.19-.4,1.25.33,2.52-.19,3.22,0,.31.05.62.07.91s0,.3,0,.44a.5.5,0,0,0,0,.13l0,.07,0,0-.07.11-.27.44-.53.85-1,1.62c-.23-.25,1.15-1.65.81-1.8a29.58,29.58,0,0,1-2.29,3.81c-.3.33,0-.29.07-.45-.89,1.49-2,2.7-2.71,4.05,0,0,0-.18.12-.32-.17.26-.45.55-.31.61l.14-.27c.46-.26-.32,1.25-.25,1.36-.06-.67-1,1.17-1,.18-.09.18-.18.43-.07.45-.2.22-.3.26-.22-.05-.56.93-.2.71-.78,1.51-.06-.05,0-.22,0-.36a4.56,4.56,0,0,1-.87,1.62c0-.07-.11,0,0-.22a30.21,30.21,0,0,1-2.12,3.38c0-.56-.39.37-.67.28l-.42.73.31-.2a14.87,14.87,0,0,1-1.09,1.71l.23-.52-.76,1.16.54-.58c-.31.69.33.15-.3.9.09-.18-.43.59-.79.81h0a3.14,3.14,0,0,1-.66,1.1c-.15.07-.18-.27-.28-.23,0,.43-1,1.44-1,2,0-.16-.08-.25-.13-.23l0,.36c-.25.24-.3.26-.37.15-.62.81.48-.06-.35.84,0-.09,0-.07.09-.25a16.13,16.13,0,0,0-1,1.46l-.45.68c-.07.07-.1.2-.2.22l-.31,0c-.14-.12,0-.16.15-.19l.09,0,0-.08s0-.07-.08-.08-.16.06-.25.1l-.57.12-1.22.22a15.36,15.36,0,0,1-2.41.2l.29,0c-.2.41-1.16-.16-2,0,.2,0,.25-.23.2-.18a37.76,37.76,0,0,0-3.8.23l.2-.11c-.63-.09-1.66-.07-2.34-.13-.21.1-.6.08-.36.23-2.09-.62-4,.21-5.87-.33.22,0,.53-.08.35-.08l-1.59,0c.12.18.21.11.54.26a2.8,2.8,0,0,1-1,.14c.72-.09,0-.28-.3-.38,0,0-.06.11,0,.16-.82-.34-.15.34-1.28.09l.07-.08a7.64,7.64,0,0,1-1.28.09c-.18-.21.45-.08.49-.24-.64,0-1.28.33-1.86.11.28-.05.67,0,1-.08a2.76,2.76,0,0,0-1.17-.25h0L79,146l.27.07c-.82.48-1.64.05-2.73.32,1.06-.26.18-.18.27-.4-.26-.08-.67-.17-.55-.23-.52.16-.81-.23-1.55,0,0-.07-.52-.09-.39-.25-.64-.05.14.15.07.23-1,.1-2.26-.71-3.73-.79-1.25-.23-1.55-.08-2.7-.37-.33-.25.4-.14.4-.14a5.69,5.69,0,0,0-1.61-.62c.14,0,0-.12-.1-.26-.45-.17-.4.12-.95-.22a1.8,1.8,0,0,1,.56-.09c-.56-.15-1.13-.25-1.71-.41-.09-.18.41,0,.64,0a5.52,5.52,0,0,0-1.93-.43l.38.22c-.23-.08-.06-.21.13-.17.59.06.74.37.74.45l-.41-.12c.24.56,1.6.59,2.37.93l-.44.16.9.09c.15.14.2.35-.21.24.51.37.54.1,1,.45,0,0,0,0,0,0l.6.12c-.14,0,0,.24-.32.07,1,.55,1.72.36,2,.7h-.09c1.46.32.2-.17,1.35-.13l.58.74.2-.19c.15,0,.44.12.37.2.59,0-.08-.12.28-.19.68.37,2,.26,2.14.63.28-.14-.69-.21.11-.24.18.4.91,0,1.57.26-.22.19-.86,0-.19.26.43-.31,1.32.16,1.89.1,0-.27,1.24-.07,2.2-.12a26.49,26.49,0,0,0,2.66.35l0,0c.18-.27,1.09-.18,1.76-.21,0,.16-.15.22-.52.28l.63,0a1.77,1.77,0,0,1,.75-.14l-.16.2a16.67,16.67,0,0,1,2.75,0c.07-.19-.83-.56.3-.66,0,.11.08.29-.22.32a1.53,1.53,0,0,1,.55,0l-.46.17c.48.09.26-.14.65-.12,0,.15.28.12.22.23s-.34-.07-.49,0a3.37,3.37,0,0,1,1.15.26c0-.09,0-.2.32-.22.84,0,.29.19.77.28.21-.1.74,0,.75-.2a.48.48,0,0,1,.38.17c.44-.09,2,0,1.54-.24l-.11,0h.07c1.42-.21,2.94.15,4.35,0v.07a16.35,16.35,0,0,0,2.46-.27c.25,0,.59.12.49.21a5.51,5.51,0,0,1,1.64-.12c-.64.19.24.11-.65.14a4.05,4.05,0,0,0,1.93-.19c-.15.12,0,.16.28.15a5.43,5.43,0,0,0,.58-.06,1.45,1.45,0,0,0,.3-.06l.14-.23c-.15.3-.55.15-.8.18l.44-.08h.11l.07-.09.12-.17.43-.58.08.32c1.24-1.2,1.37-2.79,2.53-3.55.12-.47-.63.68-.57.23a13.78,13.78,0,0,1,1.4-1.27c.73-.79.28-1,1-1.88-.16.06-.43,0,0-.7s.87-.56.64-.12c-.11.16-.18.21-.2.19-.12.22-.29.52,0,.32v-.13c.3-.27.92-1.15.89-.86.28-.53,0-.29-.26,0,.69-.74.91-1.27,1.58-2.07-.13.11-.3.17-.21,0,1-1.17.25-.64.82-1.5.45-.4.14.36.65-.55.44-.46.27,0,.18.27a7.77,7.77,0,0,1,1.46-1.78l-.23.44a5,5,0,0,1,.42-.66l-.31.13c.2-.22.34-.42.4-.38.08-.31-.38,0-.16-.56.3-.26.61-1,.88-1-.78,1,.27,0-.3.89a3.12,3.12,0,0,1,.43-.6s0,.07,0,.14c.85-.83.1-.59.81-1.58,0,.21.36-.08.46-.26-.29.4-.32.07-.14-.36.53-.57.43-.73.67-1.05l-.31.34c0-.2.23-.51.51-1,.11,0-.23.44-.08.31.16-.63,1-1,1.35-1.74.3-.26.22.11.47-.13.41-.86.74-.72,1.2-1.61-.31.13-.31.2,0-.47l-.85,1.39.4-1c-.29.4-.51.91-.71,1.13.17-.49.18-.42-.08-.31.61-.39.65-1.18,1.25-1.7l.34.27c.84-.83,1-1.81,2-3l-.34.35a1.07,1.07,0,0,1,.28-.54l.25-.34.12-.17.15-.23c.05.07.18,0,.35-.17s.07-.28.1-.42c0,0,0-.13,0-.24s0-.25,0-.4-.06-.61-.21-.68l.2-.68c.08-1.22-.42-1.39-.37-2.57.16.36.26-.18.38.61,0-.39,0-.75-.08-.75.1-.23-.19-1.09-.05-1.45a1,1,0,0,1-.21-.66s.07,0,.07,0-.1-.69-.26-.3c.46-1.21,0-3.38.37-4.43,0-.86-.1-1.89-.11-2.67.05,0,.08,0,.06.15.14-1.07-.42-.66-.27-1.88.24-.62.13.65.22.26.49-.16-.06-1.47.22-2.29l0,.2a20,20,0,0,0-.14-2.56s0,0,.07,0a14.36,14.36,0,0,1-.4-3c.19.31.1.45.3.26,0-.44-.31.13-.37-.75.11-.29.2-.93.41-1v.84c.26-.43,0-1.08,0-1.52l.11.06c0-1.28-.33-1.3-.31-2.67l-.08.14c-.3-.75.16-.63-.06-1.38l.3-.22c-.07-.49-.28-1.74-.34-2.62a14,14,0,0,1,.46,2.19,7.86,7.86,0,0,0-.16-1.93,2,2,0,0,1,0,.65,6.63,6.63,0,0,1-.34-2.38c.55.18.2-2.54.68-3.24-.14-1.73.22-3.42.26-5.43-.47.7,0-.58-.45-.48,0-.46,0-.64,0-.68l.32-1.41c.15-.33.09.45.19.41.08-1,.21-.43.36-1.1-.09.07-.14,0-.16-.21l0-.15v-.25a2.42,2.42,0,0,0-.12-.69c0,.06,0,.2,0,.32a.78.78,0,0,1,0,.37,1.41,1.41,0,0,1-.06.27l-.06.21a4.39,4.39,0,0,1,0-.56,4.72,4.72,0,0,0-.12-.52A4.56,4.56,0,0,1,125,72a2.25,2.25,0,0,0-.53-1.36,4.49,4.49,0,0,1,.36.39,11.47,11.47,0,0,0-1.07-1.65,3.26,3.26,0,0,0-1.68-1.2c-.12-.12-.26-.34.13-.16a3.49,3.49,0,0,0-1.72-.54,4,4,0,0,0-1.76.34,8.18,8.18,0,0,0-2.35,1.73l0-.19c-.24.31-.23.64-.59,1,0,0,0-.19-.11,0s-.11.33-.22.59a3.78,3.78,0,0,1-.33.76l.06-.42a5.25,5.25,0,0,0-.66,2.24l0,1a1.31,1.31,0,0,0,0,.2V75c0,.16,0,.33,0,.51-.33,0-.51,1.27-.7,1.9l0,0c-.32,1.9-.41,3.29-.83,5.08-.69,1-1.5,3.54-2.52,5.08.18-.23.2.15.08.46s-.34,1.16-.58,1l.08-.14c-.41.15-.78,1-1.13,1.54l.29.3c-1.39,1.26-2.4,4.12-3.42,4.57-.08.31-.54.69-.77,1.08l-.13-.17c-.91.82-1.37,1.23-2.41,2.32l.11-.32c-.62.59-.34,1.19-.89,1.75l-.4-.06A23.67,23.67,0,0,0,98.07,103s0-.15.12-.33c-.51.49-2.09,1.75-1.6,1.88-.21-.19-1.12,1.06-1.61,1.71l-.06-.23a3.83,3.83,0,0,1-.88,1.45c-.18.14-.26,0,0-.15-.61.44-.28.55-1,1.1l.14-.33a1.93,1.93,0,0,0-.66,1c-.29.39-1.08,1-1.29.93a1.43,1.43,0,0,1-.55.84c-.1,0,0-.16,0-.23-1,.8-1.2,1.51-2,2a.17.17,0,0,0-.19,0c.73-.72,1.33-1.29,1.28-1.22-.13-.14-.75.41-.46-.24a9.31,9.31,0,0,1-1.6,2.09.28.28,0,0,1-.13,0l.05-.07a1.35,1.35,0,0,0-.34.38,4.33,4.33,0,0,0-.52.42c-.18,0-.74.61-1,.89.17.13-.24.48.25.25-.06,0,0-.07.23-.27a1.1,1.1,0,0,0,.11-.14v0l.72-.73a1.9,1.9,0,0,1-.74.85c-.06.24-.13.51-.18.64-.61.19-1.49.84-1.73.82a14,14,0,0,0-2.35,3c-.22.28-.37.2-.51.25a3.12,3.12,0,0,0,.34-.46c-.44.58-1.49,1.52-1.42,1.84-.73.54.19-.54-.67.36l.06-.18c-2,1.4-2.33,3.28-4.66,4.77.16-.1.23-.16.29-.15-2.37,2-4.37,4.62-6.82,6.47a3,3,0,0,0-.9,1.2l-.29,0-.46.82c-.78,1-2,1.16-2.87,2.55l.25,0c-.43.39-1.25,1.36-1.3,1.17a.46.46,0,0,1-.25.34l-.09-.07-.88,1.15c-.85.71-.21-.46-1.38.66-.39.45-1,1.44-.76,1.34s.49-.38.59-.31l-.35.43c.17.32.12.87,1.26.1l.52-.81.33-.09-.55.56a1.44,1.44,0,0,0,.69-.79.63.63,0,0,0,.41-.15l.43-.88c.18,0-.11.48.39.1.2-.41-.51.07-.07-.5.43-.2.43,0,.71-.48.12,0,.08.13-.05.3.26-.4.86-.9.9-1.2.47-.19,1.1-1.15,1.3-.88A4.32,4.32,0,0,1,67,135.6c-.29.83,1.17-1.12,1.31-.67.17-.66,1.4-1.59,2-2.45a.44.44,0,0,1-.14.23,5.23,5.23,0,0,1,.94-.64c-.15-.27.45-.95.67-1.42.71-.3-.07.55.29.59-.2-.15.71-1,.4-1,.51-.26.4-.27.77-.29-.19-.33.32-.4.48-.88.69-.43.39.1.93-.59C75,128.27,74.54,128.9,74.54,128.9ZM88.82,114h0l-.29.31C88.59,114.24,88.67,114.15,88.82,114Zm1.23-1.22-.54.52c-.09,0-.1-.11,0-.23C89.51,113.17,89.83,112.92,90.05,112.78Zm-3.64,1.53c.18-.22.27-.25.33-.25l-.32.36v0A.38.38,0,0,1,86.41,114.31Z"/><path class="cls-6" d="M86.26,114.85l-.07.09.15-.08,0-.12Z"/><path class="cls-6" d="M93.63,147.31h0l-.08,0Z"/><polygon class="cls-6" points="107.45 96.13 107.4 96.1 107.34 96.26 107.45 96.13"/><path class="cls-6" d="M84.11,146.33a.31.31,0,0,0-.13-.06Z"/><path class="cls-6" d="M80,146.13l-.58-.1Z"/><path class="cls-6" d="M76.83,145.9a.44.44,0,0,0-.07.08h0Z"/><path class="cls-6" d="M117.07,127.73l.06-.1C117.26,127.37,117.16,127.54,117.07,127.73Z"/><path class="cls-6" d="M108.75,140.23a3.07,3.07,0,0,1,.2-.45C108.78,140,108.65,140.15,108.75,140.23Z"/><polygon class="cls-6" points="122.83 113.42 122.83 113.42 122.83 113.32 122.83 113.42"/><path class="cls-6" d="M109.35,139.21a2,2,0,0,0-.4.57A3.88,3.88,0,0,0,109.35,139.21Z"/><path class="cls-6" d="M63.89,142.17l-.14-.07s0,0,0,0Z"/><path class="cls-6" d="M63.72,142.13l-.17,0A.33.33,0,0,0,63.72,142.13Z"/><path class="cls-6" d="M63.2,142l.35.08A.59.59,0,0,0,63.2,142Z"/><path class="cls-6" d="M67.74,143.84l.07-.06A.11.11,0,0,0,67.74,143.84Z"/><path class="cls-6" d="M68.92,144.26a6,6,0,0,0-1-.52l-.06,0C68,143.75,68.61,144.28,68.92,144.26Z"/><path class="cls-6" d="M73.82,146.51c-.36-.08-.71-.16-1.06-.26.17.12.4.28-.09.2C74,147,72.42,146.24,73.82,146.51Z"/><path class="cls-6" d="M77.15,147c-.58,0,0,.12,0,.16C77.49,147.07,77.58,147.05,77.15,147Z"/><path class="cls-6" d="M101.13,147.4l0,.2C101.53,147.54,101.08,147.52,101.13,147.4Z"/><path class="cls-6" d="M104.8,145.41l-.35.28a.87.87,0,0,0,0,.25Z"/><polygon class="cls-6" points="107.49 144.01 107.4 144.18 107.77 143.54 107.49 144.01"/><path class="cls-6" d="M124.69,108.77l-.24.13C124.49,109.2,124.76,109.27,124.69,108.77Z"/><path class="cls-6" d="M124.47,91.41a1.45,1.45,0,0,0,.08-1A9.18,9.18,0,0,0,124.47,91.41Z"/><polygon class="cls-6" points="108.46 91.25 108.57 90.92 108.29 91.5 108.46 91.25"/><path class="cls-7" d="M150.38,41.19l-29.54,42a52.93,52.93,0,0,1-3.92,5.09c-2.08-.1-8.58,2-13.12,4.44A21.9,21.9,0,0,0,93.58,105.1a3.63,3.63,0,0,0,3.61,2,3.81,3.81,0,0,0,2.49-1.46c1.32-1.68,4.77-5.45,8.12-4.3,2.12,1.38,3,.76,2.66,9.63s.12,18.65.12,18.65,4.8,7.3,7.3-2.56c-.12.46,5.75,2,6.9-5.36a5.25,5.25,0,0,0,6.05-5.4,38.15,38.15,0,0,1,2.48-6.4c15.93-20.4,33.13-31.4,49.07-51.8-2.11-1.7-10.24-7-13.55-8.43C152.3,41.49,150.38,41.19,150.38,41.19Z"/><path class="cls-7" d="M150.39,41.1a7,7,0,0,1,.73.31l.3-.09C151.08,41.24,150.75,41.15,150.39,41.1Z"/><path class="cls-7" d="M153.55,43.08l1.25.46c-.47-.81.41-.26-1.34-1.45-.71-.22-2.27-.63-2.15-.35a10.94,10.94,0,0,1,2,.63c-.37,0-1.13-.32-1.57-.27,1.09.63.78.17,2,.78Z"/><path class="cls-7" d="M155.21,43.21c-.15,0-.3.07-.31.15C155.05,43.33,155.69,43.48,155.21,43.21Z"/><path class="cls-7" d="M156,43.49c.76.37-.09.18,0,.25l1,.07Z"/><path class="cls-7" d="M159.13,45l.37.13C159.4,45,159.28,45,159.13,45Z"/><path class="cls-7" d="M160.7,45.67a3.2,3.2,0,0,0-1.2-.56l0,0c.39.3-.13.33-.8-.06s-.59-.49-1.3-.63l.79.59A9.56,9.56,0,0,0,160.7,45.67Z"/><path class="cls-7" d="M159.13,45l-.42-.18A1,1,0,0,0,159.13,45Z"/><polygon class="cls-7" points="157.55 44.21 157.14 44.07 157.19 44.22 157.55 44.21"/><path class="cls-7" d="M163.29,46.89c-.33.22-1.83-.92-2.15-.77,1,.47,1.73,1.09,1.42,1.16l1.17.44C164.17,47.79,163.8,47.32,163.29,46.89Z"/><path class="cls-7" d="M165.11,48.75a1.26,1.26,0,0,1,.28.07A.72.72,0,0,0,165.11,48.75Z"/><path class="cls-7" d="M171,51c-.91-.37-1.81-.68-2.74-1a1.23,1.23,0,0,1,.85.11c-1.14-.58-1.39-.48-2.33-1-.15-.44,1.7.81,1.27.27a7.56,7.56,0,0,0-2.36-.82l-1-.72.2.49c.39.31,1,.18,1.16.54.07.2-.38,0-.7-.11.72.27,1.79,1.2,3.22,1.83S170,50.65,171,51Z"/><polygon class="cls-7" points="170.92 51.4 171.02 51.62 171 51.39 170.92 51.4"/><path class="cls-7" d="M173.89,52.6,172.48,52a.94.94,0,0,1-.23-.33c0,.1-.41,0-.39.1.44.63,1.65.85,2.37,1.23,1.75,1.25-.17.1.38.79-.51-.32-.49-.4-1.19-.85a11.13,11.13,0,0,0,3.26,2,2.08,2.08,0,0,0-.6-.5l.79.38A10.57,10.57,0,0,0,173.89,52.6Z"/><path class="cls-7" d="M171.55,51.23c.51.26.67.39.7.45C172.16,51.53,172,51.38,171.55,51.23Z"/><path class="cls-7" d="M177.06,55.17a1.57,1.57,0,0,0-.38-.24A2,2,0,0,0,177.06,55.17Z"/><path class="cls-7" d="M176.55,54.38l.87.61-.27-.36C177,54.57,176.57,54.3,176.55,54.38Z"/><path class="cls-7" d="M158.7,82.12c.16,0,.49-.19,1.07-.78,0,.2-.75.91-1,1.32.87-.67.13.16.44.09.89-.82,1.13-1.35,2.1-2.21,0,.07.06.11.22,0a48.41,48.41,0,0,1,4-4.07,33.21,33.21,0,0,0,2.89-3c3.8-3.71,7.44-7.87,11.21-12.16l.24-.84c.31-.11.85-1,.92-.79a8.77,8.77,0,0,0-.62.76,9.08,9.08,0,0,0,1.51-1.68l.32-.45.16-.21c.06,0,0-.06-.05-.09L182,58c-.3-.22-.54-.39-.84-.65.1.15.11.53-.27.32.32-.25-1.4-1-1.52-1.58-1.15-.91-.23.24-1.46-.65-.26.09,1.15.89,1.29,1.19-.5-.12-1.1-.83-1.18-.6.49.36,1.11.76,1.8,1.21l1.09.69a1.81,1.81,0,0,0,.32.19c.05,0,.19.07.19.13s-.79,1.17-1.31,1.92-1.14,1.6-1.74,2.32l.1-.43c-.57.77-1.35,1.75-2.15,2.64A16.35,16.35,0,0,1,174,66.81c.39-.13-2,2-1.46,2.09a6.88,6.88,0,0,0-1,.87l0,.23c-.68.71-.73.44-1.49,1.27.64-.4.12.23,0,.58-1.06.76-2.25,1.69-3.18,2.38a1.28,1.28,0,0,0,.56-.26c-.59.5-.37.54-.47.73-.52.54-.64.3-.71.19-1,.9-1.14,1.68-2,2.28l.39-.11c-1,1-2,1.7-3.08,2.83-.73.33.77-1.06,1.15-1.6a9.64,9.64,0,0,1-1,.72c-.39.56-1.06,1.48-1.58,2.15C160.54,80.38,159.11,81.77,158.7,82.12Z"/><path class="cls-7" d="M161.76,79c.11-.16.2-.3.25-.39a3,3,0,0,1-.36.38S161.7,79,161.76,79Z"/><path class="cls-7" d="M158.7,82.12h0C158.56,82.24,158.6,82.22,158.7,82.12Z"/><path class="cls-7" d="M165.68,76.38l-.16.13-.19.18Z"/><path class="cls-7" d="M165.88,74.92c.26-.17.62-.4,1-.69C166.72,74.26,166.6,74.29,165.88,74.92Z"/><path class="cls-7" d="M172.7,68.25c.17-.24,0-.16.1-.35C172.39,68.34,172.29,68.52,172.7,68.25Z"/><polygon class="cls-7" points="160.49 80.16 159.66 81.03 159.39 81.37 160.49 80.16"/><path class="cls-7" d="M143.93,97.78a28.77,28.77,0,0,0,2.8-2.69c1.59-1.78-.15-.58,1.42-2.21l.07.63a49.56,49.56,0,0,0,5-5.4c.16-.08.5-.3.13.16,1.07-1.06.08-1,1.64-2.32-1.14,1.51.65-.21.49.36l-.19.23c.9-.9,2-2.18,2.64-2.74-.07-.12-.73.25.08-.54-.35.3-.32.07-.38-.05-.75.9-1.26,1.27-1.66,1.88-.59.33.28-.34-.31,0l-.57.76c-.53.44.4-.61-.4.1a5.74,5.74,0,0,1-1.2,1.4l.13-.21c-.42.49-1.13,1.06-.71,1l-.74.33.22,0c-1.32,1.16-2.1,1.31-3.56,3.07.43-.34.14.08,0,.3.76-.57.73-.91,1.36-1.56.22,0-.71,1.27.15.58-1,.68-1.6,1.6-2.29,1.63-1,1-1.26,1.55-2.36,2.52l0-.08c0,.41-.94.75-1.45,1.76l.58-.51c.07.11-.19.39-.53.78,0-.08,0-.08-.16,0,0,.27-1.06,1.49-1.15,1.68.5-.47.95-1.22,1.47-1.84C144.21,97.27,144.43,97.31,143.93,97.78Z"/><path class="cls-7" d="M153.9,86.73l-.26.4A1.12,1.12,0,0,0,153.9,86.73Z"/><path class="cls-7" d="M139.22,102.32c-.65.66,0-.31-.62.27-.5.82.94-.6.51.24a7.57,7.57,0,0,0-1.13,1.48c.17-.4-.21-.41-.36-.32a14,14,0,0,1-1.2,1.29c1.11-1-.74,1,.29.13a4.47,4.47,0,0,1-1.19,1.7c-.07-.12.24-.46.47-.75,0-.4-.69.65-1,.68-.32.67-1.2,1.84-1.83,2.85-.42,1.09-.61,1.88-.11,1.4a6.21,6.21,0,0,0,.54-1.25c-.69,1.18-.29-.15-.24-.31.46-.43,1-1.38,1-1.07l-.47.9c2.07-2.43,4.81-5.82,7.25-8.56l-1.07,1.17a5.58,5.58,0,0,1,.85-1.28l-.78.35c.33-.33.58-.69.65-.57.27-.52,0-.39-.29-.22a9.85,9.85,0,0,0,1.44-1.81c-1.55,1.26-.95,1.4-2.66,2.91Z"/><polygon class="cls-7" points="141.99 98.98 141.8 99.46 142.22 98.86 141.99 98.98"/><path class="cls-7" d="M142.05,100.07c-.08,0,.09-.27,0-.31C141.42,100.41,141.57,100.4,142.05,100.07Z"/><path class="cls-7" d="M134.22,108l-.7,1,.54-.56C134,108.35,134.14,108.1,134.22,108Z"/><path class="cls-7" d="M131.41,115.83a14.52,14.52,0,0,1,1.41-3.92c.16-.92-.56.22-.6-.22-.41.84,0,.88-.28,1.79-.31.27-.45,1.33-.74,2.18C131.31,115.58,131.39,115.6,131.41,115.83Z"/><path class="cls-7" d="M128.55,120.45a4,4,0,0,1-1.78.88c0-.14.44-.29.84-.43-.34-.17-.71.34-1.5.27.07,0,.35,0,.15.12l-.6.06h-.29c-.09,0-.14.12-.2.16l.06.26H125c-.07,0-.16,0-.2-.07h0l-.21-.29h0v0l0,.07,0,.14-.08.31a6.54,6.54,0,0,1-.15.71,5.46,5.46,0,0,1-.35,1c0,.37-.22.69,0,.72a3.59,3.59,0,0,1-.77.85,8.15,8.15,0,0,1-1,.78c.11.06.69-.14.86,0a7.15,7.15,0,0,1-2.13,1.18,2.93,2.93,0,0,1-1.72.13c.18,0,.39,0,.81-.06-.11-.15-.39-.11-.76-.09-.19,0-.37,0-.64,0a1.77,1.77,0,0,1-.17.12l-.16,0a.71.71,0,0,1-.29-.14.07.07,0,0,1,0-.08l0,0,0,0v0a2.84,2.84,0,0,0-.49.25c-.06.26-.14.63-.2.84s-.11.44-.19.65a4,4,0,0,1-.61,1.14,2.46,2.46,0,0,0,0-.26c-.33.92-1,1.92-1.86,2.09a3.13,3.13,0,0,1-2.44-1,8.13,8.13,0,0,1-.52-.78l-.41-.41s-.07,0-.07,0a3.32,3.32,0,0,0,.39.59c.4.55,1,1.11.14.65.14-.4-.45-.62-1-1.24a4,4,0,0,1,0-1.1c.18-.67.16,1.43.37.68-.28-.3-.11-.75-.21-1.51.25.16,0-1.57.28-1.12l-.53-2.64a6,6,0,0,0,.05-1.77c0,1.44-.38-.39-.47,1.23.11,1.63.24,3.92.33,6.3a8.85,8.85,0,0,0,2.1,2.23c.24-.06.64.2,1.13.33a1.3,1.3,0,0,0,1.22-.16,1.89,1.89,0,0,0,.48.13,1.7,1.7,0,0,0,.6-.52c0-.06-.06,0-.2.08s-.71.32-.54.16c.69-.43,1.18-.93,1.26-.77.78-1.17,0-.19.22-.88a8.8,8.8,0,0,0,.73-.64c.12-.3.23-.6.33-.92,0-.16.09-.32.14-.49s.06-.23.09-.36l.1-.43a.09.09,0,0,0,0,.07,3.77,3.77,0,0,0,2.14.14,5,5,0,0,0,2.27-1.06,7.61,7.61,0,0,0,2.31-4.33l.08-.4a1,1,0,0,0,.42.09,6,6,0,0,0,1.17-.06,2.87,2.87,0,0,1-.4-.18,4.28,4.28,0,0,0,2.56-1.13,14.77,14.77,0,0,0,1.68-2c0-.23,0-.45,0-.67,0,.38.45-.27.44.33a7.79,7.79,0,0,0,.25-1.86,8.75,8.75,0,0,1-.24,1.08,5.89,5.89,0,0,1,0-1.13,1.39,1.39,0,0,1,.37-.66c.12-.81-.05-.62-.28-.17a5.55,5.55,0,0,0-.36.8,1.81,1.81,0,0,1-.19.57,2.39,2.39,0,0,1-.62,2c-.38.38-.74.69-1.43,1.32C127.37,121,128.53,120.33,128.55,120.45Z"/><path class="cls-7" d="M130.71,118.59a1.41,1.41,0,0,0,.06-.35Z"/><path class="cls-7" d="M110.54,122.13c0-.17,0-.37,0-.64S110.5,121.62,110.54,122.13Z"/><path class="cls-7" d="M131.2,115.66a0,0,0,0,0,0,0h0Z"/><polygon class="cls-7" points="130.97 114.44 130.78 115.02 130.91 114.95 130.97 114.44"/><path class="cls-7" d="M110.81,115.72h-.12C110.73,115.77,110.77,115.79,110.81,115.72Z"/><path class="cls-7" d="M105.88,100.61l.42,0A2,2,0,0,0,105.88,100.61Z"/><path class="cls-7" d="M113.24,89.24c1.06-.38,2.5-.79,3.32-1a.75.75,0,0,1-.07.12l.29,0s.12,0,.16,0l.11-.16c.14-.21.28-.42.38-.61.2-.36.23-.56-.26-.15l-.11.3c-.15.23-.27.43-.43.36s-.25,0-.38-.06a2.11,2.11,0,0,0-1-.1c-1.37.34-2,1-3.17,1.26-.5.17-.46,0-.34-.11a12.83,12.83,0,0,0-2.26,1.18c-.31-.38-1.17,0-2.15.54a10.91,10.91,0,0,1-3,1.34,16.48,16.48,0,0,0-3.4,2.34c.47-.67-1.09.83-1,.43,0,.36-.81,1-1.54,1.71s-1.39,1.5-1.19,1.82c-1.31,1.47,0,.06-1.43,1.86-.06,0,.14-.37.21-.51-.61.7-.47,1.33-1.1,1.83-.86,1.6,0,.36-.27,1.4a10,10,0,0,1-.72,1.33,3.76,3.76,0,0,0-.62.9c.48.14,1,1.16,1.91,1.49-.23-.09-1.1-1-.41-.54a2.15,2.15,0,0,0,1.65.65,4.57,4.57,0,0,0,1.57-.41c.48,0,.09.19-.28.29s-.66.14.18.07a4.18,4.18,0,0,1-2.89.07,3.41,3.41,0,0,0,2.86.34,4.26,4.26,0,0,0,2.24-1.92c.71-.77-.22.52.34-.09,1.33-1.26,1.74-2.33,3.1-3l-.16.33a4.05,4.05,0,0,1,1.92-1,4.46,4.46,0,0,1,2.67.11c-.11-.2-.26-.3,0-.26-.12.21.43.45,1.17.82a2.41,2.41,0,0,1,1,1,2.9,2.9,0,0,1,.31,1.36c.29-.2.67,1.5.69,2.57-.08.37-.2.29-.28.29.12-1.74-.35-1.69-.69-3,.38,1.07.23,3,.44,4l-.23-.39c0,1.57.51,1.39.24,3l-.17-.17c-.11,3.32-.43,7.23,0,9.88.14.23.47-1.11.58-1.18-.13-1.58-.38-2.5-.49-3.71l.27,0c-.18-.28-.27-1.74-.42-.93-.13-1,.25-.74.12-1.88.28.1.29.77.52.79l-.11-1c.1.31.11-.6.21-.29-.29-1.83.23-2.55.1-4.46L111,109c-.15,0-.12-.62-.17-1.07a4.94,4.94,0,0,0,.25-1.82c-.18-.86-.44-1.31-.72-2.44.17.09.12-.41-.14-1s-.85-1-.87-1.17a3,3,0,0,1-1.15-.49l-.21-.13a.78.78,0,0,0-.25-.07l-.38-.09a.64.64,0,0,0-.44,0c-.67,0-1.54.13-1.56,0s.27-.1.48-.14c-.22,0-.44.08-.66.12.06,0,0-.07.1-.09-.58.16-.52.34-1.25.51,0-.07.33-.26.65-.38a4.92,4.92,0,0,0-1.78,1.08A8.63,8.63,0,0,1,101.5,103c-.11.24-1.28,1.46-.79,1.42-.38.25-.47-.05-1.22.93-.22.7-.92.87-1.61,1.32.47-.35.43-.39.41-.39s0,0,.26-.37a8,8,0,0,1-1.12.61,2.3,2.3,0,0,1-1.68,0c-.09-.11-.06-.18-.14-.29-.42-.09-1-.3-1.16-.81l-.1.17a5.46,5.46,0,0,1-.32-.5c-.06-.08,0-.17.06-.25l.13-.34A7.51,7.51,0,0,1,95,103c0-.41.13-.82.21-1.23a26.33,26.33,0,0,0,2.64-4.39,4.39,4.39,0,0,1,1.13-1c-.07.11-.2.32-.36.55.61-.64,1.54-1.19,1.71-1.74.65-.63.65-.25,1.2-.62a6.38,6.38,0,0,1,1.25-1c.52-.29,1.06-.6,1.61-.84,1.07-.49,2-.89,2.14-1.29A26.55,26.55,0,0,0,103.28,93c.29-.25,0-.22.43-.49,1.27-.7,2-.79,3.32-1.47v.44C109.42,90.87,111.21,89.22,113.24,89.24Z"/><path class="cls-7" d="M97.69,98.14l.82-.65-.21,0A3.68,3.68,0,0,1,97.69,98.14Z"/><path class="cls-7" d="M98.3,97.46c.12-.17.24-.34.34-.5a2.79,2.79,0,0,0-.39.49Z"/><path class="cls-7" d="M117.26,88.22a6.48,6.48,0,0,0,.77-.9A4.7,4.7,0,0,0,117.26,88.22Z"/><polygon class="cls-7" points="117.98 87.18 117.59 87.55 117.58 87.63 117.98 87.18"/><path class="cls-7" d="M135.32,62.15l.76-1.51c.27-.17,1.23-1.8,1.06-1.18.33-1,1.81-2.59,1-2.18-2.7,4.1-6.8,9.5-9.75,14.35l.38-.84c-1.42,2.6-2.63,3.1-3.44,5.41l-.1-.45c-.86,1-1.08,2.4-2.19,3.35l.2,0c-.22.31-.36.39-.58.7l.14-.09a9.09,9.09,0,0,1-1.45,2.11c-.13,0,.22-.4.37-.66a12.9,12.9,0,0,0-1,1.68c-.42.43-.12-.1-.12-.19-1.16,2-2.06,2.54-2.65,4.11,0,.18.5-.35,0,.32a13.77,13.77,0,0,0,2.3-3.36L120,84c.22-1.16.56-.61,1.39-2.16a14.81,14.81,0,0,1-.62,1.42c1.47-1.43,1.42-2.52,2.58-3.33l-.07.13A6.11,6.11,0,0,0,124,79a6.71,6.71,0,0,0-.63.65,1.69,1.69,0,0,0,.19-.89c.48-.3.31-.62.87-1.23.33-.13-.24.67-.33,1l.46-.89c.5-.74.69-.6,1-.9.31-.72-.35.3-.17-.33a38.2,38.2,0,0,0,4.06-5.8c-.37.57,0,.32-.47,1,.22-.22.74-1.15.61-1.24a22.26,22.26,0,0,1,2.6-3.52l-.34.22c.4-1,1.71-2.1,2.67-3.74l0,0a9.07,9.07,0,0,1,1-2C135.49,61.61,135.13,62.09,135.32,62.15Z"/><path class="cls-7" d="M138.85,56.5l-.18.63c.43-.53.68-1.38.49-1.34-.22.4-.65.83-.59,1C138.64,56.72,138.7,56.76,138.85,56.5Z"/><path class="cls-7" d="M146.1,46.13c.1-.23,0-.23,0-.35-1.52,2.21-3.36,5-4.11,5.74-.57.7-.4,1-1,2l-.47.3c-.24.58-1.51,2-.84,1.64a4.4,4.4,0,0,1,.53-.93l.05.14.66-1-.1.4c1.13-1.22.29-1.21,1.57-2.78l.25.19a19.63,19.63,0,0,1,1.94-2.59s-.12-.1-.2.12-.42.35-.41.17c1-1.82,0,.36.9-.73a27.33,27.33,0,0,1,3.35-5c-.62.56-.08-.55.49-1.34.35-.3,0,.36,0,.54a6.32,6.32,0,0,0,.79-1c-.48.38-.45-.07.07-1C148.06,42.4,147.47,44.24,146.1,46.13Z"/><path class="cls-7" d="M146.28,45.41a.79.79,0,0,0-.17.37c.18-.26.36-.52.52-.77Z"/><ellipse class="cls-8" cx="171.59" cy="47.26" rx="7.75" ry="11.17" transform="matrix(0.04, -1, 1, 0.04, 117.77, 216.91)"/><polyline class="cls-2" points="147.93 90.73 148.78 89.96 149.61 89.18 150.56 88.51 151.44 87.78 152.29 87.02 153.09 86.19 153.97 85.46 154.9 84.78 155.81 84.09 156.56 83.21 157.52 82.57 158.43 81.87 159.17 80.96 160.18 80.38 160.94 79.5 161.83 78.78 162.68 78.01 163.66 77.39 164.44 76.53 165.28 75.74 166.14 74.99 167.12 74.37 167.87 73.47 168.83 72.83 169.64 72.01 170.44 71.17 171.38 70.51 172.27 69.78 173.08 68.97 174.04 68.32 174.92 67.59 175.71 66.74 176.66 66.09 177.48 65.28 178.39 64.56 179.27 63.82 180.13 63.05 181.02 62.33 181.82 61.48 182.64 60.67 183.61 60.02 184.37 59.12"/><polyline class="cls-2" points="117.91 109.07 117.93 109.84 117.96 110.6 117.99 111.37 118.04 112.14 118.07 112.92 118.03 113.69 118.05 114.46 118.05 115.23 118.09 116 117.99 116.78 118 117.54 117.97 118.31 117.94 119.08 118 119.85 117.98 120.63 117.95 121.4 117.81 122.17 117.76 122.94 117.71 123.72 117.63 124.49 117.63 125.27 117.53 126.03 117.38 126.8 117.25 127.55 117.12 128.31"/><polyline class="cls-2" points="125.98 105.7 126.03 106.48 125.98 107.26 126.02 108.04 126.06 108.82 126.14 109.6 126.14 110.38 126.1 111.17 126.16 111.95 126.14 112.73 126.12 113.51 126.08 114.29 126.05 115.07 126.03 115.85 126.05 116.63 125.97 117.41 125.91 118.2 125.91 118.99 125.83 119.77 125.73 120.55 125.62 121.33 125.52 122.11 125.41 122.88 125.3 123.66"/><path class="cls-6" d="M142.62,103.59a8.11,8.11,0,0,0,5.7-2.49c3.61-3.78-.36-10.47-3.51-13.23-1.21-1.05-3.08-2.06-4.7-1.19a3.54,3.54,0,0,0-1.67,2.22,6,6,0,0,0,.67,4.61l4.55,7.95Z"/><path class="cls-6" d="M142.17,103.37c.05,0,.18.1.19,0l-.21-.16Z"/><path class="cls-6" d="M142.78,103.17a.75.75,0,0,0-.45-.35c.18.17.08.14.3.34,0,.07-.12.07-.2,0s-.1.07,0,.17.26-.09.17-.26A.28.28,0,0,1,142.78,103.17Z"/><path class="cls-6" d="M141.69,97.32v.05A0,0,0,0,0,141.69,97.32Z"/><path class="cls-6" d="M139.82,93.76a0,0,0,0,0,.06,0S139.83,93.74,139.82,93.76Z"/><path class="cls-6" d="M139.72,93v0S139.74,93,139.72,93Z"/><path class="cls-6" d="M141.69,97.32l0-.13C141.63,97.22,141.68,97.26,141.69,97.32Z"/><path class="cls-6" d="M142.63,102.1s0,.05,0,.08v-.06Z"/><path class="cls-6" d="M142.75,98.76v0l.1,0Z"/><path class="cls-6" d="M143.46,99.92s-.2.06-.29.1c.09,0,.13,0,.16,0Z"/><path class="cls-6" d="M143.54,102.2v0Z"/><path class="cls-6" d="M142.3,97.89l.06,0Z"/><path class="cls-6" d="M144.37,104.33v0S144.36,104.33,144.37,104.33Z"/><polygon class="cls-6" points="142.61 103.53 142.63 103.52 142.62 103.4 142.61 103.53"/><path class="cls-6" d="M139.53,91.93h0S139.55,91.94,139.53,91.93Z"/><path class="cls-6" d="M144.32,88.61c0-.23.31,0,.31-.33C144.59,88.35,144.29,88.41,144.32,88.61Z"/><path class="cls-6" d="M142.67,102.08l0,0S142.67,102.06,142.67,102.08Z"/><path class="cls-6" d="M144.63,88.28h0v0Z"/><path class="cls-6" d="M139.21,89.56h0Z"/><path class="cls-6" d="M139,91.42l0,0A.06.06,0,0,0,139,91.42Z"/><path class="cls-6" d="M139.2,88.57s.06,0,0-.06h0S139.24,88.56,139.2,88.57Z"/><polygon class="cls-6" points="139.71 87.75 139.67 87.74 139.66 87.77 139.71 87.75"/><path class="cls-6" d="M147.93,102.65a.83.83,0,0,1-.16-.12C147.88,102.64,147.76,102.8,147.93,102.65Z"/><path class="cls-6" d="M142.74,102.15a.22.22,0,0,1-.07-.07v0A.11.11,0,0,0,142.74,102.15Z"/><path class="cls-6" d="M137.7,87.85l.13-.19A.53.53,0,0,0,137.7,87.85Z"/><path class="cls-6" d="M150,94.15l0,0S150,94.15,150,94.15Z"/><path class="cls-6" d="M138.16,87a.4.4,0,0,0,.2,0l0-.05Z"/><path class="cls-6" d="M147.77,102.53Z"/><path class="cls-6" d="M146.87,103.7c.19-.09,0-.29-.08-.45.17-.18.19.13.34.21.09-.14.06-.42.15-.47s.06,0,.07.1c0-.26.38-.27.36-.6l.06,0a1.23,1.23,0,0,1-.25-.28c.06-.06,0-.24.14-.11,0,0,0,.08,0,.14l0-.11c.22.15,0,.14.08.3.09-.18.1-.47.25-.5.19.17-.18.26.1.32l-.22.06c.38.21-.12.06.27.3.27-.13.15-.31.41-.44-.05-.14-.16-.14-.21-.28.1-.45.67.24.63-.21-.07-.18-.29-.41,0-.46l.17.24c.2-.21-.22-.39.11-.49.06.1-.06.23,0,.21.3,0,0-.2,0-.31l.22.12c.18-.25.14-.67.26-1,.06.05.1.13.21.1a3.12,3.12,0,0,1,.63-1.19l-.19-.2s.11,0,.14,0c.11-.14-.13,0-.21-.13s.15-.09.2,0c-.14-.32-.27-.81-.05-1.08l.06,0c.09-.22-.45-.25-.24-.45l0,0c.11-.48-.2-1,.1-1.36-.33,0,0-.48-.41-.41.16-.31.25-.25.31-.66,0-.1-.31-.06-.4-.16l.22-.08-.28-.08.24-.17-.09-.09a.18.18,0,0,1-.14.14c-.15-.13,0-.46.13-.51l-.34-.32c.09,0,.14,0,.22.06-.31-.12.21-.13-.07-.24,0,0-.13,0-.18,0a.46.46,0,0,0-.12-.5l.16,0a7.26,7.26,0,0,0-.51-.87c0,.15-.27.25-.34.17l.2-.15c-.17,0,0,.14-.26.11,0-.13.2-.21.31-.18l-.15-.1c.06,0,.11,0,.2-.07-.17,0,.07-.36-.2-.31l.05,0a6.05,6.05,0,0,0-.48-.63c-.18.11-.2,0-.39,0a1.89,1.89,0,0,0-.2-.68c-.19-.09-.18.06-.33.07.15-.12,0-.31.18-.29a2.13,2.13,0,0,0-.61-.49c0,.08,0,.14-.1.16s0-.17,0-.22h0c-.49-.13-.19-1.12-.74-1.1h0l-.39-.11c-.09-.14.17,0,.17-.2-.49-.05-.41-.45-.78-.52.19-.6-.71-.55-.79-1l0,.12c-.15.06-.05-.12-.09-.18s0,.15-.07.18c-.71-.27-1.29-1-2.19-1.26-.34-.08-.28.65-.64.31l.13-.25a4.77,4.77,0,0,1-1,.2,1.61,1.61,0,0,0-.93.43c0-.06,0-.13,0-.16-.22-.1-.46.24-.38.37-.09,0-.09-.1-.18-.13s-.15.39-.32.3c0,0,0-.07,0-.1s-.34.27-.13.36c-.25.1-.25.4-.46.47.11.23-.32.28-.06.48-.29-.19-.45.23-.36.42-.07-.08-.14.07-.25,0-.07.15-.06.32.11.35-.49.15.14.64-.4.67.06.52.14.95.21,1.36-.34,0,0-.46-.36-.47.1.43.4.64.34,1,0,.1-.15,0-.21-.08.16.38.05.77.3,1.07a.18.18,0,0,1-.1-.06c0,.07,0,.17.13.13l-.05-.06c.19-.15.51.15.63.12-.46,0,0,.34-.6.33a.22.22,0,0,0,.22,0c0,.07-.06.1-.19.08.15.2.28.07.35.27-.07,0-.12,0-.21,0,.18.06.35.1.36.29,0,0-.09,0-.11,0,.15.28.56.32.59.67-.33.06,0,.15-.27.3l.15.11.09-.13c.07.13.31.14.29.3l-.15,0,.18.21,0-.19c.2.06.3-.19.33,0-.05,0,.06.13,0,.28h0c.11,0,.23,0,.22.17s-.28.13-.32.18c.24-.06.23.26.49.22a.46.46,0,0,0-.21.09l.19,0c0,.09,0,.12-.15.16.07.2.28-.23.27.06,0,0,0,0-.09,0,.05.25.34.35.37.59-.21.2-.16-.13-.33,0,.21.25.63.41.72.72v-.07c.37-.16-.05.3.19.35-.05,0-.22.06-.17,0,.05.22.3.33.57.55l-.11,0c0,.15.12.31.15.45.1,0,.13.06.23-.05-.29.65.67.54.44,1.1,0,0-.13,0-.12,0l.24.23c.14-.11.07-.09.16-.22a.27.27,0,0,1,.26.09c-.17-.06-.24.14-.29.24s.1,0,.14-.07c-.18.29.32-.15.25.15l-.08,0c.08,0,.22.06.24.15-.15.14-.12,0-.27,0,.08.1.46,0,.34.23-.07,0-.11-.09-.19-.11-.14.23-.08.21-.07.31h0l0,.24,0-.08c.53-.12.24.24.65.26-.39,0-.18.06-.39.16,0,.08-.05.19-.11.2.21,0,0,.22.26.21-.06,0,0,.1-.13.16.08,0,.11-.07.19-.11.25,0,0,.25.12.32,0,0,0,0,.07.07s.31.26.31.52c-.14,0-.21-.17-.21-.16a.22.22,0,0,0-.15.3c-.05,0-.11,0-.2-.06s.21.18.06.25a1.15,1.15,0,0,1-.22-.22c0,.13.08.3.09.43-.13,0-.15-.15-.2-.22,0,.14-.05.36.11.48l.11,0s-.17,0-.19-.1.14-.12.21-.09v.09c.42.11.09-.33.19-.47l.24.2-.15-.27c.09,0,.26,0,.26.15.19,0-.05-.15.15-.17l0,0,0-.15s.21.07.13.13c.29-.19,0-.44.23-.47v0c.05-.33-.21-.08-.42-.26h0a2.47,2.47,0,0,0,.54-.19h-.27s0-.09.08-.1c-.23-.08-.09,0-.28,0,.12-.2-.3-.32,0-.52-.17,0,0,.19-.23.12.32-.24-.15-.13-.06-.33s.17.09.26-.11c-.34.1-.06-.27-.18-.33-.24.13-.22-.16-.39-.28.08,0-.05-.39-.05-.59l0,0c-.26.11-.3-.08-.42-.16a.42.42,0,0,1,.32-.07l-.07-.1a.28.28,0,0,1-.22-.05l.2-.08c-.09-.13-.38-.17-.36-.42-.18.08-.38.41-.61.28.09-.06.24-.15.3-.12s-.11,0-.09-.08h.2c0-.12-.15,0-.18,0,.13-.08.07-.11.17-.15s0,.08.05.08a.37.37,0,0,1,.08-.31c-.07,0-.17.1-.22,0s.13-.13.15-.26-.07-.13-.27,0c0,0,.06-.1.11-.15-.13,0-.23-.33-.38-.13v0h0c-.33-.14-.18-.57-.4-.77l.06,0c-.16-.1-.23-.29-.43-.32,0,0,.06-.17.15-.19-.11-.09-.19-.06-.18-.28.18,0,.08-.09.15.07,0-.18.06-.27-.2-.32a.14.14,0,0,0,.05-.27l-.06.17a.53.53,0,0,1-.12-.22l.24-.09c.1-.44-.75-.27-.44-.75-.19,0,0,.22-.23.25,0-.15.18-.47.16-.51,0-.25-.42,0-.45-.23-.06.06-.25.21-.41.1s.23-.35.34-.3,0,.06,0,.07.12.07.18,0l-.09,0c0-.11-.08-.29.08-.32-.14-.06-.16,0-.15.13,0-.24-.16-.28-.18-.49,0,0-.1.12-.12.1,0-.3-.21,0-.33-.19.08-.15.31-.1.12-.22,0-.15.21-.13.29-.12-.22-.08,0-.32,0-.42l.09,0a.14.14,0,0,1-.08-.11l-.15.12c0-.06,0-.1.06-.13-.12,0-.26.15-.45.1.06-.1-.16-.18.06-.27,0,.23.22-.1.31.06,0,0-.05-.06,0-.12a.06.06,0,0,1,.07,0c.14-.25-.28,0-.34-.21.14,0,.23-.12.2-.14s-.21.1-.33,0c.07-.16-.11-.13-.11-.2l0,.09c-.14,0-.14-.07-.19-.16.1,0,.08.07.12,0-.25-.07.19-.29,0-.41.08-.08.25,0,.3-.1-.18-.14.16-.18,0-.34-.18.06-.14.07-.31,0,0,.09.09.19.14.28l-.27-.17c0,.09.12.18.09.23s-.1-.07-.25,0c.26-.15-.17-.24,0-.4H139c.2-.19-.22-.36-.08-.62l-.09.08c-.17-.06,0-.17-.06-.27a.56.56,0,0,0,.3,0c-.1,0,0-.18-.23-.27l.22-.07c.12-.17-.34-.35-.22-.55.13.12.26.07.32.23,0-.06.07-.11,0-.14.1,0-.11-.25.05-.26-.05-.05-.19-.12-.14-.19l.06,0c-.06,0,0-.15-.21-.17.5,0,.31-.56.74-.44a1.19,1.19,0,0,1,.25-.39s.05.06,0,.06c.22,0-.17-.41.11-.41s0,.17.08.21c.28.4.18-.19.43,0v0c.14.11.14-.26.31-.28a.41.41,0,0,0,0,.07.64.64,0,0,1,.44-.46c0,.19-.07.1,0,.29.08,0,0-.31.12-.37a.71.71,0,0,1,.17.41h-.13c.06.27.17,0,.24,0l0,.11c.2,0,.26-.3.5-.23v-.09c.21-.26.07.19.26,0l0,.3a1.32,1.32,0,0,1,.57-.15,2.11,2.11,0,0,1-.53.28.34.34,0,0,0,.37,0s-.11.06-.13,0a.47.47,0,0,1,.54-.14c-.28.5.36.36.23.81.38,0,.46.42.74.62.19-.42.09.06.38-.3.08,0,.1.07.09.1v.39c0,.14-.13,0-.19.09.11.16-.08.2-.07.37.09-.13.21-.12.25,0l0-.26c.37,0-.1.43.25.46l-.16,0c.16,0,.34.36.71.22,0,0-.09.16-.16.14.17.29.79.31.77.67l-.1,0c.06,0,.23,0,.19.09s-.11,0-.09.07.25,0,.25.13h-.14c.08.35.55.23.77.42a.53.53,0,0,0-.2.6l0,0c.18.33.56.4.86.65-.19.36.21.73.19,1.13,0-.07.24-.1.29-.06s.3.12,0,.23v0c-.25.18-.11.3-.07.42l.38-.13c-.39.52.5.79.08,1.12.12,0,.15.15.26.2l-.2.05a1.1,1.1,0,0,0,.1.6l-.16,0c0,.15.66.08.68.22l-.31.1c0,.27-.19.55.1.79,0,0-.13,0-.15,0,0,.12-.21.46.22.42-.29,0,0,.27.09.43l-.21,0c.25.13.32.15.37.33s-.17,0-.11,0c-.13.11.18.13.05.28l-.13-.08c0,.13,0,.13.18.24s-.13.25-.31.22c.1,0,.23.16.15.23a.24.24,0,0,1-.12-.08c-.21.17.13.42-.13.49a.26.26,0,0,0-.13,0c.1-.15.13-.3.14-.28-.18-.06-.25.06-.47-.14.12.15.32.45.17.53h-.07v0s0,0,0,.09a.21.21,0,0,0-.11.07c-.14-.06-.14.09-.18.15.18.11.11.17.3.19,0,0,0,0,0-.08a0,0,0,0,0,0,0h0l.07-.17c.06.11.11.21,0,.22.1.1.2.22.24.27-.3-.06-.56,0-.71-.1-.05.23-.23.44-.07.82,0,.09-.13,0-.19,0s0-.08,0-.14c0,.17-.25.31-.09.53-.21,0-.11-.25-.25-.06l0-.08c-.6-.06-.14,1-.9.85a.16.16,0,0,1,.1.05c-.59.09-1,.78-1.65.58-.18,0-.15.15-.21.3l-.09-.21-.1.3c-.21.25-.53-.45-.77,0l.07.15c-.12,0-.34.14-.35,0,0,0,0,.16-.07.09l0-.12-.25.24c-.23-.06,0-.47-.34-.46-.11.06-.29.38-.24.46a.17.17,0,0,1,.14.17l-.1.08c0,.35,0,.71.27.92l.17-.23.08.16-.16,0c.11.15.15,0,.21-.1a.31.31,0,0,0,.1.17l.15-.35c0,.13,0,.28.09.33.07-.16-.13-.29,0-.41.12.14.11.28.2.12a.19.19,0,0,1,0,.2c.08-.13.25-.09.27-.28.13.17.32-.11.37.21,0-.08.13-.29.21-.32-.08.42.34,0,.4.36,0-.37.42-.27.57-.53,0,0,0,.09,0,.08.13,0,.2.08.3.11-.08-.28.09-.42.11-.62.26.2.05.35.19.59-.09-.22.17-.33,0-.49.18.11.13,0,.29.23-.13-.34.08-.11.07-.35.24.08.2.28.32.09C147,103.5,146.87,103.7,146.87,103.7Zm2.84-3.66h0l0,.09Zm.17-.35-.07.15c-.08,0-.14-.06-.12-.09S149.81,99.72,149.88,99.69Zm-1.63,0c0-.06,0-.05.08,0a.15.15,0,0,0,0,.08l0,0Z"/><path class="cls-6" d="M148.45,99.89v0h.05l0,0Z"/><path class="cls-6" d="M141.69,97.38h0l0,0Z"/><polygon class="cls-6" points="150.25 94.51 150.19 94.53 150.25 94.54 150.25 94.51"/><path class="cls-6" d="M142,99.39l0,0Z"/><path class="cls-6" d="M142.37,100.13v.14A.32.32,0,0,0,142.37,100.13Z"/><path class="cls-6" d="M142.6,100.74l.08,0h0Z"/><path class="cls-6" d="M137.58,91.75l0,0C137.51,91.67,137.53,91.71,137.58,91.75Z"/><path class="cls-6" d="M139.3,94.47l-.14,0S139.19,94.53,139.3,94.47Z"/><polygon class="cls-6" points="137.69 87.87 137.69 87.88 137.7 87.85 137.69 87.87"/><path class="cls-6" d="M139.1,94.31a.12.12,0,0,0,.06.13S139.15,94.33,139.1,94.31Z"/><path class="cls-6" d="M142.37,102.6l0,0,0,0Z"/><path class="cls-6" d="M142.38,102.64v0A0,0,0,0,0,142.38,102.64Z"/><path class="cls-6" d="M142.4,102.77l0-.09S142.35,102.73,142.4,102.77Z"/><path class="cls-6" d="M142.82,101.89l-.06,0Z"/><path class="cls-6" d="M142.89,101.71s-.18,0-.18.1l0,0C142.68,101.74,143,101.78,142.89,101.71Z"/><path class="cls-6" d="M143.7,100.81l.08.26c.06-.07.13-.17.22,0C144,100.6,143.86,101.14,143.7,100.81Z"/><path class="cls-6" d="M143.47,100.15c.09.08.1-.06.14-.07S143.49,100,143.47,100.15Z"/><path class="cls-6" d="M141.09,96l.17-.09C141.2,95.85,141.2,96,141.09,96Z"/><polygon class="cls-6" points="139.78 95.69 139.72 95.83 139.89 95.78 139.78 95.69"/><polygon class="cls-6" points="140.7 94.55 140.74 94.57 140.6 94.47 140.7 94.55"/><path class="cls-6" d="M139.75,88l-.2-.13C139.56,87.93,139.76,88.1,139.75,88Z"/><path class="cls-6" d="M142.11,87c0,.12.06.22.14.12S142.15,87,142.11,87Z"/><polygon class="cls-6" points="148.16 94.26 148.06 94.23 148.16 94.32 148.16 94.26"/><path class="cls-6" d="M132.58,113a8.08,8.08,0,0,0,5.71-2.49c3.6-3.78-.36-10.47-3.51-13.22-1.21-1.06-3.09-2.07-4.7-1.19a3.49,3.49,0,0,0-1.67,2.21,6,6,0,0,0,.67,4.61l4.59,6.84Z"/><path class="cls-6" d="M132.11,112.83s.2.08.19,0l-.22-.13Z"/><path class="cls-6" d="M132.69,112.55a.79.79,0,0,0-.49-.29c.2.15.1.14.34.31,0,.07-.11.08-.2,0,.06,0-.08.08.06.17s.25-.13.13-.28A.28.28,0,0,1,132.69,112.55Z"/><path class="cls-6" d="M132,106.62v0Z"/><path class="cls-6" d="M129.85,103.19a.06.06,0,0,0,.07,0S129.87,103.17,129.85,103.19Z"/><path class="cls-6" d="M129.72,102.51v0S129.74,102.5,129.72,102.51Z"/><path class="cls-6" d="M132,106.62v-.14C131.92,106.52,132,106.56,132,106.62Z"/><path class="cls-6" d="M132.41,111.51s0,0,0,.08,0,0,0-.06Z"/><path class="cls-6" d="M133.14,108l0,0,.1,0Z"/><path class="cls-6" d="M134,109.17s-.22,0-.31.07a.25.25,0,0,1,.18,0Z"/><path class="cls-6" d="M133.31,111.49l0,.05Z"/><path class="cls-6" d="M132.64,107.14l.05,0Z"/><path class="cls-6" d="M134.34,113.73v0S134.33,113.73,134.34,113.73Z"/><polygon class="cls-6" points="132.58 112.94 132.6 112.92 132.59 112.8 132.58 112.94"/><path class="cls-6" d="M129.52,101.41Z"/><path class="cls-6" d="M134.25,98c0-.22.3,0,.31-.32C134.51,97.72,134.22,97.78,134.25,98Z"/><path class="cls-6" d="M132.44,111.49s0,0,0-.06A.07.07,0,0,0,132.44,111.49Z"/><path class="cls-6" d="M134.56,97.65h0v0Z"/><path class="cls-6" d="M129.16,99h0Z"/><path class="cls-6" d="M128.93,100.9l0-.05A.17.17,0,0,0,128.93,100.9Z"/><path class="cls-6" d="M129.14,98s.06,0,0-.06h0S129.18,98,129.14,98Z"/><polygon class="cls-6" points="129.64 97.2 129.6 97.19 129.59 97.22 129.64 97.2"/><path class="cls-6" d="M137.91,112l-.16-.11C137.86,112,137.74,112.19,137.91,112Z"/><path class="cls-6" d="M132.52,111.55c-.05,0-.07,0-.08-.06v0Z"/><path class="cls-6" d="M127.63,97.35l.12-.2A.56.56,0,0,0,127.63,97.35Z"/><path class="cls-6" d="M140,103.51l0,0S140,103.52,140,103.51Z"/><path class="cls-6" d="M128.08,96.52a.36.36,0,0,0,.19,0s0,0,0,0Z"/><path class="cls-6" d="M137.75,111.93Z"/><path class="cls-6" d="M136.85,113.1c.19-.09,0-.29-.08-.45.16-.18.19.12.34.21.09-.14.06-.42.15-.47s.06,0,.07.1c0-.27.38-.28.36-.6l.06,0a1.5,1.5,0,0,1-.25-.29c.06,0,0-.23.14-.11,0,0,0,.09,0,.15l0-.12c.22.15,0,.15.08.3.09-.18.1-.47.25-.5.19.18-.18.27.1.32l-.22.06c.38.21-.12.06.27.3.27-.12.15-.3.41-.44,0-.14-.16-.14-.21-.28.1-.45.67.25.63-.21-.07-.18-.29-.41,0-.47l.17.25c.2-.21-.22-.39.11-.5.06.11-.06.23,0,.22.3,0-.05-.2,0-.32l.23.13c.17-.26.13-.67.25-1,.06,0,.1.13.21.1a3.21,3.21,0,0,1,.62-1.2l-.19-.2s.11,0,.15,0c.1-.14-.14,0-.21-.12s.14-.1.2,0c-.14-.32-.28-.81-.07-1.08l.07.06c.09-.23-.45-.25-.24-.46l0,0c.11-.48-.19-1,.1-1.36-.33,0,0-.48-.41-.41.16-.31.26-.26.3-.66,0-.1-.31-.07-.39-.17l.22-.07-.28-.08.23-.17-.09-.09s-.07.12-.13.14c-.16-.14,0-.47.12-.52l-.34-.31c.09,0,.15,0,.22,0-.3-.12.21-.13-.07-.24,0,0-.13,0-.18.06a.48.48,0,0,0-.12-.51l.16,0a7.48,7.48,0,0,0-.52-.88c0,.15-.26.25-.33.18l.19-.16c-.16,0,0,.14-.25.11,0-.13.2-.21.31-.18l-.16-.1c.06,0,.12,0,.2-.06-.16,0,.08-.36-.2-.31l.06-.05a6,6,0,0,0-.49-.63c-.18.11-.2,0-.39,0a1.89,1.89,0,0,0-.2-.69c-.19-.08-.18.06-.33.07.15-.12,0-.31.17-.29a1.89,1.89,0,0,0-.61-.49c0,.08,0,.14-.1.16s0-.16,0-.22h0c-.48-.14-.2-1.13-.74-1.1h0l-.4-.12c-.08-.14.17,0,.18-.2-.5,0-.41-.45-.79-.52.19-.6-.71-.54-.8-1l0,.12c-.15.06-.05-.12-.1-.19,0,.1,0,.16-.06.19-.72-.27-1.31-1-2.22-1.24-.35-.07-.26.65-.64.32l.13-.25a6.47,6.47,0,0,1-1,.23,1.55,1.55,0,0,0-.92.45c0-.07,0-.13,0-.16-.22-.1-.45.25-.37.37-.09,0-.09-.09-.19-.12s-.13.39-.3.31,0-.07,0-.1-.33.28-.12.36c-.25.11-.24.4-.45.48.12.23-.32.28-.05.49-.29-.19-.44.23-.35.42-.07-.08-.14.08-.25,0-.06.16-.05.32.12.35-.49.16.14.65-.4.68.07.51.16.95.24,1.36-.34,0,0-.46-.37-.46.11.42.4.63.35,1,0,.11-.15,0-.21-.07.17.38.06.77.33,1.06a.13.13,0,0,1-.11,0c0,.07,0,.17.13.13l0-.06c.19-.15.51.14.63.11-.45,0,0,.34-.6.34a.24.24,0,0,0,.23,0c0,.07-.06.11-.19.08.15.21.28.07.35.27-.07,0-.11,0-.2,0,.18,0,.34.1.36.29,0,0-.09,0-.11,0,.14.28.56.3.6.66-.35.05,0,.19-.24.34l.16.09.08-.13c.08.13.32.12.31.28l-.15,0,.19.2v-.19c.2,0,.28-.21.32,0,0,0,.08.12,0,.28h0c.11,0,.23,0,.24.15s-.27.15-.31.2c.23-.07.24.25.5.19a.42.42,0,0,0-.21.11l.2-.06a.2.2,0,0,1-.14.17c.09.19.26-.25.27,0,0,0,0,0-.09,0,.07.25.36.32.41.56-.2.22-.17-.12-.32.07.22.25.65.37.77.67V106c.35-.19,0,.3.21.33,0,0-.21.08-.17.06.06.21.32.31.61.51l-.11,0c0,.15.14.3.18.44.11,0,.14.05.24-.07-.25.67.7.49.51,1.07,0,0-.13,0-.12,0l.26.21c.13-.12.06-.1.14-.23a.27.27,0,0,1,.27.08c-.18-.06-.23.15-.28.26a1.1,1.1,0,0,1,.14-.09c-.16.31.31-.17.26.13l-.08,0c.08,0,.23,0,.26.14-.15.14-.13,0-.27.06.08.1.46,0,.36.21-.08,0-.13-.08-.2-.09-.13.23-.07.21,0,.31h0a.6.6,0,0,1,0,.22l0-.06c.24-.11.31,0,.35,0s.06.12.3.18c-.45-.09-.21,0-.47,0l-.09.06a.18.18,0,0,1-.09,0c.18,0-.18.07.08.15-.08,0,0,.06-.21,0,0,.07.13,0,.23,0s-.43.3-.19.67c.06.29.27.41.32.67-.14,0-.24-.14-.24-.14a.25.25,0,0,0-.11.33c-.05,0-.11,0-.2,0s.23.15.09.23a1.05,1.05,0,0,1-.25-.18c0,.13.12.28.15.41-.14,0-.17-.13-.23-.19,0,.14,0,.36.18.46l.09,0s-.17,0-.19-.08.12-.14.19-.12v.1c.44,0,0-.35.12-.5l.28.17-.19-.25c.09,0,.26,0,.28.11.18-.06-.07-.13.12-.18,0,0,.05,0,.05,0l-.05-.14c.06,0,.22.05.15.11.24-.15-.11-.41.14-.41v0c0-.32-.21-.1-.39-.4l.58,0-.2-.11a.09.09,0,0,1,.13,0c-.11-.16-.1,0-.22-.13.25-.08,0-.41.42-.4-.16-.07-.19.14-.26,0,.38,0,.07-.16.18-.28a.06.06,0,0,1,0,0l.14,0c.05,0,0,.11.18,0h0c-.43,0-.11-.3-.28-.43-.25.11-.28-.22-.45-.31.08,0-.08-.39-.1-.59l0,0c-.24.13-.3-.06-.42-.13.14-.09.2-.11.3-.09l-.07-.1a.24.24,0,0,1-.22,0l.19-.08c-.1-.14-.39-.15-.39-.4-.17.09-.35.44-.59.32.09-.07.23-.17.3-.15s-.11,0-.1-.06l.2,0c0-.13-.15,0-.18,0,.12-.08,0-.11.16-.16s0,.09.05.08a.35.35,0,0,1,.06-.32c-.07.06-.17.11-.22.07s.12-.14.13-.27c-.11,0-.08-.12-.27,0,0,0,.06-.11.1-.16-.13,0-.25-.32-.39-.1v0h0c-.34-.12-.22-.56-.46-.74l.06,0c-.16-.1-.25-.29-.45-.3,0,0,0-.17.14-.2-.12-.08-.2,0-.2-.26.18,0,.07-.1.15,0,0-.17,0-.27-.23-.3a.15.15,0,0,0,0-.28l-.05.18a.52.52,0,0,1-.13-.21l.23-.1c.06-.46-.77-.23-.5-.72-.19,0,0,.22-.21.26-.06-.14.15-.48.12-.52,0-.26-.41,0-.46-.2-.06.07-.24.22-.4.13s.2-.37.31-.32,0,.05,0,.07.13.06.17,0l-.08,0c0-.11-.1-.28.05-.32-.14-.06-.15,0-.14.13,0-.23-.18-.28-.2-.46,0,0-.11.11-.12.09,0-.23-.2,0-.32-.14.07-.16.3-.12.12-.24,0-.14.2-.12.29-.11-.24-.08,0-.33,0-.42l.1.05a.19.19,0,0,1-.09-.11l-.14.11c0-.06,0-.1.06-.12-.13,0-.26.15-.45.1.06-.1-.16-.17.05-.27,0,.23.22-.1.31.06a.09.09,0,0,1,0-.12s0,0,.06,0c.14-.26-.29,0-.34-.21.14,0,.23-.12.19-.14s-.2.1-.32,0c.07-.16-.11-.13-.12-.2l0,.09c-.14,0-.14-.07-.2-.16.1,0,.09.08.12,0-.25-.07.19-.29,0-.41.08-.08.25,0,.3-.1-.19-.15.16-.19,0-.34-.18,0-.14.06-.31-.05,0,.09.09.19.14.28l-.27-.17c0,.09.12.18.1.23s-.11-.07-.25,0c.25-.15-.18-.24,0-.4H129c.19-.2-.23-.36-.09-.63l-.09.08c-.17,0,0-.17-.06-.26a.56.56,0,0,0,.3,0c-.11,0,.05-.18-.24-.26l.22-.08c.13-.17-.35-.35-.23-.54.13.11.26.06.33.22,0-.06.07-.11,0-.15.1,0-.12-.25,0-.25,0,0-.19-.12-.15-.19a.11.11,0,0,1,.07,0c-.07,0,0-.16-.21-.17.49,0,.29-.57.73-.46a1,1,0,0,1,.24-.39s0,0,0,.06c.22,0-.18-.41.1-.42.22.14,0,.17.08.21.29.39.18-.2.44,0v0c.15.11.13-.27.31-.29a.12.12,0,0,0,0,.07.6.6,0,0,1,.43-.47c0,.19-.07.1,0,.29.07,0-.06-.31.11-.37a.75.75,0,0,1,.18.4h-.14c.07.27.17,0,.25,0l0,.12c.2,0,.25-.31.49-.24v-.09c.2-.26.07.18.26,0l0,.3a1.28,1.28,0,0,1,.56-.16,2.35,2.35,0,0,1-.53.29c.08,0,.28.08.38,0s-.12.07-.13,0a.46.46,0,0,1,.54-.14c-.28.5.36.35.23.81.38,0,.46.41.75.61.19-.42.09.06.37-.3.09,0,.11.07.1.09V98c0,.14-.13,0-.19.1.11.16-.08.2-.07.37.09-.14.21-.12.25,0l0-.25c.37,0-.1.43.26.45l-.17,0c.16,0,.35.37.72.23,0,.05-.1.16-.16.13.17.29.78.32.77.67l-.1,0c.06,0,.23,0,.19.09s-.11,0-.09.08.25,0,.25.12l-.14,0c.07.35.55.22.77.42a.52.52,0,0,0-.2.59l0,0c.19.34.57.41.87.66-.19.36.21.73.19,1.13,0-.07.24-.1.3-.06s.29.12,0,.23v0c-.25.18-.12.3-.07.42l.37-.13c-.38.52.51.79.08,1.12.12.05.16.15.27.2l-.2.06a1.06,1.06,0,0,0,.1.59l-.16,0c0,.15.65.07.69.22l-.31.09c0,.27-.2.56.1.8,0,0-.14,0-.15-.05,0,.13-.22.47.22.43-.29,0,0,.27.09.43l-.21,0c.25.14.32.15.37.33s-.17,0-.11,0c-.13.12.18.13.05.28l-.13-.08c0,.13,0,.13.18.24s-.13.25-.31.22c.11,0,.23.16.15.23a.19.19,0,0,1-.12-.07c-.2.16.14.41-.12.48l-.13,0c.09-.16.12-.3.14-.28-.19-.06-.26,0-.47-.14.11.15.32.45.17.53h-.07v0s0,0,0,.09-.08,0-.1.07-.15.09-.18.15c.18.1.11.17.29.18,0,0,0,0,0-.07s0,0,0,0v0l.07-.17c.07.1.12.2,0,.22a2.33,2.33,0,0,1,.24.27c-.29-.06-.56,0-.71-.1,0,.24-.24.44-.07.82,0,.09-.13,0-.19,0s0-.08,0-.13c0,.16-.26.3-.09.53-.22,0-.11-.26-.25-.06l0-.09c-.61,0-.14,1-.9.86,0,0,.07,0,.1,0-.59.09-1,.79-1.66.58-.17,0-.14.15-.21.31l-.09-.21-.1.29c-.21.25-.53-.44-.77,0l.07.14c-.12,0-.34.14-.35,0,0,0,0,.16-.07.09l0-.12-.25.24c-.23-.06,0-.47-.34-.45-.11,0-.3.38-.24.45a.19.19,0,0,1,.14.18l-.1.07c0,.35,0,.72.27.93l.17-.24.08.17-.16,0c.11.15.15,0,.21-.1a.3.3,0,0,0,.1.18l.15-.36c0,.13,0,.28.09.34.07-.17-.13-.29,0-.42.12.15.11.28.2.13a.18.18,0,0,1,0,.19c.08-.12.25-.09.27-.28.13.18.32-.11.38.22a.59.59,0,0,1,.2-.33c-.07.43.35-.05.41.37,0-.38.41-.28.57-.54,0,0,0,.09,0,.08s.2.08.3.11c-.08-.28.08-.41.11-.62.25.2,0,.35.19.59-.1-.22.17-.33,0-.49.18.11.13,0,.29.23-.14-.34.08-.11.07-.36.24.09.2.29.32.1C137,112.9,136.85,113.1,136.85,113.1Zm2.84-3.68h0l0,.09Zm.16-.35a.66.66,0,0,1-.07.15c-.07,0-.13-.06-.11-.09S139.78,109.1,139.85,109.07Zm-1.63,0c0-.06,0,0,.08,0s0,0,0,.08l0,0Z"/><path class="cls-6" d="M138.42,109.28s0,0,0,0h0l0,0Z"/><path class="cls-6" d="M132,106.68h0l0,0Z"/><polygon class="cls-6" points="140.2 103.88 140.15 103.89 140.21 103.91 140.2 103.88"/><path class="cls-6" d="M132.45,108.67l0,0Z"/><path class="cls-6" d="M132.87,109.38v.14A.32.32,0,0,0,132.87,109.38Z"/><path class="cls-6" d="M133,109.78h.11Z"/><path class="cls-6" d="M127.57,101.25l0,0Z"/><path class="cls-6" d="M129.39,103.94a.58.58,0,0,1-.14,0C129.27,104,129.29,104,129.39,103.94Z"/><polygon class="cls-6" points="127.61 97.37 127.62 97.37 127.63 97.34 127.61 97.37"/><path class="cls-6" d="M129.18,103.79a.1.1,0,0,0,.07.12S129.23,103.81,129.18,103.79Z"/><path class="cls-6" d="M132.21,112l0,0h0Z"/><path class="cls-6" d="M132.22,112.08v0A0,0,0,0,0,132.22,112.08Z"/><path class="cls-6" d="M132.26,112.21l0-.09S132.21,112.17,132.26,112.21Z"/><path class="cls-6" d="M132.57,111.28l-.07,0Z"/><path class="cls-6" d="M132.63,111s-.21.09-.19.19l.06,0C132.4,111.17,132.73,111.12,132.63,111Z"/><path class="cls-6" d="M133.87,110.28l-.13.22c.09,0,.2,0,.19.07C134.25,110.38,133.73,110.6,133.87,110.28Z"/><path class="cls-6" d="M134.05,109.46c.13.12.13,0,.18,0C134.09,109.35,134.06,109.34,134.05,109.46Z"/><path class="cls-6" d="M131.29,105.34l.17-.1C131.38,105.18,131.39,105.28,131.29,105.34Z"/><polygon class="cls-6" points="129.96 105.13 129.91 105.27 130.07 105.2 129.96 105.13"/><polygon class="cls-6" points="130.79 103.92 130.83 103.93 130.69 103.85 130.79 103.92"/><path class="cls-6" d="M129.68,97.45l-.2-.13C129.49,97.39,129.7,97.55,129.68,97.45Z"/><path class="cls-6" d="M132,96.38c0,.12.07.2.15.11S132.06,96.35,132,96.38Z"/><polygon class="cls-6" points="138.11 103.63 138.01 103.6 138.12 103.69 138.11 103.63"/><path class="cls-9" d="M137.16,107.85a8.09,8.09,0,0,0,5.7-2.49c3.61-3.78-.35-10.47-3.5-13.23-1.21-1-3.09-2.06-4.7-1.19A3.47,3.47,0,0,0,133,93.16a6,6,0,0,0,.67,4.61l4.54,8Z"/><polyline class="cls-2" points="131.13 94.55 131.74 95.05 132.33 95.56 132.87 96.14 133.46 96.66 133.99 97.25 134.5 97.85 135.06 98.4 135.53 99.04 136.01 99.67 136.46 100.31 136.95 100.94 137.31 101.64 137.76 102.3 138.07 103.03 138.42 103.74 138.68 104.48 138.96 105.22 139.19 105.98 139.34 106.76 139.44 107.54 139.53 108.33"/><polyline class="cls-2" points="135.96 89.17 136.55 89.69 137.13 90.23 137.7 90.77 138.25 91.33 138.82 91.87 139.34 92.47 139.85 93.07 140.38 93.66 140.81 94.33 141.27 94.97 141.74 95.6 142.16 96.27 142.54 96.96 142.9 97.67 143.23 98.39 143.55 99.11 143.79 99.87 144.01 100.63 144.18 101.4 144.25 102.19 144.34 102.98"/><polyline class="cls-2" points="110.63 129.6 110.56 128.81 110.57 128.02 110.57 127.23 110.48 126.44 110.56 125.64 110.54 124.85 110.45 124.06 110.41 123.27 110.32 122.48 110.38 121.69 110.21 120.9 110.26 120.1 110.26 119.31 110.19 118.51 110.13 117.73 110.09 116.94 110.11 116.14 109.97 115.35 109.88 114.56 109.92 113.76 109.78 112.97 109.79 112.17 109.66 111.38 109.57 110.58 109.52 109.79 109.44 108.99 109.32 108.2 109.26 107.41 109.17 106.62 109.04 105.84 108.93 105.05 108.9 104.27 108.67 103.54 108.28 102.87 107.98 102.15 107.35 101.69 106.69 101.29 105.91 101.33 105.17 101.39 104.41 101.5 103.69 101.78 103.01 102.14 102.33 102.5 101.73 102.99 101.14 103.48 100.49 103.89 99.96 104.45 99.34 104.9 98.85 105.51 98.23 105.97 97.65 106.47 97.17 107.06"/><line class="cls-2" x1="61.21" y1="138.22" x2="97.68" y2="106.24"/><polyline class="cls-2" points="129.78 42.51 129.81 43.28 129.66 44.13 130.32 44.72 130.36 45.55 130.85 46.18 130.93 47.04 131.79 47.41 132.14 48.11 132.5 48.82 133.04 49.39 133.44 50.08 134.22 50.42 134.75 50.99 135.14 51.72 135.62 52.36 136.58 52.44 137 53.17 137.61 53.67 138.12 54.31 138.88 54.59 139.58 54.97 140.17 55.52 140.89 55.84 141.63 56.13 142.46 56.18 143.04 56.84 143.82 57 144.63 57.01 145.37 57.25"/><polyline class="cls-2" points="167.49 73.04 168.27 73.1 169.05 73.1 169.83 73.08 170.6 73.06 171.38 73.17 172.15 73.2 172.94 73.1 173.72 73.2 174.5 73.21 175.28 73.14 176.06 73.2 176.83 73.08 177.61 73.13 178.38 73.08 179.16 73.06 179.92 72.88 180.69 72.83 181.45 72.64 182.22 72.57 182.96 72.32 183.72 72.17 184.44 71.89 185.17 71.65 185.94 71.5 186.65 71.19 187.34 70.83 188.06 70.55 188.75 70.19 189.44 69.84 190.13 69.5 190.86 69.2 191.49 68.73"/><polyline class="cls-2" points="178.81 73.46 179.31 74.06 179.72 74.72 180.24 75.31 180.71 75.93 181.06 76.63 181.56 77.23 182.1 77.78 182.61 78.37 183.21 78.86 183.86 79.28 184.5 79.71 185.22 80.02 185.92 80.35 186.65 80.64 187.42 80.83 188.2 80.97 188.97 81.12 189.74 81.31 190.53 81.4 191.32 81.35 192.1 81.41 192.89 81.55 193.68 81.54 194.47 81.52 195.25 81.59 196.04 81.61 196.83 81.53 197.62 81.59 198.4 81.61"/><path class="cls-10" d="M143.11,23.27c4.24,4.94,3.74,12.51,7.27,17.92a48,48,0,0,0,11.78,12.48c8.73,6.1,20.6,7.43,31.28,9.63"/><polyline class="cls-2" points="122.75 27.98 123.22 28.61 123.8 29.13 124.48 29.56 124.69 30.4 125.31 30.89 125.88 31.44 126.46 31.97 126.49 32.92 127.03 33.48 127.68 33.97 128.31 34.47 128.59 35.23 129.09 35.82 129.37 36.58 130.14 36.96 130.15 37.93 130.97 38.26 131.13 39.13 131.86 39.52 132.39 40.08 133.12 40.44 133.27 41.38 134.07 41.66 134.47 42.37 134.92 43.05 135.95 42.95 136.35 43.73 137.02 44.12 137.66 44.56 138.4 44.81 139.06 45.24 139.9 45.2 140.66 45.33 141.26 46.03 142.13 45.7"/><polyline class="cls-2" points="115.31 138.42 116.09 138.35 116.86 138.23 117.63 138.08 118.41 138.09 119.19 138.05 119.96 138.09 120.74 138.13 121.52 138.22 122.29 138.32 123.06 138.44 123.81 138.65 124.57 138.83 125.3 139.11 126.04 139.36 126.72 139.76 127.44 140.06 128.17 140.35 128.86 140.71 129.47 141.21 130.16 141.58 130.82 142 131.4 142.53 131.97 143.06 132.57 143.56 133.15 144.08 133.67 144.66 134.24 145.2 134.73 145.81 135.15 146.47 135.55 147.14 136.06 147.74 136.38 148.45 136.75 149.14 137.18 149.8 137.42 150.54 137.67 151.28 137.98 152 138.12 152.78 138.25 153.54 138.46 154.3"/><polyline class="cls-2" points="133.05 142.13 133.52 141.51 134.04 140.94 134.66 140.46 135.25 139.94 135.94 139.57 136.62 139.2 137.33 138.9 138.05 138.6 138.79 138.35 139.54 138.16 140.31 138.06 141.08 137.92 141.86 137.96 142.64 137.94 143.42 137.99 144.18 138.16 144.95 138.28 145.69 138.52 146.41 138.82 147.11 139.16 147.8 139.52 148.41 140.01"/><path class="cls-8" d="M68.78,144.74c-.36,9.36,2.69,4.19-6.67,3.83s-20.44-10-20.08-19.38-.42-4.63,8.94-4.27S69.14,135.38,68.78,144.74Z"/><polyline class="cls-2" points="46.27 124.54 47.06 124.53 47.84 124.61 48.62 124.72 49.41 124.77 50.18 124.89 50.97 124.92 51.74 125.09 52.52 125.23 53.25 125.55 54.02 125.7 54.74 126.03 55.47 126.3 56.21 126.58 56.88 126.99 57.54 127.42 58.24 127.77 58.87 128.25 59.49 128.72 60.13 129.18 60.73 129.68 61.32 130.19 61.93 130.69 62.43 131.29 63 131.84 63.54 132.4 64.03 133.02 64.47 133.66 64.96 134.28 65.45 134.89 65.83 135.58 66.23 136.26 66.67 136.91 67.01 137.62 67.44 138.28 67.8 138.98 68.01 139.74 68.37 140.44 68.73 141.14 68.93 141.91 69.3 142.61 69.54 143.35 69.69 144.13 70 144.86 70.19 145.62 70.41 146.37 70.61 147.13 70.67 147.93"/><path class="cls-8" d="M83,146.65c3.49,6.07,12.68,5.63,6.62,9.12s-31.8,5-35.29-1.08,5.31-9.2,11.38-12.69A12.66,12.66,0,0,1,83,146.65Z"/><polyline class="cls-2" points="60.71 142.8 61.38 142.38 62.1 142.05 62.83 141.74 63.53 141.39 64.27 141.12 64.98 140.78 65.75 140.58 66.5 140.36 67.3 140.33 68.07 140.14 68.86 140.15 69.64 140.11 70.43 140.08 71.21 140.2 71.98 140.36 72.77 140.43 73.52 140.66 74.28 140.88 75.03 141.09 75.77 141.35 76.5 141.64 77.24 141.9 77.92 142.31 78.64 142.63 79.34 142.99 80 143.41 80.64 143.87 81.3 144.3 81.97 144.72 82.56 145.25 83.15 145.77 83.78 146.24 84.33 146.8 84.95 147.3 85.51 147.84"/><circle class="cls-11" cx="170.88" cy="106.65" r="7.25"/><circle class="cls-11" cx="111.09" cy="49.8" r="4.58"/><ellipse class="cls-12" cx="89.6" cy="74.37" rx="18.68" ry="18.83" transform="translate(11.85 161.05) rotate(-87.8)"/><ellipse class="cls-12" cx="89.6" cy="74.37" rx="11.85" ry="11.95" transform="translate(11.85 161.05) rotate(-87.8)"/><ellipse class="cls-12" cx="89.6" cy="74.37" rx="6.38" ry="6.44" transform="translate(11.85 161.05) rotate(-87.8)"/></g></g></svg>