<?xml version="1.0" encoding="UTF-8"?>
<svg width="51px" height="53px" viewBox="0 0 51 53" version="1.1" xmlns="http://www.w3.org/2000/svg" xmlns:xlink="http://www.w3.org/1999/xlink">
    <!-- Generator: sketchtool 52.6 (67491) - http://www.bohemiancoding.com/sketch -->
    <title>A02F190E-6B44-4472-A678-94AB9A527367</title>
    <desc>Created with sketchtool.</desc>
    <g id="Landings" stroke="none" stroke-width="1" fill="none" fill-rule="evenodd">
        <g id="Download-Desktop---review" transform="translate(-936.000000, -480.000000)" fill="#FFFFFF" fill-rule="nonzero">
            <path d="M944,500.216374 L944,513.760234 C944,515.561404 942.319444,517 940.180556,517 C938.055556,517 936,515.549708 936,513.760234 L936,500.216374 C936,498.450292 938.055556,497 940.180556,497 C942.277778,497 944,498.450292 944,500.216374 Z M945,519.094352 C945,521.02271 946.761423,522.574803 948.949858,522.574803 L951.605338,522.574803 L951.64537,529.759111 C951.64537,534.097916 959.011322,534.062641 959.011322,529.759111 L959.011322,522.574803 L963.975334,522.574803 L963.975334,529.759111 C963.975334,534.074399 971.381318,534.086158 971.381318,529.759111 L971.381318,522.574803 L974.07683,522.574803 C976.238577,522.574803 978,521.02271 978,519.094352 L978,498 L945,498 L945,519.094352 Z M978,496 L945,496 C945,491.124965 948.391409,486.887785 953.425532,484.678073 L950.895223,480.657309 C950.524287,480.099186 951.464874,479.746087 951.782818,480.224479 L954.35287,484.279414 C958.976315,482.513923 964.288639,482.605045 968.70012,484.279414 L971.256925,480.235869 C971.588117,479.746087 972.515456,480.110576 972.14452,480.668699 L969.614211,484.678073 C974.608591,486.887785 978,491.124965 978,496 Z M955,490 C955,489.457143 954.333333,489 953.478261,489 C952.652174,489 952,489.457143 952,490 C952,490.542857 952.666667,491 953.478261,491 C954.333333,491 955,490.542857 955,490 Z M971,490 C971,489.457143 970.333333,489 969.521739,489 C968.666667,489 968,489.457143 968,490 C968,490.542857 968.666667,491 969.521739,491 C970.333333,491 971,490.542857 971,490 Z M982.819444,497 C980.722222,497 979,498.415205 979,500.216374 L979,513.760234 C979,515.561404 980.722222,517 982.819444,517 C984.958333,517 987,515.549708 987,513.760234 L987,500.216374 C987,498.415205 984.944444,497 982.819444,497 Z" id="Shape"></path>
        </g>
    </g>
</svg>